<?xml version="1.0" encoding="UTF-8" standalone="no"?>
<!DOCTYPE svg PUBLIC "-//W3C//DTD SVG 1.1//EN" "http://www.w3.org/Graphics/SVG/1.1/DTD/svg11.dtd">
<svg xmlns="http://www.w3.org/2000/svg" xmlns:xlink="http://www.w3.org/1999/xlink" version="1.1" width="348pt" height="133pt" viewBox="0 0 348 133">
<g enable-background="new">
<clipPath id="cp0">
<path transform="matrix(1,0,0,-1,-130,770)" d="M 0 0 L 595.276 0 L 595.276 841.89 L 0 841.89 Z "/>
</clipPath>
<g clip-path="url(#cp0)">
<path transform="matrix(.5703,0,0,-.5703,.08299255,.37667466)" stroke-width=".936" stroke-linecap="butt" stroke-miterlimit="10" stroke-linejoin="miter" fill="none" stroke="#000000" d="M 0 0 L 608.951 0 "/>
<path transform="matrix(.5703,0,0,-.5703,.08299255,2.6647187)" stroke-width=".398" stroke-linecap="butt" stroke-miterlimit="10" stroke-linejoin="miter" fill="none" stroke="#000000" d="M 0 0 L 608.951 0 "/>
<path transform="matrix(.5703,0,0,-.5703,.19705256,11.01733)" stroke-width=".398" stroke-linecap="butt" stroke-miterlimit="10" stroke-linejoin="miter" fill="none" stroke="#000000" d="M 0 0 L 0 14.446 "/>
<text xml:space="preserve" transform="matrix(.5703 0 -0 .5703 -74.10333 466.11958)" font-size="11.9552" font-family="LMRoman12"><tspan y="-802.339" x="224.167 233.1095 238.96755 243.52248 249.38053 253.99523 259.19575">Dataset</tspan></text>
<path transform="matrix(.5703,0,0,-.5703,129.84905,11.017334)" stroke-width=".398" stroke-linecap="butt" stroke-miterlimit="10" stroke-linejoin="miter" fill="none" stroke="#000000" d="M 0 0 L 0 14.446 "/>
<path transform="matrix(.5703,0,0,-.5703,131.21265,11.017334)" stroke-width=".398" stroke-linecap="butt" stroke-miterlimit="10" stroke-linejoin="miter" fill="none" stroke="#000000" d="M 0 0 L 0 14.446 "/>
<text xml:space="preserve" transform="matrix(.5703 0 -0 .5703 -74.10333 466.11958)" font-size="11.9552" font-family="LMRoman12"><tspan y="-802.339" x="366.191 373.5076 379.36567 385.8693 391.72737 398.231 404.08906 409.9471 415.1476 419.70256 424.31727">Language(s)</tspan></text>
<path transform="matrix(.5703,0,0,-.5703,173.99141,11.017334)" stroke-width=".398" stroke-linecap="butt" stroke-miterlimit="10" stroke-linejoin="miter" fill="none" stroke="#000000" d="M 0 0 L 0 14.446 "/>
<text xml:space="preserve" transform="matrix(.5703 0 -0 .5703 -74.10333 466.11958)" font-size="11.9552" font-family="LMRoman12"><tspan y="-802.339" x="441.202 448.5186 453.7191 460.22273 466.08079 470.6357 481.03675 484.28855 490.79219">Length[h]</tspan></text>
<path transform="matrix(.5703,0,0,-.5703,211.17041,11.017334)" stroke-width=".398" stroke-linecap="butt" stroke-miterlimit="10" stroke-linejoin="miter" fill="none" stroke="#000000" d="M 0 0 L 0 14.446 "/>
<text xml:space="preserve" transform="matrix(.5703 0 -0 .5703 -74.10333 466.11958)" font-size="11.9552" font-family="LMRoman12"><tspan y="-802.339" x="556.579 565.0313 570.88937 577.0701 581.62509 586.82559 593.0064">Context</tspan></text>
<path transform="matrix(.5703,0,0,-.5703,298.8221,11.017334)" stroke-width=".398" stroke-linecap="butt" stroke-miterlimit="10" stroke-linejoin="miter" fill="none" stroke="#000000" d="M 0 0 L 0 14.446 "/>
<text xml:space="preserve" transform="matrix(.5703 0 -0 .5703 -74.10333 466.11958)" font-size="11.9552" font-family="LMRoman12"><tspan y="-802.339" x="660.088 668.86318 674.7212 677.973 682.5877">Noise</tspan></text>
<path transform="matrix(.5703,0,0,-.5703,321.66493,11.017334)" stroke-width=".398" stroke-linecap="butt" stroke-miterlimit="10" stroke-linejoin="miter" fill="none" stroke="#000000" d="M 0 0 L 0 14.446 "/>
<text xml:space="preserve" transform="matrix(.5703 0 -0 .5703 -74.10333 466.11958)" font-size="11.9552" font-family="LMRoman12"><tspan y="-802.339" x="706.32 719.97286">#S</tspan></text>
<path transform="matrix(.5703,0,0,-.5703,347.25428,11.017334)" stroke-width=".398" stroke-linecap="butt" stroke-miterlimit="10" stroke-linejoin="miter" fill="none" stroke="#000000" d="M 0 0 L 0 14.446 "/>
<path transform="matrix(.5703,0,0,-.5703,.08299255,11.130798)" stroke-width=".398" stroke-linecap="butt" stroke-miterlimit="10" stroke-linejoin="miter" fill="none" stroke="#000000" d="M 0 0 L 608.951 0 "/>
<path transform="matrix(.5703,0,0,-.5703,.19705963,19.48285)" stroke-width=".398" stroke-linecap="butt" stroke-miterlimit="10" stroke-linejoin="miter" fill="none" stroke="#000000" d="M 0 0 L 0 14.446 "/>
<text xml:space="preserve" transform="matrix(.5703 0 -0 .5703 -74.10333 466.11958)" font-size="11.9552" font-family="LMRoman12"><tspan y="-787.495" x="189.653 196.96959 200.2214 206.72504 211.27997 214.53179 218.42919 225.74578 228.99759 234.85564 241.03649 249.48882 252.74063 261.83854 267.6966 274.20024 283.3101 289.16816 295.0262">Libri-Light[Kah+19]</tspan></text>
<path transform="matrix(.5703,0,0,-.5703,129.84905,19.48285)" stroke-width=".398" stroke-linecap="butt" stroke-miterlimit="10" stroke-linejoin="miter" fill="none" stroke="#000000" d="M 0 0 L 0 14.446 "/>
<path transform="matrix(.5703,0,0,-.5703,131.21265,19.48285)" stroke-width=".398" stroke-linecap="butt" stroke-miterlimit="10" stroke-linejoin="miter" fill="none" stroke="#000000" d="M 0 0 L 0 14.446 "/>
<text xml:space="preserve" transform="matrix(.5703 0 -0 .5703 -74.10333 466.11958)" font-size="11.9552" font-family="LMRoman12"><tspan y="-787.495" x="389.15 397.11216">EN</tspan></text>
<path transform="matrix(.5703,0,0,-.5703,173.99141,19.48285)" stroke-width=".398" stroke-linecap="butt" stroke-miterlimit="10" stroke-linejoin="miter" fill="none" stroke="#000000" d="M 0 0 L 0 14.446 "/>
<text xml:space="preserve" transform="matrix(.5703 0 -0 .5703 -74.10333 466.11958)" font-size="11.9552" font-family="LMRoman12"><tspan y="-787.495" x="446.81 455.91987 461.77793 467.636 470.8878 476.74586 482.6039">&#x003e;60.000</tspan></text>
<path transform="matrix(.5703,0,0,-.5703,211.17041,19.48285)" stroke-width=".398" stroke-linecap="butt" stroke-miterlimit="10" stroke-linejoin="miter" fill="none" stroke="#000000" d="M 0 0 L 0 14.446 "/>
<text xml:space="preserve" transform="matrix(.5703 0 -0 .5703 -74.10333 466.11958)" font-size="11.9552" font-family="LMRoman12"><tspan y="-787.495" x="544.274 552.7263 559.2299 565.7335 568.98538 578.7408 587.02578 593.2066 599.06466 605.2455">AudioBooks</tspan></text>
<path transform="matrix(.5703,0,0,-.5703,298.8221,19.48285)" stroke-width=".398" stroke-linecap="butt" stroke-miterlimit="10" stroke-linejoin="miter" fill="none" stroke="#000000" d="M 0 0 L 0 14.446 "/>
<path transform="matrix(.5703,0,0,-.5703,321.66493,19.48285)" stroke-width=".398" stroke-linecap="butt" stroke-miterlimit="10" stroke-linejoin="miter" fill="none" stroke="#000000" d="M 0 0 L 0 14.446 "/>
<path transform="matrix(.5703,0,0,-.5703,347.25428,19.48285)" stroke-width=".398" stroke-linecap="butt" stroke-miterlimit="10" stroke-linejoin="miter" fill="none" stroke="#000000" d="M 0 0 L 0 14.446 "/>
<path transform="matrix(.5703,0,0,-.5703,.08299255,19.596375)" stroke-width=".398" stroke-linecap="butt" stroke-miterlimit="10" stroke-linejoin="miter" fill="none" stroke="#000000" d="M 0 0 L 608.951 0 "/>
<path transform="matrix(.5703,0,0,-.5703,.19705963,27.948395)" stroke-width=".398" stroke-linecap="butt" stroke-miterlimit="10" stroke-linejoin="miter" fill="none" stroke="#000000" d="M 0 0 L 0 14.446 "/>
<text xml:space="preserve" transform="matrix(.5703 0 -0 .5703 -74.10333 466.11958)" font-size="11.9552" font-family="LMRoman12"><tspan y="-772.651" x="200.269 207.90837 211.16019 215.77489 222.27852 227.47904 235.93137 239.18318 247.9583 257.71376 263.5718 272.68168 278.53974 284.3978">Fisher[Amo+15]</tspan></text>
<path transform="matrix(.5703,0,0,-.5703,129.84905,27.948395)" stroke-width=".398" stroke-linecap="butt" stroke-miterlimit="10" stroke-linejoin="miter" fill="none" stroke="#000000" d="M 0 0 L 0 14.446 "/>
<path transform="matrix(.5703,0,0,-.5703,131.21265,27.948395)" stroke-width=".398" stroke-linecap="butt" stroke-miterlimit="10" stroke-linejoin="miter" fill="none" stroke="#000000" d="M 0 0 L 0 14.446 "/>
<text xml:space="preserve" transform="matrix(.5703 0 -0 .5703 -74.10333 466.11958)" font-size="11.9552" font-family="LMRoman12"><tspan y="-772.651" x="389.15 397.11216">EN</tspan></text>
<path transform="matrix(.5703,0,0,-.5703,173.99141,27.948395)" stroke-width=".398" stroke-linecap="butt" stroke-miterlimit="10" stroke-linejoin="miter" fill="none" stroke="#000000" d="M 0 0 L 0 14.446 "/>
<text xml:space="preserve" transform="matrix(.5703 0 -0 .5703 -74.10333 466.11958)" font-size="11.9552" font-family="LMRoman12"><tspan y="-772.651" x="455.915 461.77308 467.63114 473.4892">2000</tspan></text>
<path transform="matrix(.5703,0,0,-.5703,211.17041,27.948395)" stroke-width=".398" stroke-linecap="butt" stroke-miterlimit="10" stroke-linejoin="miter" fill="none" stroke="#000000" d="M 0 0 L 0 14.446 "/>
<text xml:space="preserve" transform="matrix(.5703 0 -0 .5703 -74.10333 466.11958)" font-size="11.9552" font-family="LMRoman12"><tspan y="-772.651" x="543.702 552.15438 558.0124 564.1932 570.0512 575.23977 579.7947 584.40939 590.2674 594.8223 598.07418 603.9322">Conversation</tspan></text>
<path transform="matrix(.5703,0,0,-.5703,298.8221,27.948395)" stroke-width=".398" stroke-linecap="butt" stroke-miterlimit="10" stroke-linejoin="miter" fill="none" stroke="#000000" d="M 0 0 L 0 14.446 "/>
<path transform="matrix(.5703,0,0,-.5703,321.66493,27.948395)" stroke-width=".398" stroke-linecap="butt" stroke-miterlimit="10" stroke-linejoin="miter" fill="none" stroke="#000000" d="M 0 0 L 0 14.446 "/>
<path transform="matrix(.5703,0,0,-.5703,347.25428,27.948395)" stroke-width=".398" stroke-linecap="butt" stroke-miterlimit="10" stroke-linejoin="miter" fill="none" stroke="#000000" d="M 0 0 L 0 14.446 "/>
<path transform="matrix(.5703,0,0,-.5703,.08299255,28.06189)" stroke-width=".398" stroke-linecap="butt" stroke-miterlimit="10" stroke-linejoin="miter" fill="none" stroke="#000000" d="M 0 0 L 608.951 0 "/>
<path transform="matrix(.5703,0,0,-.5703,.19705963,36.41452)" stroke-width=".398" stroke-linecap="butt" stroke-miterlimit="10" stroke-linejoin="miter" fill="none" stroke="#000000" d="M 0 0 L 0 14.446 "/>
<text xml:space="preserve" transform="matrix(.5703 0 -0 .5703 -74.10333 466.11958)" font-size="11.9552" font-family="LMRoman12"><tspan y="-750.583" x="145.272 155.99582 161.85387 167.05438 170.3062 173.55802 176.80983 186.56528 195.01761 200.87566 210.6311 220.38655 226.2446 236.65758 244.45236 250.31041 253.56223 258.76274 267.86064 271.11244 279.88755 287.03675 292.8948 298.75288 305.91404 316.63786 322.4959 327.6964 333.55448 339.41255">MozillaCommonVoice[AZ19;Moz21]</tspan></text>
<path transform="matrix(.5703,0,0,-.5703,129.84905,36.41452)" stroke-width=".398" stroke-linecap="butt" stroke-miterlimit="10" stroke-linejoin="miter" fill="none" stroke="#000000" d="M 0 0 L 0 14.446 "/>
<path transform="matrix(.5703,0,0,-.5703,131.21265,36.41452)" stroke-width=".398" stroke-linecap="butt" stroke-miterlimit="10" stroke-linejoin="miter" fill="none" stroke="#000000" d="M 0 0 L 0 14.446 "/>
<text xml:space="preserve" transform="matrix(.5703 0 -0 .5703 -74.10333 466.11958)" font-size="11.9552" font-family="LMRoman12"><tspan y="-757.806" x="389.15 397.11216">EN</tspan></text>
<path transform="matrix(.5703,0,0,-.5703,173.99141,36.41452)" stroke-width=".398" stroke-linecap="butt" stroke-miterlimit="10" stroke-linejoin="miter" fill="none" stroke="#000000" d="M 0 0 L 0 14.446 "/>
<text xml:space="preserve" transform="matrix(.5703 0 -0 .5703 -74.10333 466.11958)" font-size="11.9552" font-family="LMRoman12"><tspan y="-757.806" x="449.737 458.84687 464.70494 467.95674 473.8148 479.67286">&#x003e;1.600</tspan></text>
<path transform="matrix(.5703,0,0,-.5703,211.17041,36.41452)" stroke-width=".398" stroke-linecap="butt" stroke-miterlimit="10" stroke-linejoin="miter" fill="none" stroke="#000000" d="M 0 0 L 0 14.446 "/>
<text xml:space="preserve" transform="matrix(.5703 0 -0 .5703 -74.10333 466.11958)" font-size="11.9552" font-family="LMRoman12"><tspan y="-750.583" x="575.113">-</tspan></text>
<path transform="matrix(.5703,0,0,-.5703,298.8221,36.41452)" stroke-width=".398" stroke-linecap="butt" stroke-miterlimit="10" stroke-linejoin="miter" fill="none" stroke="#000000" d="M 0 0 L 0 14.446 "/>
<text xml:space="preserve" transform="matrix(.5703 0 -0 .5703 -74.10333 466.11958)" font-size="11.9552" font-family="LMRoman12"><tspan y="-750.583" x="669.386">+</tspan></text>
<path transform="matrix(.5703,0,0,-.5703,321.66493,36.41452)" stroke-width=".398" stroke-linecap="butt" stroke-miterlimit="10" stroke-linejoin="miter" fill="none" stroke="#000000" d="M 0 0 L 0 14.446 "/>
<text xml:space="preserve" transform="matrix(.5703 0 -0 .5703 -74.10333 466.11958)" font-size="11.9552" font-family="LMRoman12"><tspan y="-757.806" x="700.142 706.00009 711.8581 715.1099 720.96798 726.826">66.173</tspan></text>
<path transform="matrix(.5703,0,0,-.5703,347.25428,36.41452)" stroke-width=".398" stroke-linecap="butt" stroke-miterlimit="10" stroke-linejoin="miter" fill="none" stroke="#000000" d="M 0 0 L 0 14.446 "/>
<path transform="matrix(.5703,0,0,-.5703,131.32614,36.527986)" stroke-width=".398" stroke-linecap="butt" stroke-miterlimit="10" stroke-linejoin="miter" fill="none" stroke="#000000" d="M 0 0 L 140.203 0 "/>
<path transform="matrix(.5703,0,0,-.5703,321.77839,36.527986)" stroke-width=".398" stroke-linecap="butt" stroke-miterlimit="10" stroke-linejoin="miter" fill="none" stroke="#000000" d="M 0 0 L 44.871 0 "/>
<path transform="matrix(.5703,0,0,-.5703,.19705963,44.652498)" stroke-width=".398" stroke-linecap="butt" stroke-miterlimit="10" stroke-linejoin="miter" fill="none" stroke="#000000" d="M 0 0 L 0 14.446 "/>
<path transform="matrix(.5703,0,0,-.5703,129.84905,44.652498)" stroke-width=".398" stroke-linecap="butt" stroke-miterlimit="10" stroke-linejoin="miter" fill="none" stroke="#000000" d="M 0 0 L 0 14.446 "/>
<path transform="matrix(.5703,0,0,-.5703,131.21265,44.652498)" stroke-width=".398" stroke-linecap="butt" stroke-miterlimit="10" stroke-linejoin="miter" fill="none" stroke="#000000" d="M 0 0 L 0 14.446 "/>
<text xml:space="preserve" transform="matrix(.5703 0 -0 .5703 -74.10333 466.11958)" font-size="11.9552" font-family="LMRoman12"><tspan y="-743.36" x="384.459 393.4015">DE</tspan></text>
<text xml:space="preserve" transform="matrix(.5703 0 -0 .5703 -74.10333 466.11958)" font-size="11.9552" font-family="LMMathSymbols10" font-style="italic"><tspan y="-743.36" x="405.26704">&#x2020;</tspan></text>
<path transform="matrix(.5703,0,0,-.5703,173.99141,44.652498)" stroke-width=".398" stroke-linecap="butt" stroke-miterlimit="10" stroke-linejoin="miter" fill="none" stroke="#000000" d="M 0 0 L 0 14.446 "/>
<text xml:space="preserve" transform="matrix(.5703 0 -0 .5703 -74.10333 466.11958)" font-size="11.9552" font-family="LMRoman12"><tspan y="-743.36" x="454.289 463.39888 469.25694 475.115">&#x003e;777</tspan></text>
<path transform="matrix(.5703,0,0,-.5703,211.17041,44.652498)" stroke-width=".398" stroke-linecap="butt" stroke-miterlimit="10" stroke-linejoin="miter" fill="none" stroke="#000000" d="M 0 0 L 0 14.446 "/>
<path transform="matrix(.5703,0,0,-.5703,298.8221,44.652498)" stroke-width=".398" stroke-linecap="butt" stroke-miterlimit="10" stroke-linejoin="miter" fill="none" stroke="#000000" d="M 0 0 L 0 14.446 "/>
<path transform="matrix(.5703,0,0,-.5703,321.66493,44.652498)" stroke-width=".398" stroke-linecap="butt" stroke-miterlimit="10" stroke-linejoin="miter" fill="none" stroke="#000000" d="M 0 0 L 0 14.446 "/>
<text xml:space="preserve" transform="matrix(.5703 0 -0 .5703 -74.10333 466.11958)" font-size="11.9552" font-family="LMRoman12"><tspan y="-743.36" x="700.142 706.00009 711.8581 715.1099 720.96798 726.826">12.659</tspan></text>
<path transform="matrix(.5703,0,0,-.5703,347.25428,44.652498)" stroke-width=".398" stroke-linecap="butt" stroke-miterlimit="10" stroke-linejoin="miter" fill="none" stroke="#000000" d="M 0 0 L 0 14.446 "/>
<path transform="matrix(.5703,0,0,-.5703,.08299255,44.76654)" stroke-width=".398" stroke-linecap="butt" stroke-miterlimit="10" stroke-linejoin="miter" fill="none" stroke="#000000" d="M 0 0 L 608.951 0 "/>
<path transform="matrix(.5703,0,0,-.5703,.19705963,53.11859)" stroke-width=".398" stroke-linecap="butt" stroke-miterlimit="10" stroke-linejoin="miter" fill="none" stroke="#000000" d="M 0 0 L 0 14.446 "/>
<text xml:space="preserve" transform="matrix(.5703 0 -0 .5703 -74.10333 466.11958)" font-size="11.9552" font-family="LMRoman12"><tspan y="-728.516" x="184.449 190.95264 199.40497 202.65679 207.21172 212.08945 218.25833 225.09671 230.95476 236.8128 241.36774 251.76877 255.02059 263.79573 273.55116 279.4092 288.51908 294.37715 300.2352">Switchboard[Amo+15]</tspan></text>
<path transform="matrix(.5703,0,0,-.5703,129.84905,53.11859)" stroke-width=".398" stroke-linecap="butt" stroke-miterlimit="10" stroke-linejoin="miter" fill="none" stroke="#000000" d="M 0 0 L 0 14.446 "/>
<path transform="matrix(.5703,0,0,-.5703,131.21265,53.11859)" stroke-width=".398" stroke-linecap="butt" stroke-miterlimit="10" stroke-linejoin="miter" fill="none" stroke="#000000" d="M 0 0 L 0 14.446 "/>
<text xml:space="preserve" transform="matrix(.5703 0 -0 .5703 -74.10333 466.11958)" font-size="11.9552" font-family="LMRoman12"><tspan y="-728.516" x="389.15 397.11216">EN</tspan></text>
<path transform="matrix(.5703,0,0,-.5703,173.99141,53.11859)" stroke-width=".398" stroke-linecap="butt" stroke-miterlimit="10" stroke-linejoin="miter" fill="none" stroke="#000000" d="M 0 0 L 0 14.446 "/>
<text xml:space="preserve" transform="matrix(.5703 0 -0 .5703 -74.10333 466.11958)" font-size="11.9552" font-family="LMRoman12"><tspan y="-728.516" x="458.842 464.70008 470.55815">300</tspan></text>
<path transform="matrix(.5703,0,0,-.5703,211.17041,53.11859)" stroke-width=".398" stroke-linecap="butt" stroke-miterlimit="10" stroke-linejoin="miter" fill="none" stroke="#000000" d="M 0 0 L 0 14.446 "/>
<text xml:space="preserve" transform="matrix(.5703 0 -0 .5703 -74.10333 466.11958)" font-size="11.9552" font-family="LMRoman12"><tspan y="-728.516" x="543.702 552.15438 558.0124 564.1932 570.0512 575.23977 579.7947 584.40939 590.2674 594.8223 598.07418 603.9322">Conversation</tspan></text>
<path transform="matrix(.5703,0,0,-.5703,298.8221,53.11859)" stroke-width=".398" stroke-linecap="butt" stroke-miterlimit="10" stroke-linejoin="miter" fill="none" stroke="#000000" d="M 0 0 L 0 14.446 "/>
<path transform="matrix(.5703,0,0,-.5703,321.66493,53.11859)" stroke-width=".398" stroke-linecap="butt" stroke-miterlimit="10" stroke-linejoin="miter" fill="none" stroke="#000000" d="M 0 0 L 0 14.446 "/>
<path transform="matrix(.5703,0,0,-.5703,347.25428,53.11859)" stroke-width=".398" stroke-linecap="butt" stroke-miterlimit="10" stroke-linejoin="miter" fill="none" stroke="#000000" d="M 0 0 L 0 14.446 "/>
<path transform="matrix(.5703,0,0,-.5703,.08299255,53.232088)" stroke-width=".398" stroke-linecap="butt" stroke-miterlimit="10" stroke-linejoin="miter" fill="none" stroke="#000000" d="M 0 0 L 608.951 0 "/>
<path transform="matrix(.5703,0,0,-.5703,.19705963,61.584108)" stroke-width=".398" stroke-linecap="butt" stroke-miterlimit="10" stroke-linejoin="miter" fill="none" stroke="#000000" d="M 0 0 L 0 14.446 "/>
<text xml:space="preserve" transform="matrix(.5703 0 -0 .5703 -74.10333 466.11958)" font-size="11.9552" font-family="LMRoman12"><tspan y="-713.672" x="142.467 153.5136 159.37165 162.62346 169.78462 176.28826 180.84319 185.39812 190.59864 195.79915 204.25148 210.26496 216.123 222.62664 227.18157 233.6852 239.54325 246.69246 256.45988 261.0148 273.04176 279.54539 285.55885 291.4169 299.86924 303.12104 312.3026 318.16069 321.41249 330.52235 336.3804 342.23847">WallStreetJournal1(WSJ1)[Gai+14]</tspan></text>
<path transform="matrix(.5703,0,0,-.5703,129.84905,61.584108)" stroke-width=".398" stroke-linecap="butt" stroke-miterlimit="10" stroke-linejoin="miter" fill="none" stroke="#000000" d="M 0 0 L 0 14.446 "/>
<path transform="matrix(.5703,0,0,-.5703,131.21265,61.584108)" stroke-width=".398" stroke-linecap="butt" stroke-miterlimit="10" stroke-linejoin="miter" fill="none" stroke="#000000" d="M 0 0 L 0 14.446 "/>
<text xml:space="preserve" transform="matrix(.5703 0 -0 .5703 -74.10333 466.11958)" font-size="11.9552" font-family="LMRoman12"><tspan y="-713.672" x="389.15 397.11216">EN</tspan></text>
<path transform="matrix(.5703,0,0,-.5703,173.99141,61.584108)" stroke-width=".398" stroke-linecap="butt" stroke-miterlimit="10" stroke-linejoin="miter" fill="none" stroke="#000000" d="M 0 0 L 0 14.446 "/>
<text xml:space="preserve" transform="matrix(.5703 0 -0 .5703 -74.10333 466.11958)" font-size="11.9552" font-family="LMRoman12"><tspan y="-713.672" x="454.289 460.14707 466.00514 471.8632 475.115">202,8</tspan></text>
<path transform="matrix(.5703,0,0,-.5703,211.17041,61.584108)" stroke-width=".398" stroke-linecap="butt" stroke-miterlimit="10" stroke-linejoin="miter" fill="none" stroke="#000000" d="M 0 0 L 0 14.446 "/>
<text xml:space="preserve" transform="matrix(.5703 0 -0 .5703 -74.10333 466.11958)" font-size="11.9552" font-family="LMRoman12"><tspan y="-713.672" x="527.61 536.2297 541.4302 547.2882 553.7918 557.04367 563.54727 573.3027 585.3296 591.8332 601.75607 608.25967 613.46017 621.9125">ReadingWSJnews</tspan></text>
<path transform="matrix(.5703,0,0,-.5703,298.8221,61.584108)" stroke-width=".398" stroke-linecap="butt" stroke-miterlimit="10" stroke-linejoin="miter" fill="none" stroke="#000000" d="M 0 0 L 0 14.446 "/>
<path transform="matrix(.5703,0,0,-.5703,321.66493,61.584108)" stroke-width=".398" stroke-linecap="butt" stroke-miterlimit="10" stroke-linejoin="miter" fill="none" stroke="#000000" d="M 0 0 L 0 14.446 "/>
<path transform="matrix(.5703,0,0,-.5703,347.25428,61.584108)" stroke-width=".398" stroke-linecap="butt" stroke-miterlimit="10" stroke-linejoin="miter" fill="none" stroke="#000000" d="M 0 0 L 0 14.446 "/>
<path transform="matrix(.5703,0,0,-.5703,.08299255,61.69763)" stroke-width=".398" stroke-linecap="butt" stroke-miterlimit="10" stroke-linejoin="miter" fill="none" stroke="#000000" d="M 0 0 L 608.951 0 "/>
<path transform="matrix(.5703,0,0,-.5703,.19705963,70.04965)" stroke-width=".398" stroke-linecap="butt" stroke-miterlimit="10" stroke-linejoin="miter" fill="none" stroke="#000000" d="M 0 0 L 0 14.446 "/>
<text xml:space="preserve" transform="matrix(.5703 0 -0 .5703 -74.10333 466.11958)" font-size="11.9552" font-family="LMRoman12"><tspan y="-698.828" x="197.008 204.48 210.98363 217.48726 223.3453 227.2427 236.1852 245.29506 248.54688 257.72846 263.58653 266.83833 275.94819 281.80625 287.6643">Tuda-De[Gai+14]</tspan></text>
<path transform="matrix(.5703,0,0,-.5703,129.84905,70.04965)" stroke-width=".398" stroke-linecap="butt" stroke-miterlimit="10" stroke-linejoin="miter" fill="none" stroke="#000000" d="M 0 0 L 0 14.446 "/>
<path transform="matrix(.5703,0,0,-.5703,131.21265,70.04965)" stroke-width=".398" stroke-linecap="butt" stroke-miterlimit="10" stroke-linejoin="miter" fill="none" stroke="#000000" d="M 0 0 L 0 14.446 "/>
<text xml:space="preserve" transform="matrix(.5703 0 -0 .5703 -74.10333 466.11958)" font-size="11.9552" font-family="LMRoman12"><tspan y="-698.828" x="389.067 398.00947">DE</tspan></text>
<path transform="matrix(.5703,0,0,-.5703,173.99141,70.04965)" stroke-width=".398" stroke-linecap="butt" stroke-miterlimit="10" stroke-linejoin="miter" fill="none" stroke="#000000" d="M 0 0 L 0 14.446 "/>
<text xml:space="preserve" transform="matrix(.5703 0 -0 .5703 -74.10333 466.11958)" font-size="11.9552" font-family="LMRoman12"><tspan y="-698.828" x="458.842 464.70008 470.55815">127</tspan></text>
<path transform="matrix(.5703,0,0,-.5703,211.17041,70.04965)" stroke-width=".398" stroke-linecap="butt" stroke-miterlimit="10" stroke-linejoin="miter" fill="none" stroke="#000000" d="M 0 0 L 0 14.446 "/>
<text xml:space="preserve" transform="matrix(.5703 0 -0 .5703 -74.10333 466.11958)" font-size="11.9552" font-family="LMRoman12"><tspan y="-698.828" x="548.907 553.52169 560.6709 568.47769 574.0129 580.1937 583.7683 589.62637 594.1813 600.0393">s.Voxforge</tspan></text>
<path transform="matrix(.5703,0,0,-.5703,298.8221,70.04965)" stroke-width=".398" stroke-linecap="butt" stroke-miterlimit="10" stroke-linejoin="miter" fill="none" stroke="#000000" d="M 0 0 L 0 14.446 "/>
<text xml:space="preserve" transform="matrix(.5703 0 -0 .5703 -74.10333 466.11958)" font-size="11.9552" font-family="LMRoman12"><tspan y="-698.828" x="671.987">-</tspan></text>
<path transform="matrix(.5703,0,0,-.5703,321.66493,70.04965)" stroke-width=".398" stroke-linecap="butt" stroke-miterlimit="10" stroke-linejoin="miter" fill="none" stroke="#000000" d="M 0 0 L 0 14.446 "/>
<text xml:space="preserve" transform="matrix(.5703 0 -0 .5703 -74.10333 466.11958)" font-size="11.9552" font-family="LMRoman12"><tspan y="-698.828" x="707.621 713.479 719.33706">147</tspan></text>
<path transform="matrix(.5703,0,0,-.5703,347.25428,70.04965)" stroke-width=".398" stroke-linecap="butt" stroke-miterlimit="10" stroke-linejoin="miter" fill="none" stroke="#000000" d="M 0 0 L 0 14.446 "/>
<path transform="matrix(.5703,0,0,-.5703,.08299255,70.1637)" stroke-width=".398" stroke-linecap="butt" stroke-miterlimit="10" stroke-linejoin="miter" fill="none" stroke="#000000" d="M 0 0 L 608.951 0 "/>
<path transform="matrix(.5703,0,0,-.5703,.19705963,103.230838)" stroke-width=".398" stroke-linecap="butt" stroke-miterlimit="10" stroke-linejoin="miter" fill="none" stroke="#000000" d="M 0 0 L 0 57.783 "/>
<text xml:space="preserve" transform="matrix(.5703 0 -0 .5703 -74.10333 466.11958)" font-size="11.9552" font-family="LMRoman12"><tspan y="-662.215" x="196.808 204.60279 210.13805 216.31888 219.89348 225.75153 230.30646 236.1645 241.36502 247.22307 256.97853 260.23033 269.00544 276.15464 282.0127 287.87077">Voxforge10[AZ19]</tspan></text>
<path transform="matrix(.5703,0,0,-.5703,129.84905,103.230838)" stroke-width=".398" stroke-linecap="butt" stroke-miterlimit="10" stroke-linejoin="miter" fill="none" stroke="#000000" d="M 0 0 L 0 57.783 "/>
<path transform="matrix(.5703,0,0,-.5703,131.21265,103.230838)" stroke-width=".398" stroke-linecap="butt" stroke-miterlimit="10" stroke-linejoin="miter" fill="none" stroke="#000000" d="M 0 0 L 0 57.783 "/>
<text xml:space="preserve" transform="matrix(.5703 0 -0 .5703 -74.10333 466.11958)" font-size="11.9552" font-family="LMRoman12"><tspan y="-662.215" x="389.067 398.00947">DE</tspan></text>
<path transform="matrix(.5703,0,0,-.5703,173.99141,103.230838)" stroke-width=".398" stroke-linecap="butt" stroke-miterlimit="10" stroke-linejoin="miter" fill="none" stroke="#000000" d="M 0 0 L 0 57.783 "/>
<text xml:space="preserve" transform="matrix(.5703 0 -0 .5703 -74.10333 466.11958)" font-size="11.9552" font-family="LMRoman12"><tspan y="-662.215" x="461.768 467.62608">35</tspan></text>
<path transform="matrix(.5703,0,0,-.5703,211.17041,103.230838)" stroke-width=".398" stroke-linecap="butt" stroke-miterlimit="10" stroke-linejoin="miter" fill="none" stroke="#000000" d="M 0 0 L 0 57.783 "/>
<text xml:space="preserve" transform="matrix(.5703 0 -0 .5703 -74.10333 466.11958)" font-size="11.9552" font-family="LMRoman12"><tspan y="-683.983" x="516.193 528.2199 531.47177 537.6526 540.9044 547.73086 552.93136 559.43496 562.68679 568.5448">Wikipedia,</tspan><tspan y="-669.537" x="516.193 522.6966 528.5546 533.10958 536.3614 539.6132 545.47128 555.2267 560.4272 566.608 571.1629 577.02096 581.57589 591.6541 596.2688 603.0952 608.2957 613.4962 618.3739 624.8775 630.078 634.6927">parliamentaryspeeches,</tspan><tspan y="-655.092" x="516.193 520.8077 524.0595 533.81497 540.31857 543.5704 552.6683 557.8688 563.7268 573.48226 583.2377 589.0957 595.5993 606.01229 611.8703 618.3739">simplecommandand</tspan><tspan y="-640.646" x="516.193 521.3935 527.2515 533.4323 537.98727 542.5422 548.4002 555.54946 562.05307 566.608 572.466 582.22146 588.72506 593.27999 597.89468">controlprompts.</tspan></text>
<path transform="matrix(.5703,0,0,-.5703,298.8221,103.230838)" stroke-width=".398" stroke-linecap="butt" stroke-miterlimit="10" stroke-linejoin="miter" fill="none" stroke="#000000" d="M 0 0 L 0 57.783 "/>
<text xml:space="preserve" transform="matrix(.5703 0 -0 .5703 -74.10333 466.11958)" font-size="11.9552" font-family="LMRoman12"><tspan y="-662.215" x="669.386">+</tspan></text>
<path transform="matrix(.5703,0,0,-.5703,321.66493,103.230838)" stroke-width=".398" stroke-linecap="butt" stroke-miterlimit="10" stroke-linejoin="miter" fill="none" stroke="#000000" d="M 0 0 L 0 57.783 "/>
<text xml:space="preserve" transform="matrix(.5703 0 -0 .5703 -74.10333 466.11958)" font-size="11.9552" font-family="LMRoman12"><tspan y="-662.215" x="707.621 713.479 719.33706">180</tspan></text>
<path transform="matrix(.5703,0,0,-.5703,347.25428,103.230838)" stroke-width=".398" stroke-linecap="butt" stroke-miterlimit="10" stroke-linejoin="miter" fill="none" stroke="#000000" d="M 0 0 L 0 57.783 "/>
<path transform="matrix(.5703,0,0,-.5703,.08299255,103.34436)" stroke-width=".398" stroke-linecap="butt" stroke-miterlimit="10" stroke-linejoin="miter" fill="none" stroke="#000000" d="M 0 0 L 608.951 0 "/>
<path transform="matrix(.5703,0,0,-.5703,.19705963,111.69638)" stroke-width=".398" stroke-linecap="butt" stroke-miterlimit="10" stroke-linejoin="miter" fill="none" stroke="#000000" d="M 0 0 L 0 14.446 "/>
<text xml:space="preserve" transform="matrix(.5703 0 -0 .5703 -74.10333 466.11958)" font-size="11.9552" font-family="LMRoman12"><tspan y="-625.801" x="168.805 176.59978 181.8003 186.35523 192.85886 202.6143 208.47235 214.97599 218.2278 225.38896 235.14441 239.69934 248.47446 259.19828 265.05635 273.50868 276.76048 285.94206 291.8001 295.0519 304.16178 310.01985 315.8779">Verbmobil1(VM1)[Gai+14]</tspan></text>
<path transform="matrix(.5703,0,0,-.5703,129.84905,111.69638)" stroke-width=".398" stroke-linecap="butt" stroke-miterlimit="10" stroke-linejoin="miter" fill="none" stroke="#000000" d="M 0 0 L 0 14.446 "/>
<path transform="matrix(.5703,0,0,-.5703,131.21265,111.69638)" stroke-width=".398" stroke-linecap="butt" stroke-miterlimit="10" stroke-linejoin="miter" fill="none" stroke="#000000" d="M 0 0 L 0 14.446 "/>
<text xml:space="preserve" transform="matrix(.5703 0 -0 .5703 -74.10333 466.11958)" font-size="11.9552" font-family="LMRoman12"><tspan y="-625.801" x="384.459 393.4015">DE</tspan></text>
<text xml:space="preserve" transform="matrix(.5703 0 -0 .5703 -74.10333 466.11958)" font-size="11.9552" font-family="LMMathSymbols10" font-style="italic"><tspan y="-625.801" x="405.26704">&#x2020;</tspan></text>
<path transform="matrix(.5703,0,0,-.5703,173.99141,111.69638)" stroke-width=".398" stroke-linecap="butt" stroke-miterlimit="10" stroke-linejoin="miter" fill="none" stroke="#000000" d="M 0 0 L 0 14.446 "/>
<text xml:space="preserve" transform="matrix(.5703 0 -0 .5703 -74.10333 466.11958)" font-size="11.9552" font-family="LMRoman12"><tspan y="-625.801" x="457.216 463.07408 468.93214 472.18394">33,6</tspan></text>
<path transform="matrix(.5703,0,0,-.5703,211.17041,111.69638)" stroke-width=".398" stroke-linecap="butt" stroke-miterlimit="10" stroke-linejoin="miter" fill="none" stroke="#000000" d="M 0 0 L 0 14.446 "/>
<text xml:space="preserve" transform="matrix(.5703 0 -0 .5703 -74.10333 466.11958)" font-size="11.9552" font-family="LMRoman12"><tspan y="-625.801" x="514.763 523.53817 530.04177 536.86819 542.7262 545.978 552.1588 556.71377 566.4692 571.6697 577.85049 586.3028 590.9175 595.79519 602.29879 607.49929 614.00289 620.5065 623.7583 627.01016 633.51376">Appointmentscheduling</tspan></text>
<path transform="matrix(.5703,0,0,-.5703,298.8221,111.69638)" stroke-width=".398" stroke-linecap="butt" stroke-miterlimit="10" stroke-linejoin="miter" fill="none" stroke="#000000" d="M 0 0 L 0 14.446 "/>
<text xml:space="preserve" transform="matrix(.5703 0 -0 .5703 -74.10333 466.11958)" font-size="11.9552" font-family="LMRoman12"><tspan y="-625.801" x="669.386">+</tspan></text>
<path transform="matrix(.5703,0,0,-.5703,321.66493,111.69638)" stroke-width=".398" stroke-linecap="butt" stroke-miterlimit="10" stroke-linejoin="miter" fill="none" stroke="#000000" d="M 0 0 L 0 14.446 "/>
<path transform="matrix(.5703,0,0,-.5703,347.25428,111.69638)" stroke-width=".398" stroke-linecap="butt" stroke-miterlimit="10" stroke-linejoin="miter" fill="none" stroke="#000000" d="M 0 0 L 0 14.446 "/>
<path transform="matrix(.5703,0,0,-.5703,.08299255,111.810428)" stroke-width=".398" stroke-linecap="butt" stroke-miterlimit="10" stroke-linejoin="miter" fill="none" stroke="#000000" d="M 0 0 L 608.951 0 "/>
<path transform="matrix(.5703,0,0,-.5703,.19705963,120.162479)" stroke-width=".398" stroke-linecap="butt" stroke-miterlimit="10" stroke-linejoin="miter" fill="none" stroke="#000000" d="M 0 0 L 0 14.446 "/>
<text xml:space="preserve" transform="matrix(.5703 0 -0 .5703 -74.10333 466.11958)" font-size="11.9552" font-family="LMRoman12"><tspan y="-610.957" x="136.46 142.96364 149.79006 155.6481 161.50615 166.70667 177.1077 189.13463 192.38645 198.56728 201.81909 208.64551 213.84603 220.34966 223.60147 233.36887 241.8212 247.67925 252.23418 258.7378 265.24143 273.75355 278.30848 284.8121 296.51628 304.9686 313.42094 316.67274 327.39656 336.49446 342.3525 348.21058">SpokenWikipediaCorpus(SWC)[MK18]</tspan></text>
<path transform="matrix(.5703,0,0,-.5703,129.84905,120.162479)" stroke-width=".398" stroke-linecap="butt" stroke-miterlimit="10" stroke-linejoin="miter" fill="none" stroke="#000000" d="M 0 0 L 0 14.446 "/>
<path transform="matrix(.5703,0,0,-.5703,131.21265,120.162479)" stroke-width=".398" stroke-linecap="butt" stroke-miterlimit="10" stroke-linejoin="miter" fill="none" stroke="#000000" d="M 0 0 L 0 14.446 "/>
<text xml:space="preserve" transform="matrix(.5703 0 -0 .5703 -74.10333 466.11958)" font-size="11.9552" font-family="LMRoman12"><tspan y="-610.957" x="384.459 393.4015">DE</tspan></text>
<text xml:space="preserve" transform="matrix(.5703 0 -0 .5703 -74.10333 466.11958)" font-size="11.9552" font-family="LMMathSymbols10" font-style="italic"><tspan y="-610.957" x="405.26704">&#x2020;</tspan></text>
<path transform="matrix(.5703,0,0,-.5703,173.99141,120.162479)" stroke-width=".398" stroke-linecap="butt" stroke-miterlimit="10" stroke-linejoin="miter" fill="none" stroke="#000000" d="M 0 0 L 0 14.446 "/>
<text xml:space="preserve" transform="matrix(.5703 0 -0 .5703 -74.10333 466.11958)" font-size="11.9552" font-family="LMRoman12"><tspan y="-610.957" x="458.842 464.70008 470.55815">349</tspan></text>
<path transform="matrix(.5703,0,0,-.5703,211.17041,120.162479)" stroke-width=".398" stroke-linecap="butt" stroke-miterlimit="10" stroke-linejoin="miter" fill="none" stroke="#000000" d="M 0 0 L 0 14.446 "/>
<text xml:space="preserve" transform="matrix(.5703 0 -0 .5703 -74.10333 466.11958)" font-size="11.9552" font-family="LMRoman12"><tspan y="-610.957" x="506.394 515.01376 520.21426 526.07229 532.57589 535.8277 542.3313 552.08676 564.11367 567.3655 573.5463 576.79818 583.6246 588.8251 595.3287 598.5805 604.43856 608.33596 617.1111 621.666 626.22097 629.4728 634.6733 637.9251 643.1256">ReadingWikipedia-Articles</tspan></text>
<path transform="matrix(.5703,0,0,-.5703,298.8221,120.162479)" stroke-width=".398" stroke-linecap="butt" stroke-miterlimit="10" stroke-linejoin="miter" fill="none" stroke="#000000" d="M 0 0 L 0 14.446 "/>
<path transform="matrix(.5703,0,0,-.5703,321.66493,120.162479)" stroke-width=".398" stroke-linecap="butt" stroke-miterlimit="10" stroke-linejoin="miter" fill="none" stroke="#000000" d="M 0 0 L 0 14.446 "/>
<text xml:space="preserve" transform="matrix(.5703 0 -0 .5703 -74.10333 466.11958)" font-size="11.9552" font-family="LMRoman12"><tspan y="-610.957" x="707.621 713.479 719.33706">363</tspan></text>
<path transform="matrix(.5703,0,0,-.5703,347.25428,120.162479)" stroke-width=".398" stroke-linecap="butt" stroke-miterlimit="10" stroke-linejoin="miter" fill="none" stroke="#000000" d="M 0 0 L 0 14.446 "/>
<path transform="matrix(.5703,0,0,-.5703,.08299255,120.27597)" stroke-width=".398" stroke-linecap="butt" stroke-miterlimit="10" stroke-linejoin="miter" fill="none" stroke="#000000" d="M 0 0 L 608.951 0 "/>
<path transform="matrix(.5703,0,0,-.5703,.08299255,121.8306)" stroke-width=".936" stroke-linecap="butt" stroke-miterlimit="10" stroke-linejoin="miter" fill="none" stroke="#000000" d="M 0 0 L 608.951 0 "/>
<text xml:space="preserve" transform="matrix(.68547 0 -0 .68547 -89.085628 568.73)" font-size="11.9552" font-family="LMMathSymbols10" font-style="italic"><tspan y="-640.006" x="136.059">&#x2020;</tspan></text>
<text xml:space="preserve" transform="matrix(.68547 0 -0 .68547 -89.085628 568.73)" font-size="11.9552" font-family="LMRoman12"><tspan y="-640.006" x="141.37201 148.52123 157.46372 163.32176 167.8767 173.73474 178.34944 183.54996 192.01424 195.26605 203.77816 209.31342 214.84867 220.69477 223.94658 227.1984 233.05644 239.56008 242.81189 251.92176 255.17357 265.5746 271.43266 277.93629 284.4399 287.6917 292.24665 295.49845 301.3565 307.86015 313.7182 320.8674 324.1192 329.97727 336.4809 342.33897 348.8426 354.70066 360.55873 365.75923 374.2833 378.83824 382.09004 388.59367 393.79417 397.04597 403.5496 410.05323 413.30503 419.80867 429.56413 437.52629 446.3014 450.85633">:Datasetisavailableinadditionallanguages(includingEN).</tspan></text>
<text xml:space="preserve" transform="matrix(.68547 0 -0 .68547 -89.085628 568.73)" font-size="11.9552" font-family="LMRoman12" font-style="italic"><tspan y="-640.006" x="466.004 479.75248">#S</tspan></text>
<text xml:space="preserve" transform="matrix(.68547 0 -0 .68547 -89.085628 568.73)" font-size="11.9552" font-family="LMRoman12"><tspan y="-640.006" x="487.538 494.6872 503.4623 509.96595 519.39859 526.225 531.4255 539.8898 545.7478 553.2198 559.7234 566.227 569.4788 575.65969 582.16329 591.26119 595.87588 602.7142 607.9147 613.7727 619.61886 624.81936 629.37429">:Numberofuniquespeakers</tspan></text>
</g>
</g>
</svg>
