<?xml version="1.0" encoding="UTF-8" standalone="no"?>
<!DOCTYPE svg PUBLIC "-//W3C//DTD SVG 1.1//EN" "http://www.w3.org/Graphics/SVG/1.1/DTD/svg11.dtd">
<svg xmlns="http://www.w3.org/2000/svg" xmlns:xlink="http://www.w3.org/1999/xlink" version="1.1" width="437pt" height="139pt" viewBox="0 0 437 139" style='background-color: white;'>
<g enable-background="new">
<clipPath id="cp0">
<path transform="matrix(1,0,0,-1,-92,769)" d="M 0 0 L 595.276 0 L 595.276 841.89 L 0 841.89 Z "/>
</clipPath>
<g clip-path="url(#cp0)">
<text xml:space="preserve" transform="matrix(.88037 0 -0 .88037 -80.948947 677.9736)" font-size="11.9552" font-family="LMRoman12"><tspan y="-760.999" x="98.355 106.80733 112.665378 122.42082 128.92446 134.7825 139.33744 142.58925 147.20395 153.062 163.46303 169.32108 176.80503 185.98662 191.18714 195.74207 205.49752 211.35556 221.75659 230.69908 235.8996 241.10012 247.60375 254.10738 260.93379 266.13429 271.33479 276.2125 286.61354 296.36897 302.5498 309.05345 314.25395 317.50575">ComparisonofGermanDeepSpeechmodels</tspan></text>
<path transform="matrix(.63023,0,0,-.63023,.3769989,13.119598)" stroke-width=".936" stroke-linecap="butt" stroke-miterlimit="10" stroke-linejoin="miter" fill="none" stroke="#000000" d="M 0 0 L 325.366 0 "/>
<path transform="matrix(.63023,0,0,-.63023,.5030449,24.626973)" stroke-width=".398" stroke-linecap="butt" stroke-miterlimit="10" stroke-linejoin="miter" fill="none" stroke="#000000" d="M 0 0 L 0 14.446 "/>
<text xml:space="preserve" transform="matrix(.63023 0 -0 .63023 -57.84176 513.3647)" font-size="11.9552" font-family="LMRoman12"><tspan y="-779.825" x="98.753 107.372699 112.57321 117.18792 122.388439 128.24649 132.80142 137.67916 144.18279 149.3833">Researcher</tspan></text>
<path transform="matrix(.63023,0,0,-.63023,43.06311,24.626954)" stroke-width=".398" stroke-linecap="butt" stroke-miterlimit="10" stroke-linejoin="miter" fill="none" stroke="#000000" d="M 0 0 L 0 14.446 "/>
<text xml:space="preserve" transform="matrix(.63023 0 -0 .63023 -57.84176 513.3647)" font-size="11.9552" font-family="LMRoman12"><tspan y="-779.825" x="166.285 173.757 178.31194 184.16999 187.4218 193.92543 197.17725 203.68088 209.53893 213.43633 222.37882 228.23686 232.7918 238.64984 243.26454 248.46506">Training-Dataset</tspan></text>
<path transform="matrix(.63023,0,0,-.63023,105.50315,24.626954)" stroke-width=".398" stroke-linecap="butt" stroke-miterlimit="10" stroke-linejoin="miter" fill="none" stroke="#000000" d="M 0 0 L 0 14.446 "/>
<text xml:space="preserve" transform="matrix(.63023 0 -0 .63023 -57.84176 513.3647)" font-size="11.9552" font-family="LMRoman12"><tspan y="-779.825" x="265.36 274.3025 280.80613 285.36106 291.21913 295.77406 299.02586 304.8839">Duration</tspan></text>
<path transform="matrix(.63023,0,0,-.63023,142.28525,24.626954)" stroke-width=".398" stroke-linecap="butt" stroke-miterlimit="10" stroke-linejoin="miter" fill="none" stroke="#000000" d="M 0 0 L 0 14.446 "/>
<text xml:space="preserve" transform="matrix(.63023 0 -0 .63023 -57.84176 513.3647)" font-size="11.9552" font-family="LMRoman12"><tspan y="-779.825" x="323.723 332.4981 338.35618 341.60798 346.2227">Noise</tspan></text>
<path transform="matrix(.63023,0,0,-.63023,167.5285,24.626954)" stroke-width=".398" stroke-linecap="butt" stroke-miterlimit="10" stroke-linejoin="miter" fill="none" stroke="#000000" d="M 0 0 L 0 14.446 "/>
<text xml:space="preserve" transform="matrix(.63023 0 -0 .63023 -57.84176 513.3647)" font-size="11.9552" font-family="LMRoman12"><tspan y="-779.825" x="363.777 375.80397 383.7661">WER</tspan></text>
<text xml:space="preserve" transform="matrix(.63023 0 -0 .63023 -57.84176 513.3647)" font-size="11.9552" font-family="LMRoman12"><tspan y="-779.825" x="396.285">(</tspan></text>
<text xml:space="preserve" transform="matrix(.63023 0 -0 .63023 -57.84176 513.3647)" font-size="11.9552" font-family="LMMathSymbols10" font-style="italic"><tspan y="-779.825" x="400.837">&#x2193;</tspan></text>
<text xml:space="preserve" transform="matrix(.63023 0 -0 .63023 -57.84176 513.3647)" font-size="11.9552" font-family="LMRoman12"><tspan y="-779.825" x="406.815">)</tspan></text>
<path transform="matrix(.63023,0,0,-.63023,205.307,24.626954)" stroke-width=".398" stroke-linecap="butt" stroke-miterlimit="10" stroke-linejoin="miter" fill="none" stroke="#000000" d="M 0 0 L 0 14.446 "/>
<path transform="matrix(.63023,0,0,-.63023,.3769989,24.75241)" stroke-width=".398" stroke-linecap="butt" stroke-miterlimit="10" stroke-linejoin="miter" fill="none" stroke="#000000" d="M 0 0 L 325.366 0 "/>
<path transform="matrix(.63023,0,0,-.63023,.50304797,33.982149)" stroke-width=".398" stroke-linecap="butt" stroke-miterlimit="10" stroke-linejoin="miter" fill="none" stroke="#000000" d="M 0 0 L 0 14.446 "/>
<text xml:space="preserve" transform="matrix(.63023 0 -0 .63023 -57.84176 513.3647)" font-size="11.9552" font-family="LMRoman12"><tspan y="-728.866" x="109.273 112.52482 121.299938 128.44915 134.30719 140.16524">[AZ19]</tspan></text>
<path transform="matrix(.63023,0,0,-.63023,43.06311,33.982149)" stroke-width=".398" stroke-linecap="butt" stroke-miterlimit="10" stroke-linejoin="miter" fill="none" stroke="#000000" d="M 0 0 L 0 14.446 "/>
<text xml:space="preserve" transform="matrix(.63023 0 -0 .63023 -57.84176 513.3647)" font-size="11.9552" font-family="LMRoman12"><tspan y="-764.981" x="166.285 174.73734 183.67983 192.78969 201.5648">TD+VF</tspan></text>
<path transform="matrix(.63023,0,0,-.63023,105.50315,33.982149)" stroke-width=".398" stroke-linecap="butt" stroke-miterlimit="10" stroke-linejoin="miter" fill="none" stroke="#000000" d="M 0 0 L 0 14.446 "/>
<text xml:space="preserve" transform="matrix(.63023 0 -0 .63023 -57.84176 513.3647)" font-size="11.9552" font-family="LMRoman12"><tspan y="-764.981" x="287.307 293.16508 299.02314 304.8812">162h</tspan></text>
<path transform="matrix(.63023,0,0,-.63023,142.28525,33.982149)" stroke-width=".398" stroke-linecap="butt" stroke-miterlimit="10" stroke-linejoin="miter" fill="none" stroke="#000000" d="M 0 0 L 0 14.446 "/>
<text xml:space="preserve" transform="matrix(.63023 0 -0 .63023 -57.84176 513.3647)" font-size="11.9552" font-family="LMRoman12"><tspan y="-764.981" x="333.021">+</tspan></text>
<path transform="matrix(.63023,0,0,-.63023,167.5285,33.982149)" stroke-width=".398" stroke-linecap="butt" stroke-miterlimit="10" stroke-linejoin="miter" fill="none" stroke="#000000" d="M 0 0 L 0 14.446 "/>
<text xml:space="preserve" transform="matrix(.63023 0 -0 .63023 -57.84176 513.3647)" font-size="11.9552" font-family="LMRoman12"><tspan y="-764.981" x="390.556 396.41407 402.27214 405.52394">15,1</tspan></text>
<path transform="matrix(.63023,0,0,-.63023,205.307,33.982149)" stroke-width=".398" stroke-linecap="butt" stroke-miterlimit="10" stroke-linejoin="miter" fill="none" stroke="#000000" d="M 0 0 L 0 14.446 "/>
<path transform="matrix(.63023,0,0,-.63023,.3769989,35.463777)" stroke-width=".585" stroke-linecap="butt" stroke-miterlimit="10" stroke-linejoin="miter" fill="none" stroke="#000000" d="M 0 0 L 325.366 0 "/>
<path transform="matrix(.63023,0,0,-.63023,.50304797,46.86023)" stroke-width=".398" stroke-linecap="butt" stroke-miterlimit="10" stroke-linejoin="miter" fill="none" stroke="#000000" d="M 0 0 L 0 14.446 "/>
<path transform="matrix(.63023,0,0,-.63023,43.06311,46.86023)" stroke-width=".398" stroke-linecap="butt" stroke-miterlimit="10" stroke-linejoin="miter" fill="none" stroke="#000000" d="M 0 0 L 0 14.446 "/>
<text xml:space="preserve" transform="matrix(.63023 0 -0 .63023 -57.84176 513.3647)" font-size="11.9552" font-family="LMRoman12"><tspan y="-744.546" x="166.285 174.73734 183.67983 192.78969 201.24202 210.42362 219.53348 230.2573">TD+VG+Mz</tspan></text>
<path transform="matrix(.63023,0,0,-.63023,105.50315,46.86023)" stroke-width=".398" stroke-linecap="butt" stroke-miterlimit="10" stroke-linejoin="miter" fill="none" stroke="#000000" d="M 0 0 L 0 14.446 "/>
<text xml:space="preserve" transform="matrix(.63023 0 -0 .63023 -57.84176 513.3647)" font-size="11.9552" font-family="LMRoman12"><tspan y="-744.546" x="287.307 293.16508 299.02314 304.8812">302h</tspan></text>
<path transform="matrix(.63023,0,0,-.63023,142.28525,46.86023)" stroke-width=".398" stroke-linecap="butt" stroke-miterlimit="10" stroke-linejoin="miter" fill="none" stroke="#000000" d="M 0 0 L 0 14.446 "/>
<text xml:space="preserve" transform="matrix(.63023 0 -0 .63023 -57.84176 513.3647)" font-size="11.9552" font-family="LMRoman12"><tspan y="-744.546" x="333.021">+</tspan></text>
<path transform="matrix(.63023,0,0,-.63023,167.5285,46.86023)" stroke-width=".398" stroke-linecap="butt" stroke-miterlimit="10" stroke-linejoin="miter" fill="none" stroke="#000000" d="M 0 0 L 0 14.446 "/>
<text xml:space="preserve" transform="matrix(.63023 0 -0 .63023 -57.84176 513.3647)" font-size="11.9552" font-family="LMRoman12"><tspan y="-744.546" x="390.556 396.41407 402.27214 405.52394">21,5</tspan></text>
<path transform="matrix(.63023,0,0,-.63023,205.307,46.86023)" stroke-width=".398" stroke-linecap="butt" stroke-miterlimit="10" stroke-linejoin="miter" fill="none" stroke="#000000" d="M 0 0 L 0 14.446 "/>
<path transform="matrix(.63023,0,0,-.63023,43.18853,46.986299)" stroke-width=".398" stroke-linecap="butt" stroke-miterlimit="10" stroke-linejoin="miter" fill="none" stroke="#000000" d="M 0 0 L 257.436 0 "/>
<path transform="matrix(.63023,0,0,-.63023,.50304797,55.96454)" stroke-width=".398" stroke-linecap="butt" stroke-miterlimit="10" stroke-linejoin="miter" fill="none" stroke="#000000" d="M 0 0 L 0 14.446 "/>
<path transform="matrix(.63023,0,0,-.63023,43.06311,55.96454)" stroke-width=".398" stroke-linecap="butt" stroke-miterlimit="10" stroke-linejoin="miter" fill="none" stroke="#000000" d="M 0 0 L 0 14.446 "/>
<text xml:space="preserve" transform="matrix(.63023 0 -0 .63023 -57.84176 513.3647)" font-size="11.9552" font-family="LMRoman12"><tspan y="-730.101" x="166.285 174.73734">TD</tspan></text>
<path transform="matrix(.63023,0,0,-.63023,105.50315,55.96454)" stroke-width=".398" stroke-linecap="butt" stroke-miterlimit="10" stroke-linejoin="miter" fill="none" stroke="#000000" d="M 0 0 L 0 14.446 "/>
<text xml:space="preserve" transform="matrix(.63023 0 -0 .63023 -57.84176 513.3647)" font-size="11.9552" font-family="LMRoman12"><tspan y="-730.101" x="287.307 293.16508 299.02314 304.8812">127h</tspan></text>
<path transform="matrix(.63023,0,0,-.63023,142.28525,55.96454)" stroke-width=".398" stroke-linecap="butt" stroke-miterlimit="10" stroke-linejoin="miter" fill="none" stroke="#000000" d="M 0 0 L 0 14.446 "/>
<text xml:space="preserve" transform="matrix(.63023 0 -0 .63023 -57.84176 513.3647)" font-size="11.9552" font-family="LMRoman12"><tspan y="-730.101" x="335.622">-</tspan></text>
<path transform="matrix(.63023,0,0,-.63023,167.5285,55.96454)" stroke-width=".398" stroke-linecap="butt" stroke-miterlimit="10" stroke-linejoin="miter" fill="none" stroke="#000000" d="M 0 0 L 0 14.446 "/>
<text xml:space="preserve" transform="matrix(.63023 0 -0 .63023 -57.84176 513.3647)" font-size="11.9552" font-family="LMRoman12"><tspan y="-730.101" x="390.556 396.41407 402.27214 405.52394">26,8</tspan></text>
<path transform="matrix(.63023,0,0,-.63023,205.307,55.96454)" stroke-width=".398" stroke-linecap="butt" stroke-miterlimit="10" stroke-linejoin="miter" fill="none" stroke="#000000" d="M 0 0 L 0 14.446 "/>
<path transform="matrix(.63023,0,0,-.63023,43.18853,56.090578)" stroke-width=".398" stroke-linecap="butt" stroke-miterlimit="10" stroke-linejoin="miter" fill="none" stroke="#000000" d="M 0 0 L 257.436 0 "/>
<path transform="matrix(.63023,0,0,-.63023,.50304797,65.06885)" stroke-width=".398" stroke-linecap="butt" stroke-miterlimit="10" stroke-linejoin="miter" fill="none" stroke="#000000" d="M 0 0 L 0 14.446 "/>
<path transform="matrix(.63023,0,0,-.63023,43.06311,65.06885)" stroke-width=".398" stroke-linecap="butt" stroke-miterlimit="10" stroke-linejoin="miter" fill="none" stroke="#000000" d="M 0 0 L 0 14.446 "/>
<text xml:space="preserve" transform="matrix(.63023 0 -0 .63023 -57.84176 513.3647)" font-size="11.9552" font-family="LMRoman12"><tspan y="-715.655" x="166.285 174.73734 183.67983 192.78969 203.5135">TD+Mz</tspan></text>
<path transform="matrix(.63023,0,0,-.63023,105.50315,65.06885)" stroke-width=".398" stroke-linecap="butt" stroke-miterlimit="10" stroke-linejoin="miter" fill="none" stroke="#000000" d="M 0 0 L 0 14.446 "/>
<text xml:space="preserve" transform="matrix(.63023 0 -0 .63023 -57.84176 513.3647)" font-size="11.9552" font-family="LMRoman12"><tspan y="-715.655" x="287.307 293.16508 299.02314 304.8812">267h</tspan></text>
<path transform="matrix(.63023,0,0,-.63023,142.28525,65.06885)" stroke-width=".398" stroke-linecap="butt" stroke-miterlimit="10" stroke-linejoin="miter" fill="none" stroke="#000000" d="M 0 0 L 0 14.446 "/>
<text xml:space="preserve" transform="matrix(.63023 0 -0 .63023 -57.84176 513.3647)" font-size="11.9552" font-family="LMRoman12"><tspan y="-715.655" x="333.021">+</tspan></text>
<path transform="matrix(.63023,0,0,-.63023,167.5285,65.06885)" stroke-width=".398" stroke-linecap="butt" stroke-miterlimit="10" stroke-linejoin="miter" fill="none" stroke="#000000" d="M 0 0 L 0 14.446 "/>
<text xml:space="preserve" transform="matrix(.63023 0 -0 .63023 -57.84176 513.3647)" font-size="11.9552" font-family="LMRoman12"><tspan y="-715.655" x="390.556 396.41407 402.27214 405.52394">57,3</tspan></text>
<path transform="matrix(.63023,0,0,-.63023,205.307,65.06885)" stroke-width=".398" stroke-linecap="butt" stroke-miterlimit="10" stroke-linejoin="miter" fill="none" stroke="#000000" d="M 0 0 L 0 14.446 "/>
<path transform="matrix(.63023,0,0,-.63023,43.18853,65.194248)" stroke-width=".398" stroke-linecap="butt" stroke-miterlimit="10" stroke-linejoin="miter" fill="none" stroke="#000000" d="M 0 0 L 257.436 0 "/>
<path transform="matrix(.63023,0,0,-.63023,.50304797,74.17316)" stroke-width=".398" stroke-linecap="butt" stroke-miterlimit="10" stroke-linejoin="miter" fill="none" stroke="#000000" d="M 0 0 L 0 14.446 "/>
<path transform="matrix(.63023,0,0,-.63023,43.06311,74.17316)" stroke-width=".398" stroke-linecap="butt" stroke-miterlimit="10" stroke-linejoin="miter" fill="none" stroke="#000000" d="M 0 0 L 0 14.446 "/>
<text xml:space="preserve" transform="matrix(.63023 0 -0 .63023 -57.84176 513.3647)" font-size="11.9552" font-family="LMRoman12"><tspan y="-701.209" x="166.285 175.06012">VF</tspan></text>
<path transform="matrix(.63023,0,0,-.63023,105.50315,74.17316)" stroke-width=".398" stroke-linecap="butt" stroke-miterlimit="10" stroke-linejoin="miter" fill="none" stroke="#000000" d="M 0 0 L 0 14.446 "/>
<text xml:space="preserve" transform="matrix(.63023 0 -0 .63023 -57.84176 513.3647)" font-size="11.9552" font-family="LMRoman12"><tspan y="-701.209" x="293.16 299.01808 304.87614">35h</tspan></text>
<path transform="matrix(.63023,0,0,-.63023,142.28525,74.17316)" stroke-width=".398" stroke-linecap="butt" stroke-miterlimit="10" stroke-linejoin="miter" fill="none" stroke="#000000" d="M 0 0 L 0 14.446 "/>
<text xml:space="preserve" transform="matrix(.63023 0 -0 .63023 -57.84176 513.3647)" font-size="11.9552" font-family="LMRoman12"><tspan y="-701.209" x="333.021">+</tspan></text>
<path transform="matrix(.63023,0,0,-.63023,167.5285,74.17316)" stroke-width=".398" stroke-linecap="butt" stroke-miterlimit="10" stroke-linejoin="miter" fill="none" stroke="#000000" d="M 0 0 L 0 14.446 "/>
<text xml:space="preserve" transform="matrix(.63023 0 -0 .63023 -57.84176 513.3647)" font-size="11.9552" font-family="LMRoman12"><tspan y="-701.209" x="390.556 396.41407 402.27214 405.52394">72,1</tspan></text>
<path transform="matrix(.63023,0,0,-.63023,205.307,74.17316)" stroke-width=".398" stroke-linecap="butt" stroke-miterlimit="10" stroke-linejoin="miter" fill="none" stroke="#000000" d="M 0 0 L 0 14.446 "/>
<path transform="matrix(.63023,0,0,-.63023,43.18853,74.29855)" stroke-width=".398" stroke-linecap="butt" stroke-miterlimit="10" stroke-linejoin="miter" fill="none" stroke="#000000" d="M 0 0 L 257.436 0 "/>
<path transform="matrix(.63023,0,0,-.63023,.50304797,83.277439)" stroke-width=".398" stroke-linecap="butt" stroke-miterlimit="10" stroke-linejoin="miter" fill="none" stroke="#000000" d="M 0 0 L 0 14.446 "/>
<path transform="matrix(.63023,0,0,-.63023,43.06311,83.277439)" stroke-width=".398" stroke-linecap="butt" stroke-miterlimit="10" stroke-linejoin="miter" fill="none" stroke="#000000" d="M 0 0 L 0 14.446 "/>
<text xml:space="preserve" transform="matrix(.63023 0 -0 .63023 -57.84176 513.3647)" font-size="11.9552" font-family="LMRoman12"><tspan y="-686.763" x="166.285 177.00882">Mz</tspan></text>
<path transform="matrix(.63023,0,0,-.63023,105.50315,83.277439)" stroke-width=".398" stroke-linecap="butt" stroke-miterlimit="10" stroke-linejoin="miter" fill="none" stroke="#000000" d="M 0 0 L 0 14.446 "/>
<text xml:space="preserve" transform="matrix(.63023 0 -0 .63023 -57.84176 513.3647)" font-size="11.9552" font-family="LMRoman12"><tspan y="-686.763" x="287.307 293.16508 299.02314 304.8812">140h</tspan></text>
<path transform="matrix(.63023,0,0,-.63023,142.28525,83.277439)" stroke-width=".398" stroke-linecap="butt" stroke-miterlimit="10" stroke-linejoin="miter" fill="none" stroke="#000000" d="M 0 0 L 0 14.446 "/>
<text xml:space="preserve" transform="matrix(.63023 0 -0 .63023 -57.84176 513.3647)" font-size="11.9552" font-family="LMRoman12"><tspan y="-686.763" x="333.021">+</tspan></text>
<path transform="matrix(.63023,0,0,-.63023,167.5285,83.277439)" stroke-width=".398" stroke-linecap="butt" stroke-miterlimit="10" stroke-linejoin="miter" fill="none" stroke="#000000" d="M 0 0 L 0 14.446 "/>
<text xml:space="preserve" transform="matrix(.63023 0 -0 .63023 -57.84176 513.3647)" font-size="11.9552" font-family="LMRoman12"><tspan y="-686.763" x="390.556 396.41407 402.27214 405.52394">79,7</tspan></text>
<path transform="matrix(.63023,0,0,-.63023,205.307,83.277439)" stroke-width=".398" stroke-linecap="butt" stroke-miterlimit="10" stroke-linejoin="miter" fill="none" stroke="#000000" d="M 0 0 L 0 14.446 "/>
<path transform="matrix(.63023,0,0,-.63023,43.18853,83.40289)" stroke-width=".398" stroke-linecap="butt" stroke-miterlimit="10" stroke-linejoin="miter" fill="none" stroke="#000000" d="M 0 0 L 257.436 0 "/>
<path transform="matrix(.63023,0,0,-.63023,.50304797,92.381778)" stroke-width=".398" stroke-linecap="butt" stroke-miterlimit="10" stroke-linejoin="miter" fill="none" stroke="#000000" d="M 0 0 L 0 14.446 "/>
<text xml:space="preserve" transform="matrix(.63023 0 -0 .63023 -57.84176 513.3647)" font-size="11.9552" font-family="LMRoman12"><tspan y="-672.317" x="147.529 155.98134 161.83939 171.59484 178.09847 183.95652 188.51145 191.76326 196.37796 202.23601 212.63704 218.81789 228.89612 237.67124 243.52928 249.38733 253.94226 262.0718 267.92988 275.09104 280.93714 287.44078 297.85377 305.00297 310.20347 314.81819 319.6959 330.09693 334.65187 340.50993 346.36799 352.22605 358.0841">ComparisonbyAgarwalandZesch(2019)</tspan></text>
<path transform="matrix(.63023,0,0,-.63023,205.307,92.381778)" stroke-width=".398" stroke-linecap="butt" stroke-miterlimit="10" stroke-linejoin="miter" fill="none" stroke="#000000" d="M 0 0 L 0 14.446 "/>
<path transform="matrix(.63023,0,0,-.63023,.3769989,93.8634)" stroke-width=".585" stroke-linecap="butt" stroke-miterlimit="10" stroke-linejoin="miter" fill="none" stroke="#000000" d="M 0 0 L 325.366 0 "/>
<path transform="matrix(.63023,0,0,-.63023,.50304797,105.25986)" stroke-width=".398" stroke-linecap="butt" stroke-miterlimit="10" stroke-linejoin="miter" fill="none" stroke="#000000" d="M 0 0 L 0 14.446 "/>
<text xml:space="preserve" transform="matrix(.63023 0 -0 .63023 -57.84176 513.3647)" font-size="11.9552" font-family="LMRoman12"><tspan y="-651.883" x="111.677 114.92882 119.543529 122.79534 126.04716 131.90522 137.76326">[sil19]</tspan></text>
<path transform="matrix(.63023,0,0,-.63023,43.06311,105.25986)" stroke-width=".398" stroke-linecap="butt" stroke-miterlimit="10" stroke-linejoin="miter" fill="none" stroke="#000000" d="M 0 0 L 0 14.446 "/>
<text xml:space="preserve" transform="matrix(.63023 0 -0 .63023 -57.84176 513.3647)" font-size="11.9552" font-family="LMRoman12"><tspan y="-651.883" x="166.285 175.71767 182.2213 185.47312 190.02805">multi</tspan></text>
<path transform="matrix(.63023,0,0,-.63023,105.50315,105.25986)" stroke-width=".398" stroke-linecap="butt" stroke-miterlimit="10" stroke-linejoin="miter" fill="none" stroke="#000000" d="M 0 0 L 0 14.446 "/>
<text xml:space="preserve" transform="matrix(.63023 0 -0 .63023 -57.84176 513.3647)" font-size="11.9552" font-family="LMRoman12"><tspan y="-651.883" x="287.307 293.16508 299.02314 304.8812">494h</tspan></text>
<path transform="matrix(.63023,0,0,-.63023,142.28525,105.25986)" stroke-width=".398" stroke-linecap="butt" stroke-miterlimit="10" stroke-linejoin="miter" fill="none" stroke="#000000" d="M 0 0 L 0 14.446 "/>
<text xml:space="preserve" transform="matrix(.63023 0 -0 .63023 -57.84176 513.3647)" font-size="11.9552" font-family="LMRoman12"><tspan y="-651.883" x="333.021">+</tspan></text>
<path transform="matrix(.63023,0,0,-.63023,167.5285,105.25986)" stroke-width=".398" stroke-linecap="butt" stroke-miterlimit="10" stroke-linejoin="miter" fill="none" stroke="#000000" d="M 0 0 L 0 14.446 "/>
<text xml:space="preserve" transform="matrix(.63023 0 -0 .63023 -57.84176 513.3647)" font-size="11.9552" font-family="LMRoman12"><tspan y="-651.883" x="396.409 402.26707 405.51887">9,0</tspan></text>
<path transform="matrix(.63023,0,0,-.63023,205.307,105.25986)" stroke-width=".398" stroke-linecap="butt" stroke-miterlimit="10" stroke-linejoin="miter" fill="none" stroke="#000000" d="M 0 0 L 0 14.446 "/>
<path transform="matrix(.63023,0,0,-.63023,.3769989,106.74155)" stroke-width=".585" stroke-linecap="butt" stroke-miterlimit="10" stroke-linejoin="miter" fill="none" stroke="#000000" d="M 0 0 L 325.366 0 "/>
<path transform="matrix(.63023,0,0,-.63023,.50304797,118.138)" stroke-width=".398" stroke-linecap="butt" stroke-miterlimit="10" stroke-linejoin="miter" fill="none" stroke="#000000" d="M 0 0 L 0 14.446 "/>
<text xml:space="preserve" transform="matrix(.63023 0 -0 .63023 -57.84176 513.3647)" font-size="11.9552" font-family="LMRoman12"><tspan y="-631.449" x="105.046 108.29781 117.07293 123.57656 132.68643 138.54448 144.40253">[Xu+20]</tspan></text>
<path transform="matrix(.63023,0,0,-.63023,43.06311,118.138)" stroke-width=".398" stroke-linecap="butt" stroke-miterlimit="10" stroke-linejoin="miter" fill="none" stroke="#000000" d="M 0 0 L 0 14.446 "/>
<text xml:space="preserve" transform="matrix(.63023 0 -0 .63023 -57.84176 513.3647)" font-size="11.9552" font-family="LMRoman12"><tspan y="-631.449" x="166.285 174.73734 183.67983 192.78969 201.5648 209.20418 218.31404 229.03786">TD+VF+Mz</tspan></text>
<path transform="matrix(.63023,0,0,-.63023,105.50315,118.138)" stroke-width=".398" stroke-linecap="butt" stroke-miterlimit="10" stroke-linejoin="miter" fill="none" stroke="#000000" d="M 0 0 L 0 14.446 "/>
<text xml:space="preserve" transform="matrix(.63023 0 -0 .63023 -57.84176 513.3647)" font-size="11.9552" font-family="LMRoman12"><tspan y="-631.449" x="287.307 293.16508 299.02314 304.8812">247h</tspan></text>
<path transform="matrix(.63023,0,0,-.63023,142.28525,118.138)" stroke-width=".398" stroke-linecap="butt" stroke-miterlimit="10" stroke-linejoin="miter" fill="none" stroke="#000000" d="M 0 0 L 0 14.446 "/>
<text xml:space="preserve" transform="matrix(.63023 0 -0 .63023 -57.84176 513.3647)" font-size="11.9552" font-family="LMRoman12"><tspan y="-631.449" x="333.021">+</tspan></text>
<path transform="matrix(.63023,0,0,-.63023,167.5285,118.138)" stroke-width=".398" stroke-linecap="butt" stroke-miterlimit="10" stroke-linejoin="miter" fill="none" stroke="#000000" d="M 0 0 L 0 14.446 "/>
<text xml:space="preserve" transform="matrix(.63023 0 -0 .63023 -57.84176 513.3647)" font-size="11.9552" font-family="LMRoman12"><tspan y="-631.449" x="390.556 396.41407 402.27214 405.52394">12,3</tspan></text>
<path transform="matrix(.63023,0,0,-.63023,205.307,118.138)" stroke-width=".398" stroke-linecap="butt" stroke-miterlimit="10" stroke-linejoin="miter" fill="none" stroke="#000000" d="M 0 0 L 0 14.446 "/>
<path transform="matrix(.63023,0,0,-.63023,.3769989,118.2634)" stroke-width=".398" stroke-linecap="butt" stroke-miterlimit="10" stroke-linejoin="miter" fill="none" stroke="#000000" d="M 0 0 L 325.366 0 "/>
<path transform="matrix(.63023,0,0,-.63023,.50304797,127.493747)" stroke-width=".398" stroke-linecap="butt" stroke-miterlimit="10" stroke-linejoin="miter" fill="none" stroke="#000000" d="M 0 0 L 0 14.446 "/>
<text xml:space="preserve" transform="matrix(.63023 0 -0 .63023 -57.84176 513.3647)" font-size="11.9552" font-family="LMRoman12"><tspan y="-616.604" x="111.677 114.92882 119.543529 122.79534 126.04716 131.90522 137.76326">[sil19]</tspan></text>
<path transform="matrix(.63023,0,0,-.63023,43.06311,127.493747)" stroke-width=".398" stroke-linecap="butt" stroke-miterlimit="10" stroke-linejoin="miter" fill="none" stroke="#000000" d="M 0 0 L 0 14.446 "/>
<text xml:space="preserve" transform="matrix(.63023 0 -0 .63023 -57.84176 513.3647)" font-size="11.9552" font-family="LMRoman12"><tspan y="-616.604" x="166.285 174.73734 183.8472 192.95706 201.73218 209.37155 218.48142">TO+VF+N</tspan></text>
<path transform="matrix(.63023,0,0,-.63023,105.50315,127.493747)" stroke-width=".398" stroke-linecap="butt" stroke-miterlimit="10" stroke-linejoin="miter" fill="none" stroke="#000000" d="M 0 0 L 0 14.446 "/>
<text xml:space="preserve" transform="matrix(.63023 0 -0 .63023 -57.84176 513.3647)" font-size="11.9552" font-family="LMRoman12"><tspan y="-616.604" x="287.307 293.16508 299.02314 304.8812">230h</tspan></text>
<path transform="matrix(.63023,0,0,-.63023,142.28525,127.493747)" stroke-width=".398" stroke-linecap="butt" stroke-miterlimit="10" stroke-linejoin="miter" fill="none" stroke="#000000" d="M 0 0 L 0 14.446 "/>
<text xml:space="preserve" transform="matrix(.63023 0 -0 .63023 -57.84176 513.3647)" font-size="11.9552" font-family="LMRoman12"><tspan y="-616.604" x="333.021">+</tspan></text>
<path transform="matrix(.63023,0,0,-.63023,167.5285,127.493747)" stroke-width=".398" stroke-linecap="butt" stroke-miterlimit="10" stroke-linejoin="miter" fill="none" stroke="#000000" d="M 0 0 L 0 14.446 "/>
<text xml:space="preserve" transform="matrix(.63023 0 -0 .63023 -57.84176 513.3647)" font-size="11.9552" font-family="LMRoman12"><tspan y="-616.604" x="390.556 396.41407 402.27214 405.52394">66,0</tspan></text>
<path transform="matrix(.63023,0,0,-.63023,205.307,127.493747)" stroke-width=".398" stroke-linecap="butt" stroke-miterlimit="10" stroke-linejoin="miter" fill="none" stroke="#000000" d="M 0 0 L 0 14.446 "/>
<path transform="matrix(.63023,0,0,-.63023,.3769989,127.61917)" stroke-width=".398" stroke-linecap="butt" stroke-miterlimit="10" stroke-linejoin="miter" fill="none" stroke="#000000" d="M 0 0 L 325.366 0 "/>
<path transform="matrix(.63023,0,0,-.63023,.50304797,136.84888)" stroke-width=".398" stroke-linecap="butt" stroke-miterlimit="10" stroke-linejoin="miter" fill="none" stroke="#000000" d="M 0 0 L 0 14.446 "/>
<text xml:space="preserve" transform="matrix(.63023 0 -0 .63023 -57.84176 513.3647)" font-size="11.9552" font-family="LMRoman12"><tspan y="-601.76" x="174.55 183.00234 188.86038 198.61583 205.11946 210.97751 215.53244 218.78426 223.39896 229.257 239.65804 245.83889 255.91712 264.69224 275.10523 280.30574 286.80937 292.66743 295.91923 303.06843 307.62336 313.4814 319.33949 325.19755 331.0556">ComparisonbyXuetal.(2020)</tspan></text>
<path transform="matrix(.63023,0,0,-.63023,205.307,136.84888)" stroke-width=".398" stroke-linecap="butt" stroke-miterlimit="10" stroke-linejoin="miter" fill="none" stroke="#000000" d="M 0 0 L 0 14.446 "/>
<path transform="matrix(.63023,0,0,-.63023,.3769989,138.44083)" stroke-width=".936" stroke-linecap="butt" stroke-miterlimit="10" stroke-linejoin="miter" fill="none" stroke="#000000" d="M 0 0 L 325.366 0 "/>
<text xml:space="preserve" transform="matrix(.86433 0 -0 .86433 -48.209794 665.93936)" font-size="11.9552" font-family="LMRoman12"><tspan y="-759.742" x="328.748 337.20033 343.05839 352.8138 359.31745 365.1755 369.73045 372.98225 377.59696 383.45503 393.85606 399.7141 407.1981 413.70173 416.95353 423.77995 428.98045 433.53538 438.7239 444.90476 453.36906 458.56956 465.07319 471.5768 475.4742 480.02915 485.8872 489.7846 494.9851 501.48875 511.88978 516.50448 522.3625 525.6143 532.1179 536.67288 539.9247 545.7827 552.2863">Comparisonofdi&#xfb00;erentend-to-endsolutions</tspan></text>
<path transform="matrix(.4821,0,0,-.4821,361.3979,14.109936)" stroke-width=".398" stroke-linecap="butt" stroke-miterlimit="10" stroke-linejoin="miter" fill="none" stroke="#000000" d="M 0 0 L 155.581 0 "/>
<path transform="matrix(.4821,0,0,-.4821,361.30195,20.978417)" stroke-width=".398" stroke-linecap="butt" stroke-miterlimit="10" stroke-linejoin="miter" fill="none" stroke="#000000" d="M 0 0 L 0 14.446 "/>
<text xml:space="preserve" transform="matrix(.4821 0 -0 .4821 75.16258 410.66758)" font-size="11.9552" font-family="LMRoman12"><tspan y="-812.65" x="651.532 660.4745 666.3325 670.88748 676.7455 681.36019 686.56069">Dataset</tspan></text>
<path transform="matrix(.4821,0,0,-.4821,436.30757,20.978425)" stroke-width=".398" stroke-linecap="butt" stroke-miterlimit="10" stroke-linejoin="miter" fill="none" stroke="#000000" d="M 0 0 L 0 14.446 "/>
<path transform="matrix(.4821,0,0,-.4821,230.77,21.074372)" stroke-width=".398" stroke-linecap="butt" stroke-miterlimit="10" stroke-linejoin="miter" fill="none" stroke="#000000" d="M 0 0 L 426.537 0 "/>
<path transform="matrix(.4821,0,0,-.4821,230.86643,28.134736)" stroke-width=".398" stroke-linecap="butt" stroke-miterlimit="10" stroke-linejoin="miter" fill="none" stroke="#000000" d="M 0 0 L 0 14.446 "/>
<text xml:space="preserve" transform="matrix(.4821 0 -0 .4821 75.16258 410.66758)" font-size="11.9552" font-family="LMRoman12"><tspan y="-797.806" x="329.146 337.7657 342.9662 347.5809 352.7814 358.63948 363.1944 368.0721 374.57575 379.77626">Researcher</tspan></text>
<path transform="matrix(.4821,0,0,-.4821,263.42314,28.134736)" stroke-width=".398" stroke-linecap="butt" stroke-miterlimit="10" stroke-linejoin="miter" fill="none" stroke="#000000" d="M 0 0 L 0 14.446 "/>
<text xml:space="preserve" transform="matrix(.4821 0 -0 .4821 75.16258 410.66758)" font-size="11.9552" font-family="LMRoman12"><tspan y="-797.806" x="460.15 468.9251 473.48005 478.35777 484.8614 488.1132 492.66813 497.86863 503.06913 507.62406 514.1277 518.6826">Architecture</tspan></text>
<path transform="matrix(.4821,0,0,-.4821,361.30195,28.134736)" stroke-width=".398" stroke-linecap="butt" stroke-miterlimit="10" stroke-linejoin="miter" fill="none" stroke="#000000" d="M 0 0 L 0 14.446 "/>
<text xml:space="preserve" transform="matrix(.4821 0 -0 .4821 75.16258 410.66758)" font-size="11.9552" font-family="LMRoman12"><tspan y="-797.806" x="599.704 608.1563 611.40817 616.60867 622.4667 632.8677">Clean(</tspan></text>
<text xml:space="preserve" transform="matrix(.4821 0 -0 .4821 75.16258 410.66758)" font-size="11.9552" font-family="LMMathSymbols10" font-style="italic"><tspan y="-797.806" x="637.423">&#x2020;</tspan></text>
<text xml:space="preserve" transform="matrix(.4821 0 -0 .4821 75.16258 410.66758)" font-size="11.9552" font-family="LMRoman12"><tspan y="-797.806" x="642.73599">)</tspan></text>
<path transform="matrix(.4821,0,0,-.4821,390.19856,28.134736)" stroke-width=".398" stroke-linecap="butt" stroke-miterlimit="10" stroke-linejoin="miter" fill="none" stroke="#000000" d="M 0 0 L 0 14.446 "/>
<text xml:space="preserve" transform="matrix(.4821 0 -0 .4821 75.16258 410.66758)" font-size="11.9552" font-family="LMRoman12"><tspan y="-797.806" x="676.837 685.94686 690.5018 697.0054 702.2059 710.6582">Other(</tspan></text>
<text xml:space="preserve" transform="matrix(.4821 0 -0 .4821 75.16258 410.66758)" font-size="11.9552" font-family="LMMathSymbols10" font-style="italic"><tspan y="-797.806" x="715.207">&#x2193;</tspan></text>
<text xml:space="preserve" transform="matrix(.4821 0 -0 .4821 75.16258 410.66758)" font-size="11.9552" font-family="LMRoman12"><tspan y="-797.806" x="721.18399">)</tspan></text>
<path transform="matrix(.4821,0,0,-.4821,436.30757,28.134736)" stroke-width=".398" stroke-linecap="butt" stroke-miterlimit="10" stroke-linejoin="miter" fill="none" stroke="#000000" d="M 0 0 L 0 14.446 "/>
<path transform="matrix(.4821,0,0,-.4821,230.77,28.230652)" stroke-width=".398" stroke-linecap="butt" stroke-miterlimit="10" stroke-linejoin="miter" fill="none" stroke="#000000" d="M 0 0 L 426.537 0 "/>
<path transform="matrix(.4821,0,0,-.4821,230.86643,35.291017)" stroke-width=".398" stroke-linecap="butt" stroke-miterlimit="10" stroke-linejoin="miter" fill="none" stroke="#000000" d="M 0 0 L 0 14.446 "/>
<text xml:space="preserve" transform="matrix(.4821 0 -0 .4821 75.16258 410.66758)" font-size="11.9552" font-family="LMRoman12"><tspan y="-782.962" x="338.974 348.15559 354.33644 360.1945 366.05256 369.30436">Google</tspan></text>
<path transform="matrix(.4821,0,0,-.4821,263.42314,35.291017)" stroke-width=".398" stroke-linecap="butt" stroke-miterlimit="10" stroke-linejoin="miter" fill="none" stroke="#000000" d="M 0 0 L 0 14.446 "/>
<text xml:space="preserve" transform="matrix(.4821 0 -0 .4821 75.16258 410.66758)" font-size="11.9552" font-family="LMRoman12"><tspan y="-782.962" x="396.678 403.9946 412.7697 423.17076 426.42256 434.06193 439.91999 444.4749 453.58479 459.44285 465.3009">LAS[Par+19]</tspan></text>
<path transform="matrix(.4821,0,0,-.4821,361.30195,35.291017)" stroke-width=".398" stroke-linecap="butt" stroke-miterlimit="10" stroke-linejoin="miter" fill="none" stroke="#000000" d="M 0 0 L 0 14.446 "/>
<text xml:space="preserve" transform="matrix(.4821 0 -0 .4821 75.16258 410.66758)" font-size="11.9552" font-family="LMRoman12"><tspan y="-782.962" x="613.091 618.94906 622.20089 628.0589">2,80</tspan></text>
<path transform="matrix(.4821,0,0,-.4821,390.19856,35.291017)" stroke-width=".398" stroke-linecap="butt" stroke-miterlimit="10" stroke-linejoin="miter" fill="none" stroke="#000000" d="M 0 0 L 0 14.446 "/>
<text xml:space="preserve" transform="matrix(.4821 0 -0 .4821 75.16258 410.66758)" font-size="11.9552" font-family="LMRoman12"><tspan y="-782.962" x="690.881 696.739 699.99087 705.8489">6,80</tspan></text>
<path transform="matrix(.4821,0,0,-.4821,436.30757,35.291017)" stroke-width=".398" stroke-linecap="butt" stroke-miterlimit="10" stroke-linejoin="miter" fill="none" stroke="#000000" d="M 0 0 L 0 14.446 "/>
<path transform="matrix(.4821,0,0,-.4821,230.77,36.42444)" stroke-width=".585" stroke-linecap="butt" stroke-miterlimit="10" stroke-linejoin="miter" fill="none" stroke="#000000" d="M 0 0 L 426.537 0 "/>
<path transform="matrix(.4821,0,0,-.4821,230.86643,45.14273)" stroke-width=".398" stroke-linecap="butt" stroke-miterlimit="10" stroke-linejoin="miter" fill="none" stroke="#000000" d="M 0 0 L 0 14.446 "/>
<text xml:space="preserve" transform="matrix(.4821 0 -0 .4821 75.16258 410.66758)" font-size="11.9552" font-family="LMRoman12"><tspan y="-733.636" x="332.755 339.41407 345.27214 350.47264 355.67314 362.5115 368.69236 374.5504">Facebook</tspan></text>
<path transform="matrix(.4821,0,0,-.4821,263.42314,45.14273)" stroke-width=".398" stroke-linecap="butt" stroke-miterlimit="10" stroke-linejoin="miter" fill="none" stroke="#000000" d="M 0 0 L 0 14.446 "/>
<text xml:space="preserve" transform="matrix(.4821 0 -0 .4821 75.16258 410.66758)" font-size="11.9552" font-family="LMRoman12"><tspan y="-762.527" x="396.678 404.15003 408.70497 414.56303 421.06666 425.68138 429.25599 435.11405 439.66899 449.4244 454.6249 463.0892 466.341 472.84465 479.02549 485.5291 494.63899 500.49705 506.3551">Transformer[Syn+20]</tspan></text>
<path transform="matrix(.4821,0,0,-.4821,361.30195,45.14273)" stroke-width=".398" stroke-linecap="butt" stroke-miterlimit="10" stroke-linejoin="miter" fill="none" stroke="#000000" d="M 0 0 L 0 14.446 "/>
<text xml:space="preserve" transform="matrix(.4821 0 -0 .4821 75.16258 410.66758)" font-size="11.9552" font-family="LMRoman12"><tspan y="-762.527" x="613.091 618.94906 622.20089 628.0589">2,90</tspan></text>
<path transform="matrix(.4821,0,0,-.4821,390.19856,45.14273)" stroke-width=".398" stroke-linecap="butt" stroke-miterlimit="10" stroke-linejoin="miter" fill="none" stroke="#000000" d="M 0 0 L 0 14.446 "/>
<text xml:space="preserve" transform="matrix(.4821 0 -0 .4821 75.16258 410.66758)" font-size="11.9552" font-family="LMRoman12"><tspan y="-762.527" x="690.881 696.739 699.99087 705.8489">7,00</tspan></text>
<path transform="matrix(.4821,0,0,-.4821,436.30757,45.14273)" stroke-width=".398" stroke-linecap="butt" stroke-miterlimit="10" stroke-linejoin="miter" fill="none" stroke="#000000" d="M 0 0 L 0 14.446 "/>
<path transform="matrix(.4821,0,0,-.4821,263.51954,45.238649)" stroke-width=".398" stroke-linecap="butt" stroke-miterlimit="10" stroke-linejoin="miter" fill="none" stroke="#000000" d="M 0 0 L 358.607 0 "/>
<path transform="matrix(.4821,0,0,-.4821,230.86643,52.10666)" stroke-width=".398" stroke-linecap="butt" stroke-miterlimit="10" stroke-linejoin="miter" fill="none" stroke="#000000" d="M 0 0 L 0 14.446 "/>
<path transform="matrix(.4821,0,0,-.4821,263.42314,52.10666)" stroke-width=".398" stroke-linecap="butt" stroke-miterlimit="10" stroke-linejoin="miter" fill="none" stroke="#000000" d="M 0 0 L 0 14.446 "/>
<text xml:space="preserve" transform="matrix(.4821 0 -0 .4821 75.16258 410.66758)" font-size="11.9552" font-family="LMRoman12"><tspan y="-748.081" x="396.678 404.15003 408.70497 414.56303 421.06666 425.68138 429.25599 435.11405 439.66899 449.4244 454.6249 463.0892 467.64414 473.5022 478.05714 483.9152 493.67066">Transformer(gro&#x00df;(</tspan></text>
<text xml:space="preserve" transform="matrix(.4821 0 -0 .4821 75.16258 410.66758)" font-size="11.9552" font-family="LMMathSymbols10" font-style="italic"><tspan y="-748.081" x="498.195">&#x2021;</tspan></text>
<text xml:space="preserve" transform="matrix(.4821 0 -0 .4821 75.16258 410.66758)" font-size="11.9552" font-family="LMRoman12"><tspan y="-748.081" x="503.509 508.06394 516.5163 519.7681 530.82669 536.6847 543.1883 552.29818 558.1562 564.0142">))[Wan+20]</tspan></text>
<path transform="matrix(.4821,0,0,-.4821,361.30195,52.10666)" stroke-width=".398" stroke-linecap="butt" stroke-miterlimit="10" stroke-linejoin="miter" fill="none" stroke="#000000" d="M 0 0 L 0 14.446 "/>
<text xml:space="preserve" transform="matrix(.4821 0 -0 .4821 75.16258 410.66758)" font-size="11.9552" font-family="LMRoman12"><tspan y="-748.081" x="613.091 618.94906 622.20089 628.0589">3,50</tspan></text>
<path transform="matrix(.4821,0,0,-.4821,390.19856,52.10666)" stroke-width=".398" stroke-linecap="butt" stroke-miterlimit="10" stroke-linejoin="miter" fill="none" stroke="#000000" d="M 0 0 L 0 14.446 "/>
<text xml:space="preserve" transform="matrix(.4821 0 -0 .4821 75.16258 410.66758)" font-size="11.9552" font-family="LMRoman12"><tspan y="-748.081" x="690.881 696.739 699.99087 705.8489">7,80</tspan></text>
<path transform="matrix(.4821,0,0,-.4821,436.30757,52.10666)" stroke-width=".398" stroke-linecap="butt" stroke-miterlimit="10" stroke-linejoin="miter" fill="none" stroke="#000000" d="M 0 0 L 0 14.446 "/>
<path transform="matrix(.4821,0,0,-.4821,263.51954,52.203096)" stroke-width=".398" stroke-linecap="butt" stroke-miterlimit="10" stroke-linejoin="miter" fill="none" stroke="#000000" d="M 0 0 L 358.607 0 "/>
<path transform="matrix(.4821,0,0,-.4821,230.86643,59.071077)" stroke-width=".398" stroke-linecap="butt" stroke-miterlimit="10" stroke-linejoin="miter" fill="none" stroke="#000000" d="M 0 0 L 0 14.446 "/>
<path transform="matrix(.4821,0,0,-.4821,263.42314,59.071077)" stroke-width=".398" stroke-linecap="butt" stroke-miterlimit="10" stroke-linejoin="miter" fill="none" stroke="#000000" d="M 0 0 L 0 14.446 "/>
<text xml:space="preserve" transform="matrix(.4821 0 -0 .4821 75.16258 410.66758)" font-size="11.9552" font-family="LMRoman12"><tspan y="-733.636" x="396.678 404.15003 408.70497 414.56303 421.06666 425.68138 429.25599 435.11405 439.66899 449.4244 454.6249 463.0892 467.64414 477.39958 480.65138 485.2063 489.76124 494.96174 502.11094">Transformer(mittel(</tspan></text>
<text xml:space="preserve" transform="matrix(.4821 0 -0 .4821 75.16258 410.66758)" font-size="11.9552" font-family="LMMathSymbols10" font-style="italic"><tspan y="-733.636" x="506.65003">&#x2021;</tspan></text>
<text xml:space="preserve" transform="matrix(.4821 0 -0 .4821 75.16258 410.66758)" font-size="11.9552" font-family="LMRoman12"><tspan y="-733.636" x="511.963 516.51797 524.9703 528.2221 539.28067 545.1387 551.6423 560.75216 566.61019 572.4682">))[Wan+20]</tspan></text>
<path transform="matrix(.4821,0,0,-.4821,361.30195,59.071077)" stroke-width=".398" stroke-linecap="butt" stroke-miterlimit="10" stroke-linejoin="miter" fill="none" stroke="#000000" d="M 0 0 L 0 14.446 "/>
<text xml:space="preserve" transform="matrix(.4821 0 -0 .4821 75.16258 410.66758)" font-size="11.9552" font-family="LMRoman12"><tspan y="-733.636" x="613.091 618.94906 622.20089 628.0589">3,70</tspan></text>
<path transform="matrix(.4821,0,0,-.4821,390.19856,59.071077)" stroke-width=".398" stroke-linecap="butt" stroke-miterlimit="10" stroke-linejoin="miter" fill="none" stroke="#000000" d="M 0 0 L 0 14.446 "/>
<text xml:space="preserve" transform="matrix(.4821 0 -0 .4821 75.16258 410.66758)" font-size="11.9552" font-family="LMRoman12"><tspan y="-733.636" x="690.881 696.739 699.99087 705.8489">8,10</tspan></text>
<path transform="matrix(.4821,0,0,-.4821,436.30757,59.071077)" stroke-width=".398" stroke-linecap="butt" stroke-miterlimit="10" stroke-linejoin="miter" fill="none" stroke="#000000" d="M 0 0 L 0 14.446 "/>
<path transform="matrix(.4821,0,0,-.4821,263.51954,59.166994)" stroke-width=".398" stroke-linecap="butt" stroke-miterlimit="10" stroke-linejoin="miter" fill="none" stroke="#000000" d="M 0 0 L 358.607 0 "/>
<path transform="matrix(.4821,0,0,-.4821,230.86643,66.03549)" stroke-width=".398" stroke-linecap="butt" stroke-miterlimit="10" stroke-linejoin="miter" fill="none" stroke="#000000" d="M 0 0 L 0 14.446 "/>
<path transform="matrix(.4821,0,0,-.4821,263.42314,66.03549)" stroke-width=".398" stroke-linecap="butt" stroke-miterlimit="10" stroke-linejoin="miter" fill="none" stroke="#000000" d="M 0 0 L 0 14.446 "/>
<text xml:space="preserve" transform="matrix(.4821 0 -0 .4821 75.16258 410.66758)" font-size="11.9552" font-family="LMRoman12"><tspan y="-719.19" x="396.678 404.15003 408.70497 414.56303 421.06666 425.68138 429.25599 435.11405 439.66899 449.4244 454.6249 463.0892 467.64414 473.82499 477.07679 482.27729 485.52909 495.9301">Transformer(klein(</tspan></text>
<text xml:space="preserve" transform="matrix(.4821 0 -0 .4821 75.16258 410.66758)" font-size="11.9552" font-family="LMMathSymbols10" font-style="italic"><tspan y="-719.19" x="500.47203">&#x2021;</tspan></text>
<text xml:space="preserve" transform="matrix(.4821 0 -0 .4821 75.16258 410.66758)" font-size="11.9552" font-family="LMRoman12"><tspan y="-719.19" x="505.785 510.33995 518.7923 522.0441 533.10269 538.9607 545.4643 554.57418 560.4322 566.2902">))[Wan+20]</tspan></text>
<path transform="matrix(.4821,0,0,-.4821,361.30195,66.03549)" stroke-width=".398" stroke-linecap="butt" stroke-miterlimit="10" stroke-linejoin="miter" fill="none" stroke="#000000" d="M 0 0 L 0 14.446 "/>
<text xml:space="preserve" transform="matrix(.4821 0 -0 .4821 75.16258 410.66758)" font-size="11.9552" font-family="LMRoman12"><tspan y="-719.19" x="613.091 618.94906 622.20089 628.0589">4,40</tspan></text>
<path transform="matrix(.4821,0,0,-.4821,390.19856,66.03549)" stroke-width=".398" stroke-linecap="butt" stroke-miterlimit="10" stroke-linejoin="miter" fill="none" stroke="#000000" d="M 0 0 L 0 14.446 "/>
<text xml:space="preserve" transform="matrix(.4821 0 -0 .4821 75.16258 410.66758)" font-size="11.9552" font-family="LMRoman12"><tspan y="-719.19" x="690.881 696.739 699.99087 705.8489">9,20</tspan></text>
<path transform="matrix(.4821,0,0,-.4821,436.30757,66.03549)" stroke-width=".398" stroke-linecap="butt" stroke-miterlimit="10" stroke-linejoin="miter" fill="none" stroke="#000000" d="M 0 0 L 0 14.446 "/>
<path transform="matrix(.4821,0,0,-.4821,263.51954,66.13144)" stroke-width=".398" stroke-linecap="butt" stroke-miterlimit="10" stroke-linejoin="miter" fill="none" stroke="#000000" d="M 0 0 L 358.607 0 "/>
<path transform="matrix(.4821,0,0,-.4821,230.86643,72.99991)" stroke-width=".398" stroke-linecap="butt" stroke-miterlimit="10" stroke-linejoin="miter" fill="none" stroke="#000000" d="M 0 0 L 0 14.446 "/>
<path transform="matrix(.4821,0,0,-.4821,263.42314,72.99991)" stroke-width=".398" stroke-linecap="butt" stroke-miterlimit="10" stroke-linejoin="miter" fill="none" stroke="#000000" d="M 0 0 L 0 14.446 "/>
<text xml:space="preserve" transform="matrix(.4821 0 -0 .4821 75.16258 410.66758)" font-size="11.9552" font-family="LMRoman12"><tspan y="-704.744" x="396.678 405.2977 414.0728 426.74534 431.30027 437.15834 441.71327 447.57133 457.33876">RNN(gro&#x00df;(</tspan></text>
<text xml:space="preserve" transform="matrix(.4821 0 -0 .4821 75.16258 410.66758)" font-size="11.9552" font-family="LMMathSymbols10" font-style="italic"><tspan y="-704.744" x="461.863 467.1711">&#x2021;&#x2021;</tspan></text>
<text xml:space="preserve" transform="matrix(.4821 0 -0 .4821 75.16258 410.66758)" font-size="11.9552" font-family="LMRoman12"><tspan y="-704.744" x="472.49003 477.04496 485.49729 488.74909 499.80763 505.66569 512.1693 521.2792 527.1372 532.99526">))[Wan+20]</tspan></text>
<path transform="matrix(.4821,0,0,-.4821,361.30195,72.99991)" stroke-width=".398" stroke-linecap="butt" stroke-miterlimit="10" stroke-linejoin="miter" fill="none" stroke="#000000" d="M 0 0 L 0 14.446 "/>
<text xml:space="preserve" transform="matrix(.4821 0 -0 .4821 75.16258 410.66758)" font-size="11.9552" font-family="LMRoman12"><tspan y="-704.744" x="613.091 618.94906 622.20089 628.0589">3,90</tspan></text>
<path transform="matrix(.4821,0,0,-.4821,390.19856,72.99991)" stroke-width=".398" stroke-linecap="butt" stroke-miterlimit="10" stroke-linejoin="miter" fill="none" stroke="#000000" d="M 0 0 L 0 14.446 "/>
<text xml:space="preserve" transform="matrix(.4821 0 -0 .4821 75.16258 410.66758)" font-size="11.9552" font-family="LMRoman12"><tspan y="-704.744" x="687.955 693.81307 699.6711 702.9229 708.78097">11,50</tspan></text>
<path transform="matrix(.4821,0,0,-.4821,436.30757,72.99991)" stroke-width=".398" stroke-linecap="butt" stroke-miterlimit="10" stroke-linejoin="miter" fill="none" stroke="#000000" d="M 0 0 L 0 14.446 "/>
<path transform="matrix(.4821,0,0,-.4821,230.77,73.095859)" stroke-width=".398" stroke-linecap="butt" stroke-miterlimit="10" stroke-linejoin="miter" fill="none" stroke="#000000" d="M 0 0 L 426.537 0 "/>
<path transform="matrix(.4821,0,0,-.4821,230.86643,80.15622)" stroke-width=".398" stroke-linecap="butt" stroke-miterlimit="10" stroke-linejoin="miter" fill="none" stroke="#000000" d="M 0 0 L 0 14.446 "/>
<text xml:space="preserve" transform="matrix(.4821 0 -0 .4821 75.16258 410.66758)" font-size="11.9552" font-family="LMRoman12"><tspan y="-675.454" x="338.04 348.76383 354.6219 359.8224 363.0742 366.326 369.5778">Mozilla</tspan></text>
<path transform="matrix(.4821,0,0,-.4821,263.42314,80.15622)" stroke-width=".398" stroke-linecap="butt" stroke-miterlimit="10" stroke-linejoin="miter" fill="none" stroke="#000000" d="M 0 0 L 0 14.446 "/>
<text xml:space="preserve" transform="matrix(.4821 0 -0 .4821 75.16258 410.66758)" font-size="11.9552" font-family="LMRoman12"><tspan y="-689.9" x="396.678 407.40184 412.60234 419.10597 423.72068 428.5984 435.10203 438.35383 441.60563 446.48335 452.98698 462.08488 469.5569 474.11183 479.96989 486.4735 491.08824 497.26908 501.824 505.0758 511.57945 516.1344 519.3862 525.24429 535.6572 538.90908 547.6842 557.43966 563.29769 572.40756 578.2536 584.11166">MenschlicheTranskription[Amo+15]</tspan></text>
<path transform="matrix(.4821,0,0,-.4821,361.30195,80.15622)" stroke-width=".398" stroke-linecap="butt" stroke-miterlimit="10" stroke-linejoin="miter" fill="none" stroke="#000000" d="M 0 0 L 0 14.446 "/>
<text xml:space="preserve" transform="matrix(.4821 0 -0 .4821 75.16258 410.66758)" font-size="11.9552" font-family="LMRoman12"><tspan y="-689.9" x="613.091 618.94906 622.20089 628.0589">5,83</tspan></text>
<path transform="matrix(.4821,0,0,-.4821,390.19856,80.15622)" stroke-width=".398" stroke-linecap="butt" stroke-miterlimit="10" stroke-linejoin="miter" fill="none" stroke="#000000" d="M 0 0 L 0 14.446 "/>
<text xml:space="preserve" transform="matrix(.4821 0 -0 .4821 75.16258 410.66758)" font-size="11.9552" font-family="LMRoman12"><tspan y="-689.9" x="687.955 693.81307 699.6711 702.9229 708.78097">12,69</tspan></text>
<path transform="matrix(.4821,0,0,-.4821,436.30757,80.15622)" stroke-width=".398" stroke-linecap="butt" stroke-miterlimit="10" stroke-linejoin="miter" fill="none" stroke="#000000" d="M 0 0 L 0 14.446 "/>
<path transform="matrix(.4821,0,0,-.4821,263.51954,80.25214)" stroke-width=".398" stroke-linecap="butt" stroke-miterlimit="10" stroke-linejoin="miter" fill="none" stroke="#000000" d="M 0 0 L 358.607 0 "/>
<path transform="matrix(.4821,0,0,-.4821,230.86643,87.120609)" stroke-width=".398" stroke-linecap="butt" stroke-miterlimit="10" stroke-linejoin="miter" fill="none" stroke="#000000" d="M 0 0 L 0 14.446 "/>
<path transform="matrix(.4821,0,0,-.4821,263.42314,87.120609)" stroke-width=".398" stroke-linecap="butt" stroke-miterlimit="10" stroke-linejoin="miter" fill="none" stroke="#000000" d="M 0 0 L 0 14.446 "/>
<text xml:space="preserve" transform="matrix(.4821 0 -0 .4821 75.16258 410.66758)" font-size="11.9552" font-family="LMRoman12"><tspan y="-675.454" x="396.678 405.62049 410.82099 416.02149 422.52513 429.02876 435.85517 441.05567 446.25617 451.13389 461.5349 471.30235 475.85728 484.47697 493.25209 502.0272 510.47953 513.7313 522.5065 532.2619 538.11996 547.2298 553.0878 558.94589">DeepSpeech2(RNN)[Amo+15]</tspan></text>
<path transform="matrix(.4821,0,0,-.4821,361.30195,87.120609)" stroke-width=".398" stroke-linecap="butt" stroke-miterlimit="10" stroke-linejoin="miter" fill="none" stroke="#000000" d="M 0 0 L 0 14.446 "/>
<text xml:space="preserve" transform="matrix(.4821 0 -0 .4821 75.16258 410.66758)" font-size="11.9552" font-family="LMRoman12"><tspan y="-675.454" x="613.091 618.94906 622.20089 628.0589">5,33</tspan></text>
<path transform="matrix(.4821,0,0,-.4821,390.19856,87.120609)" stroke-width=".398" stroke-linecap="butt" stroke-miterlimit="10" stroke-linejoin="miter" fill="none" stroke="#000000" d="M 0 0 L 0 14.446 "/>
<text xml:space="preserve" transform="matrix(.4821 0 -0 .4821 75.16258 410.66758)" font-size="11.9552" font-family="LMRoman12"><tspan y="-675.454" x="687.955 693.81307 699.6711 702.9229 708.78097">13,25</tspan></text>
<path transform="matrix(.4821,0,0,-.4821,436.30757,87.120609)" stroke-width=".398" stroke-linecap="butt" stroke-miterlimit="10" stroke-linejoin="miter" fill="none" stroke="#000000" d="M 0 0 L 0 14.446 "/>
<path transform="matrix(.4821,0,0,-.4821,263.51954,87.21655)" stroke-width=".398" stroke-linecap="butt" stroke-miterlimit="10" stroke-linejoin="miter" fill="none" stroke="#000000" d="M 0 0 L 358.607 0 "/>
<path transform="matrix(.4821,0,0,-.4821,230.86643,94.08502)" stroke-width=".398" stroke-linecap="butt" stroke-miterlimit="10" stroke-linejoin="miter" fill="none" stroke="#000000" d="M 0 0 L 0 14.446 "/>
<path transform="matrix(.4821,0,0,-.4821,263.42314,94.08502)" stroke-width=".398" stroke-linecap="butt" stroke-miterlimit="10" stroke-linejoin="miter" fill="none" stroke="#000000" d="M 0 0 L 0 14.446 "/>
<text xml:space="preserve" transform="matrix(.4821 0 -0 .4821 75.16258 410.66758)" font-size="11.9552" font-family="LMRoman12"><tspan y="-661.008" x="396.678 405.62049 410.82099 416.02149 422.52513 429.02876 435.85517 441.05567 446.25617 451.13389 461.5349 471.30235 475.85728 484.47697 493.25209 502.0272 510.47953 513.7313 522.5065 532.2619 538.11996 547.2298 553.0878 558.94589">DeepSpeech1(RNN)[Amo+15]</tspan></text>
<path transform="matrix(.4821,0,0,-.4821,361.30195,94.08502)" stroke-width=".398" stroke-linecap="butt" stroke-miterlimit="10" stroke-linejoin="miter" fill="none" stroke="#000000" d="M 0 0 L 0 14.446 "/>
<text xml:space="preserve" transform="matrix(.4821 0 -0 .4821 75.16258 410.66758)" font-size="11.9552" font-family="LMRoman12"><tspan y="-661.008" x="613.091 618.94906 622.20089 628.0589">7,89</tspan></text>
<path transform="matrix(.4821,0,0,-.4821,390.19856,94.08502)" stroke-width=".398" stroke-linecap="butt" stroke-miterlimit="10" stroke-linejoin="miter" fill="none" stroke="#000000" d="M 0 0 L 0 14.446 "/>
<text xml:space="preserve" transform="matrix(.4821 0 -0 .4821 75.16258 410.66758)" font-size="11.9552" font-family="LMRoman12"><tspan y="-661.008" x="687.955 693.81307 699.6711 702.9229 708.78097">21,74</tspan></text>
<path transform="matrix(.4821,0,0,-.4821,436.30757,94.08502)" stroke-width=".398" stroke-linecap="butt" stroke-miterlimit="10" stroke-linejoin="miter" fill="none" stroke="#000000" d="M 0 0 L 0 14.446 "/>
<path transform="matrix(.4821,0,0,-.4821,230.77,95.302799)" stroke-width=".936" stroke-linecap="butt" stroke-miterlimit="10" stroke-linejoin="miter" fill="none" stroke="#000000" d="M 0 0 L 426.537 0 "/>
<text xml:space="preserve" transform="matrix(.4821 0 -0 .4821 75.16258 410.66758)" font-size="11.9552" font-family="LMMathSymbols10" font-style="italic"><tspan y="-629.122" x="328.748">&#x2020;</tspan></text>
<text xml:space="preserve" transform="matrix(.4821 0 -0 .4821 75.16258 410.66758)" font-size="11.9552" font-family="LMRoman12"><tspan y="-629.122" x="334.06098 341.21018 348.52677 351.77857 358.2822 362.83714 366.08894 369.98634 376.48997 383.32835 388.52885 393.71739 398.5951 409.0081 415.51173 418.76353 424.94438 428.19618 434.6998 439.9003 448.4124 452.96736 459.47099 468.56889 473.1238 478.3243 482.93904 491.40333 497.90696 503.765 508.31996 514.178 518.79269 523.99319 532.4455 535.6973 541.8781 546.43307 556.1885 564.6408 567.89266 573.09317 578.9512 589.3522 595.2102 601.7138 612.1268 621.23666 625.79159 632.29519 637.49569 642.0506 649.1998 657.65219 664.15579 669.35629 673.9112 683.0091 691.4614 694.71328 699.91378 705.7718">:Libri-SpeechdividesthetestdatasetintoCleanandOther,whereClean</tspan><tspan y="-614.676" x="328.748 333.9485 339.80656 345.9874 350.54234 356.4004 359.6522 366.15583 374.66795 379.22288 385.7265 394.8244 399.43913 406.2775 411.478 416.6785 421.54426 431.95726 438.46089 441.71269 446.91319 455.4253 463.87763 467.12944 471.68437 482.0854 486.64033 493.14396 502.2538 505.5056 511.0409 519.1585 524.359 528.9737 537.438 549.4649 557.42709 569.94418 575.8022 582.3058 592.7068 601.81668 606.3716 612.8752 618.0757 626.54 631.7405 637.5985 643.7674 648.3223 654.18038 657.4322 663.9358 672.45986 677.0148 683.5184 692.6163 697.1712 702.3717 712.12716 717.98519 721.237 727.7406 730.99246 737.49606">containsthespeech&#xfb01;leswiththelowestWERandOthercontainstheremaining</tspan></text>
<text xml:space="preserve" transform="matrix(.4821 0 -0 .4821 75.16258 410.66758)" font-size="11.9552" font-family="LMMathSymbols10" font-style="italic"><tspan y="-600.23007" x="328.748">&#x2021;</tspan></text>
<text xml:space="preserve" transform="matrix(.4821 0 -0 .4821 75.16258 410.66758)" font-size="11.9552" font-family="LMRoman12"><tspan y="-600.23007" x="334.06098 341.21018 347.06825 356.83567 362.03617 368.5398 373.7403 379.92115 386.42478 391.62528 396.1802 402.03828 411.79374 418.29737 423.49787 428.69837 434.8792 441.38285 446.58335 455.04765 458.29945 463.82276 469.68083 474.88133 479.43626 487.94837 493.14888 499.00694 503.88465 510.38829">:12encoder/6decoderlayerseach.</tspan><tspan y="-585.78408" x="328.748 340.7749 344.0267 348.58164 358.98268 364.84074 370.6988 376.55686 386.32429 390.8792 394.131 399.98908 404.544 410.40208 415.60258 420.1575 427.3067 433.16477 439.02284 448.7783 453.33323 463.08866 468.28916 474.7928 478.0446 484.54823 494.30366 498.85859 506.01976 511.8778 517.7239 527.4913 532.0462 536.6609 546.4163 552.27438 555.5262 558.778 567.23037 573.73397 580.23757 583.4894 588.0443 596.56838 603.3948 608.5953 617.0476 620.29946 625.83468 631.6927 636.8932">With1024(large),512(medium),256(small)unitsperlayer</tspan></text>
<text xml:space="preserve" transform="matrix(.4821 0 -0 .4821 75.16258 410.66758)" font-size="11.9552" font-family="LMMathSymbols10" font-style="italic"><tspan y="-571.3381" x="328.748 334.0561">&#x2021;&#x2021;</tspan></text>
<text xml:space="preserve" transform="matrix(.4821 0 -0 .4821 75.16258 410.66758)" font-size="11.9552" font-family="LMRoman12"><tspan y="-571.3381" x="339.375 346.5242 356.29164 361.49214 367.99577 373.19627 379.3771 385.88075 391.08125 395.63618 401.49424 411.2497 417.75334 422.95384 428.15434 434.33518 440.8388 446.0393 454.5036 457.7554 463.27873 469.13679 474.33729 478.8922 487.40434 495.85667 499.10847 503.6634 514.07638 519.9344 525.7924 535.54788 542.05148 548.55508 551.8069 556.3618 564.8739 570.0744 575.93246 580.8101 587.3137">:5encoder/3decoderlayerswith512unitseach.</tspan></text>
</g>
</g>
</svg>
