<?xml version="1.0" encoding="UTF-8" standalone="no"?>
<!DOCTYPE svg PUBLIC "-//W3C//DTD SVG 1.1//EN" "http://www.w3.org/Graphics/SVG/1.1/DTD/svg11.dtd">
<svg xmlns="http://www.w3.org/2000/svg" xmlns:xlink="http://www.w3.org/1999/xlink" version="1.1" width="413pt" height="91pt" viewBox="0 0 413 91">
<g enable-background="new">
<clipPath id="cp0">
<path transform="matrix(1,0,0,-1,-97,770)" d="M 0 0 L 595.276 0 L 595.276 841.89 L 0 841.89 Z "/>
</clipPath>
<g clip-path="url(#cp0)">
<path transform="matrix(.7836,0,0,-.7836,82.473407,.2660141)" stroke-width=".398" stroke-linecap="butt" stroke-miterlimit="10" stroke-linejoin="miter" fill="none" stroke="#000000" d="M 0 0 L 149.997 0 "/>
<path transform="matrix(.7836,0,0,-.7836,273.49943,.2660141)" stroke-width=".398" stroke-linecap="butt" stroke-miterlimit="10" stroke-linejoin="miter" fill="none" stroke="#000000" d="M 0 0 L 177.129 0 "/>
<path transform="matrix(.7836,0,0,-.7836,82.31747,11.429966)" stroke-width=".398" stroke-linecap="butt" stroke-miterlimit="10" stroke-linejoin="miter" fill="none" stroke="#000000" d="M 0 0 L 0 14.446 "/>
<text xml:space="preserve" transform="matrix(.7836 0 -0 .7836 -75.93995 613.701)" font-size="11.9552" font-family="LMRoman12"><tspan y="-772.929" x="257.175 266.1175 271.97557 276.5305 282.38856 287.00328 292.20378">Dataset</tspan></text>
<path transform="matrix(.7836,0,0,-.7836,199.85514,11.429993)" stroke-width=".398" stroke-linecap="butt" stroke-miterlimit="10" stroke-linejoin="miter" fill="none" stroke="#000000" d="M 0 0 L 0 14.446 "/>
<path transform="matrix(.7836,0,0,-.7836,273.34349,11.429993)" stroke-width=".398" stroke-linecap="butt" stroke-miterlimit="10" stroke-linejoin="miter" fill="none" stroke="#000000" d="M 0 0 L 0 14.446 "/>
<text xml:space="preserve" transform="matrix(.7836 0 -0 .7836 -75.93995 613.701)" font-size="11.9552" font-family="LMRoman12"><tspan y="-772.929" x="511.594 520.5365 526.39456 530.94949 536.8075 541.4222 546.6227 551.1776">Dataset*</tspan></text>
<path transform="matrix(.7836,0,0,-.7836,412.14097,11.429993)" stroke-width=".398" stroke-linecap="butt" stroke-miterlimit="10" stroke-linejoin="miter" fill="none" stroke="#000000" d="M 0 0 L 0 14.446 "/>
<path transform="matrix(.7836,0,0,-.7836,.3199997,11.5859379)" stroke-width=".398" stroke-linecap="butt" stroke-miterlimit="10" stroke-linejoin="miter" fill="none" stroke="#000000" d="M 0 0 L 254.837 0 "/>
<path transform="matrix(.7836,0,0,-.7836,209.69086,11.5859379)" stroke-width=".398" stroke-linecap="butt" stroke-miterlimit="10" stroke-linejoin="miter" fill="none" stroke="#000000" d="M 0 0 L 258.558 0 "/>
<path transform="matrix(.7836,0,0,-.7836,.4767151,22.749878)" stroke-width=".398" stroke-linecap="butt" stroke-miterlimit="10" stroke-linejoin="miter" fill="none" stroke="#000000" d="M 0 0 L 0 14.446 "/>
<text xml:space="preserve" transform="matrix(.7836 0 -0 .7836 -75.93995 613.701)" font-size="11.9552" font-family="LMRoman12"><tspan y="-758.483" x="138.36 145.832 152.0248 157.88285">Tool</tspan></text>
<path transform="matrix(.7836,0,0,-.7836,82.31747,22.749878)" stroke-width=".398" stroke-linecap="butt" stroke-miterlimit="10" stroke-linejoin="miter" fill="none" stroke="#000000" d="M 0 0 L 0 14.446 "/>
<text xml:space="preserve" transform="matrix(.7836 0 -0 .7836 -75.93995 613.701)" font-size="11.9552" font-family="LMRoman12"><tspan y="-758.483" x="208.139 216.91413 227.63794 237.39339 241.94832 250.89081 258.85298">VM1(DE)</tspan></text>
<text xml:space="preserve" transform="matrix(.7836 0 -0 .7836 -75.93995 613.701)" font-size="11.9552" font-family="LMMathSymbols10" font-style="italic"><tspan y="-758.483" x="267.307">&#x2193;</tspan></text>
<path transform="matrix(.7836,0,0,-.7836,143.04648,22.749878)" stroke-width=".398" stroke-linecap="butt" stroke-miterlimit="10" stroke-linejoin="miter" fill="none" stroke="#000000" d="M 0 0 L 0 14.446 "/>
<text xml:space="preserve" transform="matrix(.7836 0 -0 .7836 -75.93995 613.701)" font-size="11.9552" font-family="LMRoman12"><tspan y="-758.483" x="285.639 297.66596 304.1696 310.18305 319.9385 324.49345 332.4556 341.2307">WSJ1(EN)</tspan></text>
<path transform="matrix(.7836,0,0,-.7836,199.85514,22.749878)" stroke-width=".398" stroke-linecap="butt" stroke-miterlimit="10" stroke-linejoin="miter" fill="none" stroke="#000000" d="M 0 0 L 0 14.446 "/>
<path transform="matrix(.7836,0,0,-.7836,209.53495,22.749878)" stroke-width=".398" stroke-linecap="butt" stroke-miterlimit="10" stroke-linejoin="miter" fill="none" stroke="#000000" d="M 0 0 L 0 14.446 "/>
<text xml:space="preserve" transform="matrix(.7836 0 -0 .7836 -75.93995 613.701)" font-size="11.9552" font-family="LMRoman12"><tspan y="-758.483" x="370.489 381.21284 387.39369 393.8973 399.0978">Model</tspan></text>
<path transform="matrix(.7836,0,0,-.7836,273.34349,22.749878)" stroke-width=".398" stroke-linecap="butt" stroke-miterlimit="10" stroke-linejoin="miter" fill="none" stroke="#000000" d="M 0 0 L 0 14.446 "/>
<text xml:space="preserve" transform="matrix(.7836 0 -0 .7836 -75.93995 613.701)" font-size="11.9552" font-family="LMRoman12"><tspan y="-758.483" x="451.918 460.37034">TD</tspan></text>
<text xml:space="preserve" transform="matrix(.7836 0 -0 .7836 -75.93995 613.701)" font-size="11.9552" font-family="LMMathSymbols10" font-style="italic"><tspan y="-758.483" x="473.215">&#x2193;</tspan></text>
<path transform="matrix(.7836,0,0,-.7836,304.39598,22.749878)" stroke-width=".398" stroke-linecap="butt" stroke-miterlimit="10" stroke-linejoin="miter" fill="none" stroke="#000000" d="M 0 0 L 0 14.446 "/>
<text xml:space="preserve" transform="matrix(.7836 0 -0 .7836 -75.93995 613.701)" font-size="11.9552" font-family="LMRoman12"><tspan y="-758.483" x="540.79 547.2936 558.9977">SWC</tspan></text>
<path transform="matrix(.7836,0,0,-.7836,412.14097,22.749878)" stroke-width=".398" stroke-linecap="butt" stroke-miterlimit="10" stroke-linejoin="miter" fill="none" stroke="#000000" d="M 0 0 L 0 14.446 "/>
<path transform="matrix(.7836,0,0,-.7836,.3199997,22.905762)" stroke-width=".398" stroke-linecap="butt" stroke-miterlimit="10" stroke-linejoin="miter" fill="none" stroke="#000000" d="M 0 0 L 254.837 0 "/>
<path transform="matrix(.7836,0,0,-.7836,209.69086,22.905762)" stroke-width=".398" stroke-linecap="butt" stroke-miterlimit="10" stroke-linejoin="miter" fill="none" stroke="#000000" d="M 0 0 L 258.558 0 "/>
<path transform="matrix(.7836,0,0,-.7836,.4767151,34.069765)" stroke-width=".398" stroke-linecap="butt" stroke-miterlimit="10" stroke-linejoin="miter" fill="none" stroke="#000000" d="M 0 0 L 0 14.446 "/>
<text xml:space="preserve" transform="matrix(.7836 0 -0 .7836 -75.93995 613.701)" font-size="11.9552" font-family="LMRoman12"><tspan y="-744.037" x="103.696 109.709468 116.2131 119.46491 122.71673 129.22035 137.73246 143.91329 149.77133 153.02315">Juliusv4.3</tspan></text>
<path transform="matrix(.7836,0,0,-.7836,82.31747,34.069765)" stroke-width=".398" stroke-linecap="butt" stroke-miterlimit="10" stroke-linejoin="miter" fill="none" stroke="#000000" d="M 0 0 L 0 14.446 "/>
<text xml:space="preserve" transform="matrix(.7836 0 -0 .7836 -75.93995 613.701)" font-size="11.9552" font-family="LMRoman12"><tspan y="-744.037" x="252.474 258.33207 264.19013 267.44194">27,2</tspan></text>
<path transform="matrix(.7836,0,0,-.7836,143.04648,34.069765)" stroke-width=".398" stroke-linecap="butt" stroke-miterlimit="10" stroke-linejoin="miter" fill="none" stroke="#000000" d="M 0 0 L 0 14.446 "/>
<text xml:space="preserve" transform="matrix(.7836 0 -0 .7836 -75.93995 613.701)" font-size="11.9552" font-family="LMRoman12"><tspan y="-744.037" x="324.971 330.82908 336.68714 339.93894">23,1</tspan></text>
<path transform="matrix(.7836,0,0,-.7836,199.85514,34.069765)" stroke-width=".398" stroke-linecap="butt" stroke-miterlimit="10" stroke-linejoin="miter" fill="none" stroke="#000000" d="M 0 0 L 0 14.446 "/>
<path transform="matrix(.7836,0,0,-.7836,209.53495,34.069765)" stroke-width=".398" stroke-linecap="butt" stroke-miterlimit="10" stroke-linejoin="miter" fill="none" stroke="#000000" d="M 0 0 L 0 14.446 "/>
<text xml:space="preserve" transform="matrix(.7836 0 -0 .7836 -75.93995 613.701)" font-size="11.9552" font-family="LMRoman12"><tspan y="-744.037" x="370.489 379.6706 390.3944 401.11824 405.01564 413.79075 424.51457">GMM-HMM</tspan></text>
<path transform="matrix(.7836,0,0,-.7836,273.34349,34.069765)" stroke-width=".398" stroke-linecap="butt" stroke-miterlimit="10" stroke-linejoin="miter" fill="none" stroke="#000000" d="M 0 0 L 0 14.446 "/>
<text xml:space="preserve" transform="matrix(.7836 0 -0 .7836 -75.93995 613.701)" font-size="11.9552" font-family="LMRoman12"><tspan y="-744.037" x="458.382 464.24006 470.0981 473.3499">38,3</tspan></text>
<path transform="matrix(.7836,0,0,-.7836,304.39598,34.069765)" stroke-width=".398" stroke-linecap="butt" stroke-miterlimit="10" stroke-linejoin="miter" fill="none" stroke="#000000" d="M 0 0 L 0 14.446 "/>
<text xml:space="preserve" transform="matrix(.7836 0 -0 .7836 -75.93995 613.701)" font-size="11.9552" font-family="LMRoman12"><tspan y="-744.037" x="595.883 601.741 607.59909 610.8509">25,8</tspan></text>
<path transform="matrix(.7836,0,0,-.7836,412.14097,34.069765)" stroke-width=".398" stroke-linecap="butt" stroke-miterlimit="10" stroke-linejoin="miter" fill="none" stroke="#000000" d="M 0 0 L 0 14.446 "/>
<path transform="matrix(.7836,0,0,-.7836,.3199997,34.225648)" stroke-width=".398" stroke-linecap="butt" stroke-miterlimit="10" stroke-linejoin="miter" fill="none" stroke="#000000" d="M 0 0 L 254.837 0 "/>
<path transform="matrix(.7836,0,0,-.7836,209.69086,34.225648)" stroke-width=".398" stroke-linecap="butt" stroke-miterlimit="10" stroke-linejoin="miter" fill="none" stroke="#000000" d="M 0 0 L 258.558 0 "/>
<path transform="matrix(.7836,0,0,-.7836,.4767151,45.388856)" stroke-width=".398" stroke-linecap="butt" stroke-miterlimit="10" stroke-linejoin="miter" fill="none" stroke="#000000" d="M 0 0 L 0 14.446 "/>
<text xml:space="preserve" transform="matrix(.7836 0 -0 .7836 -75.93995 613.701)" font-size="11.9552" font-family="LMRoman12"><tspan y="-729.591" x="103.696 110.19963 116.70326 123.206897 126.45871 132.96234 139.14318 143.04058">Sphinx-4</tspan></text>
<path transform="matrix(.7836,0,0,-.7836,82.31747,45.388856)" stroke-width=".398" stroke-linecap="butt" stroke-miterlimit="10" stroke-linejoin="miter" fill="none" stroke="#000000" d="M 0 0 L 0 14.446 "/>
<text xml:space="preserve" transform="matrix(.7836 0 -0 .7836 -75.93995 613.701)" font-size="11.9552" font-family="LMRoman12"><tspan y="-729.591" x="252.474 258.33207 264.19013 267.44194">26,9</tspan></text>
<path transform="matrix(.7836,0,0,-.7836,143.04648,45.388856)" stroke-width=".398" stroke-linecap="butt" stroke-miterlimit="10" stroke-linejoin="miter" fill="none" stroke="#000000" d="M 0 0 L 0 14.446 "/>
<text xml:space="preserve" transform="matrix(.7836 0 -0 .7836 -75.93995 613.701)" font-size="11.9552" font-family="LMRoman12"><tspan y="-729.591" x="324.971 330.82908 336.68714 339.93894">22,7</tspan></text>
<path transform="matrix(.7836,0,0,-.7836,199.85514,45.388856)" stroke-width=".398" stroke-linecap="butt" stroke-miterlimit="10" stroke-linejoin="miter" fill="none" stroke="#000000" d="M 0 0 L 0 14.446 "/>
<path transform="matrix(.7836,0,0,-.7836,209.53495,45.388856)" stroke-width=".398" stroke-linecap="butt" stroke-miterlimit="10" stroke-linejoin="miter" fill="none" stroke="#000000" d="M 0 0 L 0 14.446 "/>
<text xml:space="preserve" transform="matrix(.7836 0 -0 .7836 -75.93995 613.701)" font-size="11.9552" font-family="LMRoman12"><tspan y="-729.591" x="370.489 378.94136 387.88386 396.65898 405.43409 409.33149 418.1066 428.8304">TDNN-HMM</tspan></text>
<path transform="matrix(.7836,0,0,-.7836,273.34349,45.388856)" stroke-width=".398" stroke-linecap="butt" stroke-miterlimit="10" stroke-linejoin="miter" fill="none" stroke="#000000" d="M 0 0 L 0 14.446 "/>
<text xml:space="preserve" transform="matrix(.7836 0 -0 .7836 -75.93995 613.701)" font-size="11.9552" font-family="LMRoman12"><tspan y="-729.591" x="458.382 464.24006 470.0981 473.3499">29,0</tspan></text>
<path transform="matrix(.7836,0,0,-.7836,304.39598,45.388856)" stroke-width=".398" stroke-linecap="butt" stroke-miterlimit="10" stroke-linejoin="miter" fill="none" stroke="#000000" d="M 0 0 L 0 14.446 "/>
<text xml:space="preserve" transform="matrix(.7836 0 -0 .7836 -75.93995 613.701)" font-size="11.9552" font-family="LMRoman12"><tspan y="-729.591" x="595.883 601.741 607.59909 610.8509">14,4</tspan></text>
<path transform="matrix(.7836,0,0,-.7836,412.14097,45.388856)" stroke-width=".398" stroke-linecap="butt" stroke-miterlimit="10" stroke-linejoin="miter" fill="none" stroke="#000000" d="M 0 0 L 0 14.446 "/>
<path transform="matrix(.7836,0,0,-.7836,.3199997,45.545595)" stroke-width=".398" stroke-linecap="butt" stroke-miterlimit="10" stroke-linejoin="miter" fill="none" stroke="#000000" d="M 0 0 L 254.837 0 "/>
<path transform="matrix(.7836,0,0,-.7836,209.69086,45.545595)" stroke-width=".398" stroke-linecap="butt" stroke-miterlimit="10" stroke-linejoin="miter" fill="none" stroke="#000000" d="M 0 0 L 258.558 0 "/>
<path transform="matrix(.7836,0,0,-.7836,.4767151,56.70874)" stroke-width=".398" stroke-linecap="butt" stroke-miterlimit="10" stroke-linejoin="miter" fill="none" stroke="#000000" d="M 0 0 L 0 14.446 "/>
<text xml:space="preserve" transform="matrix(.7836 0 -0 .7836 -75.93995 613.701)" font-size="11.9552" font-family="LMRoman12"><tspan y="-715.146" x="103.696 110.52242 116.70326 121.580989 127.43903 132.63954 137.19448 141.80918 148.3128 154.81644 158.06826 164.57189 174.65012 180.83095 186.689 189.94081">pocketsphinxv0.8</tspan></text>
<path transform="matrix(.7836,0,0,-.7836,82.31747,56.70874)" stroke-width=".398" stroke-linecap="butt" stroke-miterlimit="10" stroke-linejoin="miter" fill="none" stroke="#000000" d="M 0 0 L 0 14.446 "/>
<text xml:space="preserve" transform="matrix(.7836 0 -0 .7836 -75.93995 613.701)" font-size="11.9552" font-family="LMRoman12"><tspan y="-715.146" x="252.474 258.33207 264.19013 267.44194">23,9</tspan></text>
<path transform="matrix(.7836,0,0,-.7836,143.04648,56.70874)" stroke-width=".398" stroke-linecap="butt" stroke-miterlimit="10" stroke-linejoin="miter" fill="none" stroke="#000000" d="M 0 0 L 0 14.446 "/>
<text xml:space="preserve" transform="matrix(.7836 0 -0 .7836 -75.93995 613.701)" font-size="11.9552" font-family="LMRoman12"><tspan y="-715.146" x="324.971 330.82908 336.68714 339.93894">21,4</tspan></text>
<path transform="matrix(.7836,0,0,-.7836,199.85514,56.70874)" stroke-width=".398" stroke-linecap="butt" stroke-miterlimit="10" stroke-linejoin="miter" fill="none" stroke="#000000" d="M 0 0 L 0 14.446 "/>
<path transform="matrix(.7836,0,0,-.7836,209.53495,56.70874)" stroke-width=".398" stroke-linecap="butt" stroke-miterlimit="10" stroke-linejoin="miter" fill="none" stroke="#000000" d="M 0 0 L 0 14.446 "/>
<text xml:space="preserve" transform="matrix(.7836 0 -0 .7836 -75.93995 613.701)" font-size="11.9552" font-family="LMRoman12"><tspan y="-715.146" x="370.489 378.94136 384.7994 394.55485 401.05848 406.91654 411.47148 414.72328 419.33799 425.19606 435.59709 441.77793 451.85618 462.59196 465.84376 469.09556 475.58723 484.69709 490.55516 497.05879 507.4598 516.2349 522.09298 528.59658 538.99758 543.5525 549.4105 555.26858 561.1266 566.9846 575.4489 578.70077 589.42459 598.52249 604.3805 610.2385 613.49038">ComparisonbyMildeandK&#x00f6;hn(2018)[MK18].</tspan><tspan y="-700.7" x="370.489 375.04396 379.59889 385.45695 388.70875 395.21238 400.41288 410.8139 416.67198 427.08497 432.94303 440.09223 444.64717 449.84767 454.46238 459.0173 464.2178 474.61885 480.4769 490.8899 499.34223">trainedon*,testedonTD</tspan></text>
<path transform="matrix(.7836,0,0,-.7836,412.14097,56.70874)" stroke-width=".398" stroke-linecap="butt" stroke-miterlimit="10" stroke-linejoin="miter" fill="none" stroke="#000000" d="M 0 0 L 0 14.446 "/>
<path transform="matrix(.7836,0,0,-.7836,.3199997,56.864686)" stroke-width=".398" stroke-linecap="butt" stroke-miterlimit="10" stroke-linejoin="miter" fill="none" stroke="#000000" d="M 0 0 L 254.837 0 "/>
<path transform="matrix(.7836,0,0,-.7836,.4767151,68.028568)" stroke-width=".398" stroke-linecap="butt" stroke-miterlimit="10" stroke-linejoin="miter" fill="none" stroke="#000000" d="M 0 0 L 0 14.446 "/>
<text xml:space="preserve" transform="matrix(.7836 0 -0 .7836 -75.93995 613.701)" font-size="11.9552" font-family="LMRoman12"><tspan y="-700.7" x="103.696 112.471118 121.413608 126.61412 131.81464 137.99547 144.4991 153.60897 159.7898 165.6359 168.88771 174.74576 177.99758">HDecodev3.4.1</tspan></text>
<path transform="matrix(.7836,0,0,-.7836,82.31747,68.028568)" stroke-width=".398" stroke-linecap="butt" stroke-miterlimit="10" stroke-linejoin="miter" fill="none" stroke="#000000" d="M 0 0 L 0 14.446 "/>
<text xml:space="preserve" transform="matrix(.7836 0 -0 .7836 -75.93995 613.701)" font-size="11.9552" font-family="LMRoman12"><tspan y="-700.7" x="252.474 258.33207 264.19013 267.44194">22,9</tspan></text>
<path transform="matrix(.7836,0,0,-.7836,143.04648,68.028568)" stroke-width=".398" stroke-linecap="butt" stroke-miterlimit="10" stroke-linejoin="miter" fill="none" stroke="#000000" d="M 0 0 L 0 14.446 "/>
<text xml:space="preserve" transform="matrix(.7836 0 -0 .7836 -75.93995 613.701)" font-size="11.9552" font-family="LMRoman12"><tspan y="-700.7" x="324.971 330.82908 336.68714 339.93894">19,8</tspan></text>
<path transform="matrix(.7836,0,0,-.7836,199.85514,68.028568)" stroke-width=".398" stroke-linecap="butt" stroke-miterlimit="10" stroke-linejoin="miter" fill="none" stroke="#000000" d="M 0 0 L 0 14.446 "/>
<path transform="matrix(.7836,0,0,-.7836,209.53495,68.028568)" stroke-width=".398" stroke-linecap="butt" stroke-miterlimit="10" stroke-linejoin="miter" fill="none" stroke="#000000" d="M 0 0 L 0 14.446 "/>
<path transform="matrix(.7836,0,0,-.7836,412.14097,68.028568)" stroke-width=".398" stroke-linecap="butt" stroke-miterlimit="10" stroke-linejoin="miter" fill="none" stroke="#000000" d="M 0 0 L 0 14.446 "/>
<path transform="matrix(.7836,0,0,-.7836,.3199997,68.18457)" stroke-width=".398" stroke-linecap="butt" stroke-miterlimit="10" stroke-linejoin="miter" fill="none" stroke="#000000" d="M 0 0 L 254.837 0 "/>
<path transform="matrix(.7836,0,0,-.7836,209.69086,68.18457)" stroke-width=".398" stroke-linecap="butt" stroke-miterlimit="10" stroke-linejoin="miter" fill="none" stroke="#000000" d="M 0 0 L 258.558 0 "/>
<path transform="matrix(.7836,0,0,-.7836,.4767151,79.34851)" stroke-width=".398" stroke-linecap="butt" stroke-miterlimit="10" stroke-linejoin="miter" fill="none" stroke="#000000" d="M 0 0 L 0 14.446 "/>
<text xml:space="preserve" transform="matrix(.7836 0 -0 .7836 -75.93995 613.701)" font-size="11.9552" font-family="LMRoman12"><tspan y="-686.254" x="103.696 112.79391 118.651958 121.90377 128.4074">Kaldi</tspan></text>
<path transform="matrix(.7836,0,0,-.7836,82.31747,79.34851)" stroke-width=".398" stroke-linecap="butt" stroke-miterlimit="10" stroke-linejoin="miter" fill="none" stroke="#000000" d="M 0 0 L 0 14.446 "/>
<text xml:space="preserve" transform="matrix(.7836 0 -0 .7836 -75.93995 613.701)" font-size="11.9552" font-family="LMRoman12"><tspan y="-686.254" x="252.474 258.33207 264.19013 267.44194">12,7</tspan></text>
<path transform="matrix(.7836,0,0,-.7836,143.04648,79.34851)" stroke-width=".398" stroke-linecap="butt" stroke-miterlimit="10" stroke-linejoin="miter" fill="none" stroke="#000000" d="M 0 0 L 0 14.446 "/>
<text xml:space="preserve" transform="matrix(.7836 0 -0 .7836 -75.93995 613.701)" font-size="11.9552" font-family="LMRoman12"><tspan y="-686.254" x="330.824 336.68208 339.93388">6,5</tspan></text>
<path transform="matrix(.7836,0,0,-.7836,199.85514,79.34851)" stroke-width=".398" stroke-linecap="butt" stroke-miterlimit="10" stroke-linejoin="miter" fill="none" stroke="#000000" d="M 0 0 L 0 14.446 "/>
<path transform="matrix(.7836,0,0,-.7836,.3199997,79.504459)" stroke-width=".398" stroke-linecap="butt" stroke-miterlimit="10" stroke-linejoin="miter" fill="none" stroke="#000000" d="M 0 0 L 254.837 0 "/>
<path transform="matrix(.7836,0,0,-.7836,.4767151,90.668399)" stroke-width=".398" stroke-linecap="butt" stroke-miterlimit="10" stroke-linejoin="miter" fill="none" stroke="#000000" d="M 0 0 L 0 14.446 "/>
<text xml:space="preserve" transform="matrix(.7836 0 -0 .7836 -75.93995 613.701)" font-size="11.9552" font-family="LMRoman12"><tspan y="-671.808" x="103.696 112.14832 118.00637 127.76181 134.26544 140.12349 144.67842 147.93024 152.54494 158.40299 168.80402 174.98487 185.0631 194.25664 200.11469 203.3665 209.87014 219.62558 224.8261 231.32973 237.18778 240.43959 247.5888 252.14374 258.0018 263.85987 269.71794 275.576 284.04029 287.29209 296.47367 302.33174 305.58354 314.6934 320.55146 326.40953 329.66133">ComparisonbyGaidaetal.(2014)[Gai+14].</tspan></text>
<path transform="matrix(.7836,0,0,-.7836,199.85514,90.668399)" stroke-width=".398" stroke-linecap="butt" stroke-miterlimit="10" stroke-linejoin="miter" fill="none" stroke="#000000" d="M 0 0 L 0 14.446 "/>
<path transform="matrix(.7836,0,0,-.7836,.3199997,90.82428)" stroke-width=".398" stroke-linecap="butt" stroke-miterlimit="10" stroke-linejoin="miter" fill="none" stroke="#000000" d="M 0 0 L 254.837 0 "/>
</g>
</g>
</svg>
