<?xml version="1.0" encoding="UTF-8" standalone="no"?>
<!DOCTYPE svg PUBLIC "-//W3C//DTD SVG 1.1//EN" "http://www.w3.org/Graphics/SVG/1.1/DTD/svg11.dtd">
<svg xmlns="http://www.w3.org/2000/svg" xmlns:xlink="http://www.w3.org/1999/xlink" version="1.1" width="416pt" height="183pt" viewBox="0 0 416 183">
<g enable-background="new">
<clipPath id="cp0">
<path transform="matrix(1,0,0,-1,-97,770)" d="M 0 0 L 595.276 0 L 595.276 841.89 L 0 841.89 Z "/>
</clipPath>
<g clip-path="url(#cp0)">
<path transform="matrix(.67313,0,0,-.67313,.31900025,.24355316)" stroke-width=".398" stroke-linecap="butt" stroke-miterlimit="10" stroke-linejoin="miter" fill="none" stroke="#000000" d="M 0 0 L 616.583 0 "/>
<path transform="matrix(.67313,0,0,-.67313,.4529531,10.101543)" stroke-width=".398" stroke-linecap="butt" stroke-miterlimit="10" stroke-linejoin="miter" fill="none" stroke="#000000" d="M 0 0 L 0 14.446 "/>
<text xml:space="preserve" transform="matrix(.67313 0 -0 .67313 -65.18934 541.83657)" font-size="11.9552" font-family="LMRoman12"><tspan y="-794.277" x="223.058 233.78182 239.96265 246.46628 251.6668 258.82798 265.3316 271.18968 280.9451">Modelname</tspan></text>
<path transform="matrix(.67313,0,0,-.67313,211.9235,10.1015629)" stroke-width=".398" stroke-linecap="butt" stroke-miterlimit="10" stroke-linejoin="miter" fill="none" stroke="#000000" d="M 0 0 L 0 14.446 "/>
<text xml:space="preserve" transform="matrix(.67313 0 -0 .67313 -65.18934 541.83657)" font-size="11.9552" font-family="LMRoman12"><tspan y="-794.277" x="417.855 429.88197 437.84413 450.3612 453.613 463.36845">WER[%]</tspan></text>
<text xml:space="preserve" transform="matrix(.67313 0 -0 .67313 -65.18934 541.83657)" font-size="11.9552" font-family="LMMathSymbols10" font-style="italic"><tspan y="-794.277" x="470.52403">&#x2193;</tspan></text>
<path transform="matrix(.67313,0,0,-.67313,259.7157,10.1015629)" stroke-width=".398" stroke-linecap="butt" stroke-miterlimit="10" stroke-linejoin="miter" fill="none" stroke="#000000" d="M 0 0 L 0 14.446 "/>
<text xml:space="preserve" transform="matrix(.67313 0 -0 .67313 -65.18934 541.83657)" font-size="11.9552" font-family="LMRoman12"><tspan y="-794.277" x="572.552 581.4945 587.35256 591.9075 597.108 603.6116 608.22628 614.0843 618.6392">Datensatz</tspan></text>
<path transform="matrix(.67313,0,0,-.67313,415.22489,10.1015629)" stroke-width=".398" stroke-linecap="butt" stroke-miterlimit="10" stroke-linejoin="miter" fill="none" stroke="#000000" d="M 0 0 L 0 14.446 "/>
<path transform="matrix(.67313,0,0,-.67313,.31900025,10.236206)" stroke-width=".398" stroke-linecap="butt" stroke-miterlimit="10" stroke-linejoin="miter" fill="none" stroke="#000000" d="M 0 0 L 616.583 0 "/>
<path transform="matrix(.67313,0,0,-.67313,.45294953,20.094178)" stroke-width=".398" stroke-linecap="butt" stroke-miterlimit="10" stroke-linejoin="miter" fill="none" stroke="#000000" d="M 0 0 L 0 14.446 "/>
<text xml:space="preserve" transform="matrix(.67313 0 -0 .67313 -65.18934 541.83657)" font-size="11.9552" font-family="LMRoman12"><tspan y="-779.433" x="103.695 107.26961 113.127658 119.63129 125.489337 130.04427 135.90232 140.51702 146.37506 150.93 156.78804 161.40274 171.15819 177.01624 183.51987 189.37792 197.50746 203.03076 209.2116 215.06964 220.92769 226.1282 231.32872 237.18677 241.08417 244.33599 250.19403 254.74897 260.60704 265.80754 269.70494 275.88578 279.13758 283.7523 288.30723 292.20463 298.06269 303.92076 307.81816 313.6762 318.8767 323.43165 333.18708 339.04515">jonatasgrosman/wav2vec2-large-xlsr-53-german</tspan></text>
<text xml:space="preserve" transform="matrix(.67313 0 -0 .67313 -65.18934 541.83657)" font-size="11.9552" font-family="LMMathSymbols10" font-style="italic"><tspan y="-779.433" x="345.491">&#x2020;</tspan></text>
<path transform="matrix(.67313,0,0,-.67313,211.9235,20.094178)" stroke-width=".398" stroke-linecap="butt" stroke-miterlimit="10" stroke-linejoin="miter" fill="none" stroke="#000000" d="M 0 0 L 0 14.446 "/>
<text xml:space="preserve" transform="matrix(.67313 0 -0 .67313 -65.18934 541.83657)" font-size="11.9552" font-family="LMRoman12"><tspan y="-779.433" x="433.846 439.70408 445.56214 448.81394 454.672">12,54</tspan></text>
<path transform="matrix(.67313,0,0,-.67313,259.7157,20.094178)" stroke-width=".398" stroke-linecap="butt" stroke-miterlimit="10" stroke-linejoin="miter" fill="none" stroke="#000000" d="M 0 0 L 0 14.446 "/>
<text xml:space="preserve" transform="matrix(.67313 0 -0 .67313 -65.18934 541.83657)" font-size="11.9552" font-family="LMRoman12"><tspan y="-779.433" x="573.805 582.2573 591.0325 594.9299 602.40188 606.9568 612.8148 616.06668">CV-Train</tspan></text>
<path transform="matrix(.67313,0,0,-.67313,415.22489,20.094178)" stroke-width=".398" stroke-linecap="butt" stroke-miterlimit="10" stroke-linejoin="miter" fill="none" stroke="#000000" d="M 0 0 L 0 14.446 "/>
<path transform="matrix(.67313,0,0,-.67313,.31900025,20.228089)" stroke-width=".398" stroke-linecap="butt" stroke-miterlimit="10" stroke-linejoin="miter" fill="none" stroke="#000000" d="M 0 0 L 616.583 0 "/>
<path transform="matrix(.67313,0,0,-.67313,.45294953,30.08612)" stroke-width=".398" stroke-linecap="butt" stroke-miterlimit="10" stroke-linejoin="miter" fill="none" stroke="#000000" d="M 0 0 L 0 14.446 "/>
<text xml:space="preserve" transform="matrix(.67313 0 -0 .67313 -65.18934 541.83657)" font-size="11.9552" font-family="LMRoman12"><tspan y="-764.589" x="103.695 113.45044 119.30849 125.48933 128.74114 135.24477 138.49658 144.35463 152.48418 158.00748 164.18831 170.04636 175.9044 181.10492 186.30544 192.16349 196.06089 199.3127 205.17075 209.72568 215.58373 220.78424 224.68164 230.86248 234.11429 238.72899 243.28392 247.18132 253.03937 258.23988 262.7948 272.55024 278.4083">maxidl/wav2vec2-large-xlsr-german</tspan></text>
<text xml:space="preserve" transform="matrix(.67313 0 -0 .67313 -65.18934 541.83657)" font-size="11.9552" font-family="LMMathSymbols10" font-style="italic"><tspan y="-764.589" x="284.88">&#x2020;</tspan></text>
<path transform="matrix(.67313,0,0,-.67313,211.9235,30.08612)" stroke-width=".398" stroke-linecap="butt" stroke-miterlimit="10" stroke-linejoin="miter" fill="none" stroke="#000000" d="M 0 0 L 0 14.446 "/>
<text xml:space="preserve" transform="matrix(.67313 0 -0 .67313 -65.18934 541.83657)" font-size="11.9552" font-family="LMRoman12"><tspan y="-764.589" x="433.846 439.70408 445.56214 448.81394 454.672">13,10</tspan></text>
<path transform="matrix(.67313,0,0,-.67313,259.7157,30.08612)" stroke-width=".398" stroke-linecap="butt" stroke-miterlimit="10" stroke-linejoin="miter" fill="none" stroke="#000000" d="M 0 0 L 0 14.446 "/>
<text xml:space="preserve" transform="matrix(.67313 0 -0 .67313 -65.18934 541.83657)" font-size="11.9552" font-family="LMRoman12"><tspan y="-764.589" x="573.805 582.2573 591.0325 594.9299 602.40188 606.9568 612.8148 616.06668">CV-Train</tspan></text>
<path transform="matrix(.67313,0,0,-.67313,415.22489,30.08612)" stroke-width=".398" stroke-linecap="butt" stroke-miterlimit="10" stroke-linejoin="miter" fill="none" stroke="#000000" d="M 0 0 L 0 14.446 "/>
<path transform="matrix(.67313,0,0,-.67313,.31900025,30.220063)" stroke-width=".398" stroke-linecap="butt" stroke-miterlimit="10" stroke-linejoin="miter" fill="none" stroke="#000000" d="M 0 0 L 616.583 0 "/>
<path transform="matrix(.67313,0,0,-.67313,.45294953,40.078065)" stroke-width=".398" stroke-linecap="butt" stroke-miterlimit="10" stroke-linejoin="miter" fill="none" stroke="#000000" d="M 0 0 L 0 14.446 "/>
<text xml:space="preserve" transform="matrix(.67313 0 -0 .67313 -65.18934 541.83657)" font-size="11.9552" font-family="LMRoman12"><tspan y="-749.744" x="103.695 113.45044 119.30849 123.86342 129.06394 134.26445 137.51627 143.37432 151.50386 157.02716 163.208 169.06604 174.92409 180.1246 185.32512 191.18317 195.08057 198.33238 204.19043 208.74536 214.60341 219.80393 223.70133 229.88216 233.13397 237.74868 242.3036 246.201 252.05905 257.9171 261.8145 267.67259 272.87309 277.428 287.18345 293.0415">marcel/wav2vec2-large-xlsr-53-german</tspan></text>
<text xml:space="preserve" transform="matrix(.67313 0 -0 .67313 -65.18934 541.83657)" font-size="11.9552" font-family="LMMathSymbols10" font-style="italic"><tspan y="-749.744" x="299.511">&#x2020;</tspan></text>
<path transform="matrix(.67313,0,0,-.67313,211.9235,40.078065)" stroke-width=".398" stroke-linecap="butt" stroke-miterlimit="10" stroke-linejoin="miter" fill="none" stroke="#000000" d="M 0 0 L 0 14.446 "/>
<text xml:space="preserve" transform="matrix(.67313 0 -0 .67313 -65.18934 541.83657)" font-size="11.9552" font-family="LMRoman12"><tspan y="-749.744" x="433.846 439.70408 445.56214 448.81394 454.672">15,95</tspan></text>
<path transform="matrix(.67313,0,0,-.67313,259.7157,40.078065)" stroke-width=".398" stroke-linecap="butt" stroke-miterlimit="10" stroke-linejoin="miter" fill="none" stroke="#000000" d="M 0 0 L 0 14.446 "/>
<text xml:space="preserve" transform="matrix(.67313 0 -0 .67313 -65.18934 541.83657)" font-size="11.9552" font-family="LMRoman12"><tspan y="-749.744" x="573.805 582.2573 591.0325 594.9299 602.40188 606.9568 612.8148 616.06668">CV-Train</tspan></text>
<path transform="matrix(.67313,0,0,-.67313,415.22489,40.078065)" stroke-width=".398" stroke-linecap="butt" stroke-miterlimit="10" stroke-linejoin="miter" fill="none" stroke="#000000" d="M 0 0 L 0 14.446 "/>
<path transform="matrix(.67313,0,0,-.67313,.31900025,40.212678)" stroke-width=".398" stroke-linecap="butt" stroke-miterlimit="10" stroke-linejoin="miter" fill="none" stroke="#000000" d="M 0 0 L 616.583 0 "/>
<path transform="matrix(.67313,0,0,-.67313,.45294953,50.07068)" stroke-width=".398" stroke-linecap="butt" stroke-miterlimit="10" stroke-linejoin="miter" fill="none" stroke="#000000" d="M 0 0 L 0 14.446 "/>
<text xml:space="preserve" transform="matrix(.67313 0 -0 .67313 -65.18934 541.83657)" font-size="11.9552" font-family="LMRoman12"><tspan y="-734.9" x="103.695 110.19863 116.05668 121.257198 124.50901 130.36707 136.22512 142.08316 150.2127 155.73601 161.91684 167.77489 173.63294 178.83345 184.03397 187.93137 194.1122 197.36402 201.97872 206.53365 210.43105 216.2891 221.48961 226.04454 235.79999 241.65804">&#xfb02;ozi00/wav2vec-xlsr-german</tspan></text>
<text xml:space="preserve" transform="matrix(.67313 0 -0 .67313 -65.18934 541.83657)" font-size="11.9552" font-family="LMMathSymbols10" font-style="italic"><tspan y="-734.9" x="248.13501">&#x2020;</tspan></text>
<path transform="matrix(.67313,0,0,-.67313,211.9235,50.07068)" stroke-width=".398" stroke-linecap="butt" stroke-miterlimit="10" stroke-linejoin="miter" fill="none" stroke="#000000" d="M 0 0 L 0 14.446 "/>
<text xml:space="preserve" transform="matrix(.67313 0 -0 .67313 -65.18934 541.83657)" font-size="11.9552" font-family="LMRoman12"><tspan y="-734.9" x="433.846 439.70408 445.56214 448.81394 454.672">16,38</tspan></text>
<path transform="matrix(.67313,0,0,-.67313,259.7157,50.07068)" stroke-width=".398" stroke-linecap="butt" stroke-miterlimit="10" stroke-linejoin="miter" fill="none" stroke="#000000" d="M 0 0 L 0 14.446 "/>
<text xml:space="preserve" transform="matrix(.67313 0 -0 .67313 -65.18934 541.83657)" font-size="11.9552" font-family="LMRoman12"><tspan y="-734.9" x="573.805 582.2573 591.0325 594.9299 602.40188 606.9568 612.8148 616.06668">CV-Train</tspan></text>
<path transform="matrix(.67313,0,0,-.67313,415.22489,50.07068)" stroke-width=".398" stroke-linecap="butt" stroke-miterlimit="10" stroke-linejoin="miter" fill="none" stroke="#000000" d="M 0 0 L 0 14.446 "/>
<path transform="matrix(.67313,0,0,-.67313,.31900025,50.20462)" stroke-width=".398" stroke-linecap="butt" stroke-miterlimit="10" stroke-linejoin="miter" fill="none" stroke="#000000" d="M 0 0 L 616.583 0 "/>
<path transform="matrix(.67313,0,0,-.67313,.45294953,60.062623)" stroke-width=".398" stroke-linecap="butt" stroke-miterlimit="10" stroke-linejoin="miter" fill="none" stroke="#000000" d="M 0 0 L 0 14.446 "/>
<text xml:space="preserve" transform="matrix(.67313 0 -0 .67313 -65.18934 541.83657)" font-size="11.9552" font-family="LMRoman12"><tspan y="-720.056" x="103.695 107.26961 113.127658 118.32817 123.52869 130.3551 136.53594 142.39398 148.57482 154.43286 162.56241 168.09767 174.2785 180.13655 185.9946 191.18317 196.38368 202.24173 206.13913 209.39095 215.249 219.80393 225.66197 230.86249 234.75989 240.94072 244.19254 248.80724 253.36217 257.25956 263.1176 268.97569 272.87309 278.73115 283.93165 288.48658 298.242 304.10008">facebook/wav2vec2-large-xlsr-53-german</tspan></text>
<text xml:space="preserve" transform="matrix(.67313 0 -0 .67313 -65.18934 541.83657)" font-size="11.9552" font-family="LMMathSymbols10" font-style="italic"><tspan y="-720.056" x="310.567">&#x2020;</tspan></text>
<path transform="matrix(.67313,0,0,-.67313,211.9235,60.062623)" stroke-width=".398" stroke-linecap="butt" stroke-miterlimit="10" stroke-linejoin="miter" fill="none" stroke="#000000" d="M 0 0 L 0 14.446 "/>
<text xml:space="preserve" transform="matrix(.67313 0 -0 .67313 -65.18934 541.83657)" font-size="11.9552" font-family="LMRoman12"><tspan y="-720.056" x="433.846 439.70408 445.56214 448.81394 454.672">18,15</tspan></text>
<path transform="matrix(.67313,0,0,-.67313,259.7157,60.062623)" stroke-width=".398" stroke-linecap="butt" stroke-miterlimit="10" stroke-linejoin="miter" fill="none" stroke="#000000" d="M 0 0 L 0 14.446 "/>
<text xml:space="preserve" transform="matrix(.67313 0 -0 .67313 -65.18934 541.83657)" font-size="11.9552" font-family="LMRoman12"><tspan y="-720.056" x="573.805 582.2573 591.0325 594.9299 602.40188 606.9568 612.8148 616.06668">CV-Train</tspan></text>
<path transform="matrix(.67313,0,0,-.67313,415.22489,60.062623)" stroke-width=".398" stroke-linecap="butt" stroke-miterlimit="10" stroke-linejoin="miter" fill="none" stroke="#000000" d="M 0 0 L 0 14.446 "/>
<path transform="matrix(.67313,0,0,-.67313,.31900025,60.196565)" stroke-width=".398" stroke-linecap="butt" stroke-miterlimit="10" stroke-linejoin="miter" fill="none" stroke="#000000" d="M 0 0 L 616.583 0 "/>
<path transform="matrix(.67313,0,0,-.67313,.45294953,70.054569)" stroke-width=".398" stroke-linecap="butt" stroke-miterlimit="10" stroke-linejoin="miter" fill="none" stroke="#000000" d="M 0 0 L 0 14.446 "/>
<text xml:space="preserve" transform="matrix(.67313 0 -0 .67313 -65.18934 541.83657)" font-size="11.9552" font-family="LMRoman12"><tspan y="-705.212" x="103.695 114.418819 119.61933 126.12296 132.62659 135.8784 144.65352 150.51157 155.12627 159.74097 164.94149 168.1933 174.69693 177.94875 188.67256 194.53061 200.38866 206.89229 212.75034 219.25397 225.11202 234.86746 240.72551 248.85506 254.37836 260.5592 266.41728 272.27534 277.47584 282.67634 288.5344 292.4318 295.6836 301.54167 306.0966 311.95466 317.15516 321.05256 327.2334 330.4852 335.0999 339.65486 343.55226 349.4103 355.26838 359.16578 368.34736 373.54786 378.10279 387.85823 393.71629">MehdiHosseiniMoghadam/wav2vec2-large-xlsr-53-German</tspan></text>
<text xml:space="preserve" transform="matrix(.67313 0 -0 .67313 -65.18934 541.83657)" font-size="11.9552" font-family="LMMathSymbols10" font-style="italic"><tspan y="-705.212" x="400.187">&#x2020;</tspan></text>
<path transform="matrix(.67313,0,0,-.67313,211.9235,70.054569)" stroke-width=".398" stroke-linecap="butt" stroke-miterlimit="10" stroke-linejoin="miter" fill="none" stroke="#000000" d="M 0 0 L 0 14.446 "/>
<text xml:space="preserve" transform="matrix(.67313 0 -0 .67313 -65.18934 541.83657)" font-size="11.9552" font-family="LMRoman12"><tspan y="-705.212" x="433.846 439.70408 445.56214 448.81394 454.672">19,46</tspan></text>
<path transform="matrix(.67313,0,0,-.67313,259.7157,70.054569)" stroke-width=".398" stroke-linecap="butt" stroke-miterlimit="10" stroke-linejoin="miter" fill="none" stroke="#000000" d="M 0 0 L 0 14.446 "/>
<text xml:space="preserve" transform="matrix(.67313 0 -0 .67313 -65.18934 541.83657)" font-size="11.9552" font-family="LMRoman12"><tspan y="-705.212" x="573.805 582.2573 591.0325 594.9299 602.40188 606.9568 612.8148 616.06668">CV-Train</tspan></text>
<path transform="matrix(.67313,0,0,-.67313,415.22489,70.054569)" stroke-width=".398" stroke-linecap="butt" stroke-miterlimit="10" stroke-linejoin="miter" fill="none" stroke="#000000" d="M 0 0 L 0 14.446 "/>
<path transform="matrix(.67313,0,0,-.67313,.31900025,71.637119)" stroke-width=".585" stroke-linecap="butt" stroke-miterlimit="10" stroke-linejoin="miter" fill="none" stroke="#000000" d="M 0 0 L 616.583 0 "/>
<path transform="matrix(.67313,0,0,-.67313,.45294953,83.80997)" stroke-width=".398" stroke-linecap="butt" stroke-miterlimit="10" stroke-linejoin="miter" fill="none" stroke="#000000" d="M 0 0 L 0 14.446 "/>
<text xml:space="preserve" transform="matrix(.67313 0 -0 .67313 -65.18934 541.83657)" font-size="11.9552" font-family="LMRoman12" font-weight="bold"><tspan y="-684.777" x="103.695 113.41458 123.5765 128.05971 140.8159 151.12129 155.60449 165.6349 171.76792 175.88051 182.01352 187.51291 193.64592 201.11792">CV-MD-Referenz</tspan></text>
<text xml:space="preserve" transform="matrix(.67313 0 -0 .67313 -65.18934 541.83657)" font-size="11.9552" font-family="LMMathSymbols10" font-style="italic"><tspan y="-684.777" x="207.093">&#x2020;</tspan></text>
<path transform="matrix(.67313,0,0,-.67313,211.9235,83.80997)" stroke-width=".398" stroke-linecap="butt" stroke-miterlimit="10" stroke-linejoin="miter" fill="none" stroke="#000000" d="M 0 0 L 0 14.446 "/>
<text xml:space="preserve" transform="matrix(.67313 0 -0 .67313 -65.18934 541.83657)" font-size="11.9552" font-family="LMRoman12" font-weight="bold"><tspan y="-684.777" x="431.86 438.59077 445.32154 449.0635 455.79429">19,48</tspan></text>
<path transform="matrix(.67313,0,0,-.67313,259.7157,83.80997)" stroke-width=".398" stroke-linecap="butt" stroke-miterlimit="10" stroke-linejoin="miter" fill="none" stroke="#000000" d="M 0 0 L 0 14.446 "/>
<text xml:space="preserve" transform="matrix(.67313 0 -0 .67313 -65.18934 541.83657)" font-size="11.9552" font-family="LMRoman12" font-weight="bold"><tspan y="-684.777" x="557.988 567.7076 577.8695 582.3527 595.10897 605.4143 609.8975 615.1339 620.6333 627.1728 630.9148">CV-MD-train</tspan></text>
<path transform="matrix(.67313,0,0,-.67313,415.22489,83.80997)" stroke-width=".398" stroke-linecap="butt" stroke-miterlimit="10" stroke-linejoin="miter" fill="none" stroke="#000000" d="M 0 0 L 0 14.446 "/>
<path transform="matrix(.67313,0,0,-.67313,.31900025,83.94391)" stroke-width=".398" stroke-linecap="butt" stroke-miterlimit="10" stroke-linejoin="miter" fill="none" stroke="#000000" d="M 0 0 L 616.583 0 "/>
<path transform="matrix(.67313,0,0,-.67313,.45294953,93.80191)" stroke-width=".398" stroke-linecap="butt" stroke-miterlimit="10" stroke-linejoin="miter" fill="none" stroke="#000000" d="M 0 0 L 0 14.446 "/>
<text xml:space="preserve" transform="matrix(.67313 0 -0 .67313 -65.18934 541.83657)" font-size="11.9552" font-family="LMRoman12" font-weight="bold"><tspan y="-669.933" x="103.695 113.04397 122.39294 134.34813 139.5845 146.91304 152.41243 158.54544 165.64684 173.11884 179.25185 186.72385 192.70145 203.91542 210.45491 215.76302 222.86441 226.60639 232.7394 238.23879 243.47516">TTS(Frequenzmaskiert)</tspan></text>
<text xml:space="preserve" transform="matrix(.67313 0 -0 .67313 -65.18934 541.83657)" font-size="11.9552" font-family="LMMathSymbols10" font-style="italic"><tspan y="-669.933" x="248.685">&#x2020;</tspan></text>
<path transform="matrix(.67313,0,0,-.67313,211.9235,93.80191)" stroke-width=".398" stroke-linecap="butt" stroke-miterlimit="10" stroke-linejoin="miter" fill="none" stroke="#000000" d="M 0 0 L 0 14.446 "/>
<text xml:space="preserve" transform="matrix(.67313 0 -0 .67313 -65.18934 541.83657)" font-size="11.9552" font-family="LMRoman12" font-weight="bold"><tspan y="-669.933" x="431.86 438.59077 445.32154 449.0635 455.79429">19,96</tspan></text>
<path transform="matrix(.67313,0,0,-.67313,259.7157,93.80191)" stroke-width=".398" stroke-linecap="butt" stroke-miterlimit="10" stroke-linejoin="miter" fill="none" stroke="#000000" d="M 0 0 L 0 14.446 "/>
<text xml:space="preserve" transform="matrix(.67313 0 -0 .67313 -65.18934 541.83657)" font-size="11.9552" font-family="LMRoman12" font-weight="bold"><tspan y="-669.933" x="536.619 546.3386 556.50057 560.98379 568.45578 581.212 585.6952 590.9316 596.43099 602.97048 606.71249 618.66769 633.6117 642.96066 652.3096">CV-SM-train+TTS</tspan></text>
<path transform="matrix(.67313,0,0,-.67313,415.22489,93.80191)" stroke-width=".398" stroke-linecap="butt" stroke-miterlimit="10" stroke-linejoin="miter" fill="none" stroke="#000000" d="M 0 0 L 0 14.446 "/>
<path transform="matrix(.67313,0,0,-.67313,.31900025,93.93585)" stroke-width=".398" stroke-linecap="butt" stroke-miterlimit="10" stroke-linejoin="miter" fill="none" stroke="#000000" d="M 0 0 L 616.583 0 "/>
<path transform="matrix(.67313,0,0,-.67313,.45294953,103.79385)" stroke-width=".398" stroke-linecap="butt" stroke-miterlimit="10" stroke-linejoin="miter" fill="none" stroke="#000000" d="M 0 0 L 0 14.446 "/>
<text xml:space="preserve" transform="matrix(.67313 0 -0 .67313 -65.18934 541.83657)" font-size="11.9552" font-family="LMRoman12" font-weight="bold"><tspan y="-655.089" x="103.695 113.41458 123.5765 128.05971 135.53171 148.2879 152.7711 162.80152 168.93453 173.04712 179.18013 184.67952 190.81253 198.28453">CV-SM-Referenz</tspan></text>
<text xml:space="preserve" transform="matrix(.67313 0 -0 .67313 -65.18934 541.83657)" font-size="11.9552" font-family="LMMathSymbols10" font-style="italic"><tspan y="-655.089" x="204.25699">&#x2020;</tspan></text>
<path transform="matrix(.67313,0,0,-.67313,211.9235,103.79385)" stroke-width=".398" stroke-linecap="butt" stroke-miterlimit="10" stroke-linejoin="miter" fill="none" stroke="#000000" d="M 0 0 L 0 14.446 "/>
<text xml:space="preserve" transform="matrix(.67313 0 -0 .67313 -65.18934 541.83657)" font-size="11.9552" font-family="LMRoman12" font-weight="bold"><tspan y="-655.089" x="431.86 438.59077 445.32154 449.0635 455.79429">22,06</tspan></text>
<path transform="matrix(.67313,0,0,-.67313,259.7157,103.79385)" stroke-width=".398" stroke-linecap="butt" stroke-miterlimit="10" stroke-linejoin="miter" fill="none" stroke="#000000" d="M 0 0 L 0 14.446 "/>
<text xml:space="preserve" transform="matrix(.67313 0 -0 .67313 -65.18934 541.83657)" font-size="11.9552" font-family="LMRoman12" font-weight="bold"><tspan y="-655.089" x="559.406 569.1256 579.28756 583.77078 591.24276 603.99899 608.4822 613.71859 619.21798 625.75747 629.49948">CV-SM-train</tspan></text>
<path transform="matrix(.67313,0,0,-.67313,415.22489,103.79385)" stroke-width=".398" stroke-linecap="butt" stroke-miterlimit="10" stroke-linejoin="miter" fill="none" stroke="#000000" d="M 0 0 L 0 14.446 "/>
<path transform="matrix(.67313,0,0,-.67313,.31900025,105.37637)" stroke-width=".585" stroke-linecap="butt" stroke-miterlimit="10" stroke-linejoin="miter" fill="none" stroke="#000000" d="M 0 0 L 616.583 0 "/>
<path transform="matrix(.67313,0,0,-.67313,.45294953,117.549259)" stroke-width=".398" stroke-linecap="butt" stroke-miterlimit="10" stroke-linejoin="miter" fill="none" stroke="#000000" d="M 0 0 L 0 14.446 "/>
<text xml:space="preserve" transform="matrix(.67313 0 -0 .67313 -65.18934 541.83657)" font-size="11.9552" font-family="LMRoman12"><tspan y="-634.654" x="103.695 113.45044 119.30849 123.86342 129.06394 134.26445 137.51627 143.37432 151.50386 157.02716 163.208 169.06604 174.92409 180.1246 185.32512 191.18317 195.08057 198.33238 204.19043 208.74536 214.60341 219.80393 223.70133 229.88216 233.13397 237.74868 242.3036 246.201 252.05905 257.25956 261.81449 271.56993 277.42799 283.9316 287.829 294.33265 299.53315 309.28858">marcel/wav2vec2-large-xlsr-german-demo</tspan></text>
<text xml:space="preserve" transform="matrix(.67313 0 -0 .67313 -65.18934 541.83657)" font-size="11.9552" font-family="LMMathSymbols10" font-style="italic"><tspan y="-634.654" x="315.12">&#x2020;</tspan></text>
<path transform="matrix(.67313,0,0,-.67313,211.9235,117.549259)" stroke-width=".398" stroke-linecap="butt" stroke-miterlimit="10" stroke-linejoin="miter" fill="none" stroke="#000000" d="M 0 0 L 0 14.446 "/>
<text xml:space="preserve" transform="matrix(.67313 0 -0 .67313 -65.18934 541.83657)" font-size="11.9552" font-family="LMRoman12"><tspan y="-634.654" x="433.846 439.70408 445.56214 448.81394 454.672">22,12</tspan></text>
<path transform="matrix(.67313,0,0,-.67313,259.7157,117.549259)" stroke-width=".398" stroke-linecap="butt" stroke-miterlimit="10" stroke-linejoin="miter" fill="none" stroke="#000000" d="M 0 0 L 0 14.446 "/>
<text xml:space="preserve" transform="matrix(.67313 0 -0 .67313 -65.18934 541.83657)" font-size="11.9552" font-family="LMRoman12"><tspan y="-634.654" x="488.855 497.30735 503.1654 512.92086 522.6763 528.5343 534.05758 541.8643 547.72238 550.9742 556.1747 561.3752 565.2726 572.74459 577.2995 583.15756 586.40939 596.81039 601.3653 607.8689 611.1207 615.9984 622.1792 630.63156 636.48959 642.99319 650.4771 656.33517 659.587 662.8388 671.9367 680.8792 686.73727 691.2922 696.4927 702.9963">CommonVoice-Train(nichtaufalleDaten)</tspan></text>
<path transform="matrix(.67313,0,0,-.67313,415.22489,117.549259)" stroke-width=".398" stroke-linecap="butt" stroke-miterlimit="10" stroke-linejoin="miter" fill="none" stroke="#000000" d="M 0 0 L 0 14.446 "/>
<path transform="matrix(.67313,0,0,-.67313,.31900025,117.68323)" stroke-width=".398" stroke-linecap="butt" stroke-miterlimit="10" stroke-linejoin="miter" fill="none" stroke="#000000" d="M 0 0 L 616.583 0 "/>
<path transform="matrix(.67313,0,0,-.67313,.45294953,127.5412)" stroke-width=".398" stroke-linecap="butt" stroke-miterlimit="10" stroke-linejoin="miter" fill="none" stroke="#000000" d="M 0 0 L 0 14.446 "/>
<text xml:space="preserve" transform="matrix(.67313 0 -0 .67313 -65.18934 541.83657)" font-size="11.9552" font-family="LMRoman12"><tspan y="-619.81" x="103.695 110.19863 113.45045 116.70226 121.90278 126.45771 136.21317 140.7681 149.71059 154.9111">Silero(De)</tspan></text>
<text xml:space="preserve" transform="matrix(.67313 0 -0 .67313 -65.18934 541.83657)" font-size="11.9552" font-family="LMMathSymbols10" font-style="italic"><tspan y="-619.81" x="159.459 164.7671">&#x2020;&#x2020;</tspan></text>
<path transform="matrix(.67313,0,0,-.67313,211.9235,127.5412)" stroke-width=".398" stroke-linecap="butt" stroke-miterlimit="10" stroke-linejoin="miter" fill="none" stroke="#000000" d="M 0 0 L 0 14.446 "/>
<text xml:space="preserve" transform="matrix(.67313 0 -0 .67313 -65.18934 541.83657)" font-size="11.9552" font-family="LMRoman12"><tspan y="-619.81" x="433.846 439.70408 445.56214 448.81394 454.672">37,25</tspan></text>
<path transform="matrix(.67313,0,0,-.67313,259.7157,127.5412)" stroke-width=".398" stroke-linecap="butt" stroke-miterlimit="10" stroke-linejoin="miter" fill="none" stroke="#000000" d="M 0 0 L 0 14.446 "/>
<text xml:space="preserve" transform="matrix(.67313 0 -0 .67313 -65.18934 541.83657)" font-size="11.9552" font-family="LMRoman12"><tspan y="-619.81" x="595.264">*</tspan></text>
<path transform="matrix(.67313,0,0,-.67313,415.22489,127.5412)" stroke-width=".398" stroke-linecap="butt" stroke-miterlimit="10" stroke-linejoin="miter" fill="none" stroke="#000000" d="M 0 0 L 0 14.446 "/>
<path transform="matrix(.67313,0,0,-.67313,.31900025,127.67517)" stroke-width=".398" stroke-linecap="butt" stroke-miterlimit="10" stroke-linejoin="miter" fill="none" stroke="#000000" d="M 0 0 L 616.583 0 "/>
<path transform="matrix(.67313,0,0,-.67313,.45294953,137.53314)" stroke-width=".398" stroke-linecap="butt" stroke-miterlimit="10" stroke-linejoin="miter" fill="none" stroke="#000000" d="M 0 0 L 0 14.446 "/>
<text xml:space="preserve" transform="matrix(.67313 0 -0 .67313 -65.18934 541.83657)" font-size="11.9552" font-family="LMRoman12"><tspan y="-604.966" x="103.695 107.26961 113.127658 118.32817 123.52869 130.3551 136.53594 142.39398 148.57482 154.43286 162.56241 168.09767 174.2785 180.13655 185.9946 191.18317 196.38368 202.24173 206.13913 212.64276 218.50081 223.11551 228.31603 232.21343 238.07147 243.92952 250.11035 254.00775 259.8658 265.4011 271.58195 278.40837 284.26643 290.77006 297.27369 300.52549 303.77729 307.67469 311.2493 315.80424 319.70164 326.20527">facebook/wav2vec2-base-10k-voxpopuli-ft-de</tspan></text>
<text xml:space="preserve" transform="matrix(.67313 0 -0 .67313 -65.18934 541.83657)" font-size="11.9552" font-family="LMMathSymbols10" font-style="italic"><tspan y="-604.966" x="331.379">&#x2020;</tspan></text>
<path transform="matrix(.67313,0,0,-.67313,211.9235,137.53314)" stroke-width=".398" stroke-linecap="butt" stroke-miterlimit="10" stroke-linejoin="miter" fill="none" stroke="#000000" d="M 0 0 L 0 14.446 "/>
<text xml:space="preserve" transform="matrix(.67313 0 -0 .67313 -65.18934 541.83657)" font-size="11.9552" font-family="LMRoman12"><tspan y="-604.966" x="433.846 439.70408 445.56214 448.81394 454.672">54,66</tspan></text>
<path transform="matrix(.67313,0,0,-.67313,259.7157,137.53314)" stroke-width=".398" stroke-linecap="butt" stroke-miterlimit="10" stroke-linejoin="miter" fill="none" stroke="#000000" d="M 0 0 L 0 14.446 "/>
<text xml:space="preserve" transform="matrix(.67313 0 -0 .67313 -65.18934 541.83657)" font-size="11.9552" font-family="LMRoman12"><tspan y="-604.966" x="571.936 579.7308 585.266 591.44686 599.0862 604.9442 611.4478 617.9514 621.20327">VoxPopuli</tspan></text>
<path transform="matrix(.67313,0,0,-.67313,415.22489,137.53314)" stroke-width=".398" stroke-linecap="butt" stroke-miterlimit="10" stroke-linejoin="miter" fill="none" stroke="#000000" d="M 0 0 L 0 14.446 "/>
<path transform="matrix(.67313,0,0,-.67313,.31900025,137.66712)" stroke-width=".398" stroke-linecap="butt" stroke-miterlimit="10" stroke-linejoin="miter" fill="none" stroke="#000000" d="M 0 0 L 616.583 0 "/>
<path transform="matrix(.67313,0,0,-.67313,.31900025,139.50208)" stroke-width=".936" stroke-linecap="butt" stroke-miterlimit="10" stroke-linejoin="miter" fill="none" stroke="#000000" d="M 0 0 L 616.583 0 "/>
<text xml:space="preserve" transform="matrix(1 0 -0 1 -97 770)" font-size="11.9552" font-family="LMMathSymbols10" font-style="italic"><tspan y="-619.075" x="131.066">&#x2020;</tspan></text>
<text xml:space="preserve" transform="matrix(1 0 -0 1 -97 770)" font-size="11.9552" font-family="LMRoman12"><tspan y="-619.075" x="136.37999 143.5292 154.58777 160.12303 166.30387 172.16191 179.9567 185.15721 190.35773 200.11318 209.86862 216.04946 222.55309 227.7536 231.00542 238.16658 244.67021 251.17385 257.67747 262.87797 267.4329 270.6847 276.86555 280.11735 286.62098 296.37644 302.2345 306.78944 311.66716 318.17079 321.42259 325.9775 331.178 336.3785 340.93345 347.43708 351.992 361.0899 366.94798 372.14848 377.34898 383.20704 387.76197 394.2656 397.5174 404.02104 413.7765 418.33143 428.08689 431.33869 439.6356 445.4817 450.6822 459.79206 465.65013 471.50819">:Wav2Vec2model,underlyingarchitectureaccordingto[Bae+20]</tspan></text>
<text xml:space="preserve" transform="matrix(1 0 -0 1 -97 770)" font-size="11.9552" font-family="LMMathSymbols10" font-style="italic"><tspan y="-604.629" x="131.066 136.3741">&#x2020;&#x2020;</tspan></text>
<text xml:space="preserve" transform="matrix(1 0 -0 1 -97 770)" font-size="11.9552" font-family="LMRoman12"><tspan y="-604.629" x="141.693 148.84221 153.39714 159.90077 164.4557 169.65622 173.55362 178.10855 182.66349 188.52153 191.77335 198.27698 203.4775 209.98113 213.87853 218.43346 229.15727 235.3381 241.84174 247.04225 250.29407 257.45524 263.63609 273.71434 276.96614 284.43815 289.63865 295.4967 301.35478 307.21284">:(pre-trained-)Modellby[Tea21]</tspan></text>
<text xml:space="preserve" transform="matrix(1 0 -0 1 -97 770)" font-size="11.9552" font-family="LMRoman12" font-style="italic"><tspan y="-590.18307" x="131.066">*</tspan></text>
<text xml:space="preserve" transform="matrix(1 0 -0 1 -97 770)" font-size="11.9552" font-family="LMRoman12"><tspan y="-590.18307" x="138.25499 145.4042 151.90784 161.67523 164.92705 171.43068 175.00528 180.86333 185.41826 195.1737 201.03176 205.58669 208.8385 214.69655 225.09758 231.60121 236.15615 241.6914 247.87224 251.12406 257.6277 262.8282 273.22923 279.41007 289.4883 294.04325 300.54689 309.65675 316.16038 321.36088 327.20698 332.40748 335.65928 341.51734 348.34376 353.54426 358.09919">:noinformationprovidedbythedevelopers</tspan></text>
</g>
</g>
</svg>
