<?xml version="1.0" encoding="UTF-8" standalone="no"?>
<!DOCTYPE svg PUBLIC "-//W3C//DTD SVG 1.1//EN" "http://www.w3.org/Graphics/SVG/1.1/DTD/svg11.dtd">
<svg xmlns="http://www.w3.org/2000/svg" xmlns:xlink="http://www.w3.org/1999/xlink" version="1.1" width="595.276pt" height="841.89pt" viewBox="0 0 595.276 841.89">
<g enable-background="new">
<text xml:space="preserve" transform="matrix(1 0 -0 1 0 841.89)" font-size="14.3462" font-family="LMRoman12" font-weight="bold"><tspan y="-754.312" x="86.4 96.09804 100.5884 106.87204 114.23164 120.830898 128.67827 134.9619 143.92827">Literatur</tspan></text>
<text xml:space="preserve" transform="matrix(1 0 -0 1 0 841.89)" font-size="11.9552" font-family="LMRoman12"><tspan y="-719.67306" x="86.4 89.65182 98.42693 108.18237 114.04042 123.15028 129.00833 134.86638">[Amo+15]</tspan></text>
<text xml:space="preserve" transform="matrix(1 0 -0 1 0 841.89)" font-size="11.9552" font-family="LMRoman12"><tspan y="-719.67306" x="149.82234 158.76483 164.62288 169.17781 172.42963 182.3883 191.16342 200.91887 207.0997 213.60334 218.80385 222.05567 229.40811 238.02782 241.27964 245.89434 252.39797 255.64978 260.2047 270.16343 278.93855 285.1194 291.62303 298.12666 304.63029 310.48835 313.74015 321.0926 329.05476 333.60969 336.86149 346.16264 354.44758 360.30564 364.86058 369.4155 374.616 380.79685 387.62327 392.82377 397.3787 403.23677 410.5892 419.04154 424.8996 429.45454 436.80699 445.2593 451.11738 455.7321 460.9326 468.28504 474.2985 480.15657 484.7115 489.912 500.51628 508.9686 514.82669 519.44137">DarioAmodei,RishitaAnubhai,EricBattenberg,CarlCase,JaredCas-</tspan><tspan y="-701.74606" x="149.804 156.63042 161.83094 166.38587 173.22425 181.5092 186.06414 191.92218 197.78023 207.85846 216.31079 222.16884 226.72377 232.58182 239.08545 244.28597 250.14402 254.69895 260.557 267.39537 273.4088 276.6606 283.16426 289.0223 295.52595 301.384 307.88764 317.33226 325.78459 332.2882 337.4887 343.99235 350.8307 361.5545 364.8063 370.6524 379.43946 387.89179 394.39543 398.95036 404.15086 410.0089 416.51255 422.04783 430.50016 435.11488 441.29573 444.54753 451.38587 459.82624 466.32987 472.18794 485.5299 493.98225 499.8403 505.69837 510.2533 515.4538 520.0685">per,BryanCatanzaro,JingdongChen,MikeChrzanowski,AdamCoates,</tspan><tspan y="-683.81906" x="149.804 158.9856 163.54053 168.74105 178.80733 187.74982 191.00164 196.85968 206.61513 212.47318 217.08788 224.53597 232.49813 237.05306 240.30487 245.1826 255.89447 263.85664 267.10844 271.72315 276.92366 283.42729 290.87538 296.88883 302.08934 306.70405 311.31877 320.72749 328.68965 335.19328 341.05134 346.25184 349.50364 356.95173 364.2683 367.5201 374.02375 380.2046 387.6646 394.32368 400.18174 406.68537 414.1454 422.59773 429.10136 433.65629 436.90809 441.5228 446.07774 451.9358 458.43943 464.94306 470.14356 478.89479 485.56578 491.42384 497.92747 503.78553 510.28916 515.4897 520.0446">GregDiamos,ErichElsen,JesseEngel,LinxiFan,ChristopherFougner,</tspan><tspan y="-665.89108" x="149.804 157.276 163.13405 169.3149 179.99088 188.76599 194.62404 201.12767 208.87464 216.66942 225.12175 231.62538 239.37235 248.14746 254.00551 260.50914 266.68998 273.1936 279.69725 287.43226 295.7172 298.969 302.2208 305.4726 316.1486 322.16206 328.66569 335.1693 342.91627 350.55564 356.4137 360.96864 365.52357 368.77537 373.65309 384.31715 391.63374 396.83424 406.0158 410.57075 415.77125 420.38597 423.63777 428.83827 434.05073 441.79768 449.11427 452.36607 458.8697 465.03858 475.71458 483.03117 486.28297 492.7866 500.53355 507.03718 513.5408 519.3988">TonyHan,AwniHannun,BillyJun,PatrickLeGresley,LibbyLin,Sha-</tspan><tspan y="-647.96408" x="149.804 154.35894 160.21698 170.46259 179.2377 185.09575 189.65068 195.50873 202.01236 207.8704 214.8642 223.63932 230.14295 236.64658 241.2015 246.40203 258.59635 267.37147 273.22953 280.2233 286.72694 293.23057 298.43107 302.986 306.5606 309.8124 316.80619 325.91606 331.11656 336.9746 340.2264 344.78135 351.77513 360.07203 365.93009 371.78816 382.03376 389.9959 394.55085 399.75135 406.25498 412.11305 417.31355 421.86848 428.86225 434.8757 440.73377 447.2374 453.09547 457.6504 464.15403 470.0121 480.2577 488.87739 494.73545 497.98725 507.74269 513.6007 520.1043">ranNarang,AndrewNg,SherjilOzair,RyanPrenger,JonathanRaiman,</tspan><tspan y="-630.03707" x="149.804 156.30764 162.16568 168.66931 172.24391 177.44443 182.64495 193.04596 199.54959 205.40764 209.96257 216.4662 221.66672 226.86724 231.48194 237.98557 245.45757 254.40006 259.93534 266.11619 269.36799 280.0918 286.59544 291.79594 296.99644 301.55137 307.40943 313.91307 320.4167 326.92033 334.3923 340.89595 347.07679 353.5804 360.08406 366.58769 376.66593 383.16957 388.37007 394.8737 400.73176 407.23539 413.739 418.29396 424.152 431.624 440.3991 447.8711 458.9177 464.77577 471.2794 477.13746 484.6214 491.7706 498.27424 501.52604 507.69493 510.94673 516.80477">SanjeevSatheesh,DavidSeetapun,ShubhoSengupta,YiWang,Zhiqian</tspan><tspan y="-612.11007" x="149.804 160.8506 166.70865 173.21228 179.07033 187.17595 195.62828 202.13191 207.98996 214.49359 225.1935 236.25206 242.1101 248.61374 254.47179 262.56547 270.86238 281.5623 290.3374 293.5892 299.44728 305.30534 313.41096 322.35346 328.21153 334.71516 342.8088 350.6036 356.46168 362.31974 368.1778 372.73274 378.5908 388.34623 394.20429 402.3099 408.32337 414.827 426.18446 433.33366 439.83729 445.68339 457.04084 462.8989 469.40254 480.74803 487.89723 494.40086 499.60136 505.7822 511.64027 517.4983">Wang,ChongWang,BoXiao,DaniYogatama,JunZhanandZhenyao</tspan><tspan y="-594.18307" x="149.804 156.95322 163.13407 169.6377">Zhu.</tspan></text>
<text xml:space="preserve" transform="matrix(1 0 -0 1 0 841.89)" font-size="11.9552" font-family="LMRoman12" font-style="italic"><tspan y="-594.18307" x="176.55301 185.37595 190.15802 195.53786 205.47263 212.04799 217.42783 222.2099 226.99198 232.37181 242.31855 248.29615 255.83988 263.76618 270.34153 276.31913 280.50346 284.3889 290.3665 294.5508 302.4771 309.05247 318.99919 325.57453 330.95439 335.73649 340.5186 345.89845 355.83323 363.75953 368.54164 373.32374 378.70359 384.08345 390.65879 394.24534 398.13078 401.71733 407.69493 418.23939 421.82594 432.35847 440.28477 446.8601 452.23997 455.22877 458.8153 463.59739 473.5441 479.5217 486.09706 496.03184 506.51655 512.49417 519.0695">DeepSpeech2:End-to-EndSpeechRecognitioninEnglishandMan-</tspan><tspan y="-576.25509" x="149.80402 155.78162 161.75922 166.69672 170.28328">darin</tspan></text>
<text xml:space="preserve" transform="matrix(1 0 -0 1 0 841.89)" font-size="11.9552" font-family="LMRoman12"><tspan y="-576.25509" x="176.85202 184.00124 189.85929 195.71733 201.57538 207.43343 214.59459 220.45264 225.00757 233.78269 237.0345 243.21533">.2015.arXiv:</tspan></text>
<text xml:space="preserve" transform="matrix(1 0 -0 1 0 841.89)" font-size="11.9552" font-family="LMMono12"><tspan y="-576.25509" x="250.33603 256.49296 262.64988 268.8068 274.9637 281.12065 287.27757 293.43449 299.5914 305.73637 315.79069 321.9476 328.10453 334.26145 340.41838 346.5753 352.7322">1512.02595[cs.CL]</tspan></text>
<text xml:space="preserve" transform="matrix(1 0 -0 1 0 841.89)" font-size="11.9552" font-family="LMRoman12"><tspan y="-576.25509" x="358.81404">.</tspan></text>
<text xml:space="preserve" transform="matrix(1 0 -0 1 0 841.89)" font-size="11.9552" font-family="LMRoman12"><tspan y="-553.56008" x="86.400028 89.65184 98.426959 105.576168 111.43421 117.29226">[AZ19]</tspan></text>
<text xml:space="preserve" transform="matrix(1 0 -0 1 0 841.89)" font-size="11.9552" font-family="LMRoman12"><tspan y="-553.56008" x="149.81041 158.58553 164.44358 169.05828 175.5619 178.81372 183.42842 194.17615 202.95127 208.80931 214.66736 219.22229 227.35184 233.20989 240.71776 246.5758 253.07944 263.82719 271.2992 277.15727 281.7122 286.3269 290.88185 296.08235 306.842 313.9912 319.1917 323.80644 328.68415 335.18778 342.6837 348.207 357.38859 362.58909 367.144 376.89945 382.7575 393.51719 401.47935 407.98298 414.4866 418.384 422.93894 428.797 432.6944 437.8949 444.39854 455.14628 461.6499 468.47633 473.67683 478.87733 483.75505 494.50279 503.12248 508.32298 513.5235 519.38156">AashishAgarwalandTorstenZesch.&#x201e;GermanEnd-to-endSpeechReco-</tspan><tspan y="-535.6321" x="149.80402 155.66207 162.1657 165.41751 169.97245 173.22426 179.0823 189.48334 195.98697 201.84502 206.45972 211.66024 222.07321 227.93126 238.33229 247.27478 252.4753 257.6758 264.17945 270.68309 277.5095 282.71 287.9105 292.7882 299.29185 304.81517 311.96437 316.18455 322.68818">gnitionbasedonDeepSpeech&#x201c;.In:</tspan></text>
<text xml:space="preserve" transform="matrix(1 0 -0 1 0 841.89)" font-size="11.9552" font-family="LMRoman12" font-style="italic"><tspan y="-535.6321" x="329.83503 338.22758 347.19398 355.8854 364.57685 372.50315 381.19459">KONVENS</tspan></text>
<text xml:space="preserve" transform="matrix(1 0 -0 1 0 841.89)" font-size="11.9552" font-family="LMRoman12"><tspan y="-535.6321" x="387.76704 394.91624 400.7743 406.63236 412.49043 418.34849">.2019.</tspan></text>
<text xml:space="preserve" transform="matrix(1 0 -0 1 0 841.89)" font-size="11.9552" font-family="LMRoman12"><tspan y="-512.9371" x="86.400028 89.65184 97.9368 103.794849 108.99536 118.105228 123.96327 129.82132">[Bae+20]</tspan></text>
<text xml:space="preserve" transform="matrix(1 0 -0 1 0 841.89)" font-size="11.9552" font-family="LMRoman12"><tspan y="-512.9371" x="149.81043 158.58554 161.83736 167.03787 173.2187 178.41922 186.0586 194.34355 200.2016 205.40212 211.58295 216.19765 222.37848 225.6303 233.26967 242.04479 247.2453 253.74893 258.30387 268.87229 276.02149 282.52513 288.38319 294.8868 302.52619 311.3013 318.12773 324.63136 329.83186 333.08366 337.63859 343.49665 350.00028 359.7557 365.61378 376.50498 387.2288 393.08686 399.59049 405.44856 415.20399 420.40449 431.2957 437.15376 443.65739 454.54859 465.2724 468.5242 473.40193 479.90556 485.75166 490.95216 498.59153 507.04386 513.5475 516.7993 520.05117">AlexeiBaevski,HenryZhou,AbdelrahmanMohamedandMichaelAuli.</tspan></text>
<text xml:space="preserve" transform="matrix(1 0 -0 1 0 841.89)" font-size="11.9552" font-family="LMRoman12" font-style="italic"><tspan y="-495.01008" x="149.80402 157.57489 163.55249 168.93233 174.90993 180.28977 185.07184 194.73165 200.70925 204.2958 210.2734 218.13994 231.11135 237.84212 242.18186 248.15946 257.7236 263.10346 270.87434 276.85194 281.78944 291.44926 295.0358 301.0134 310.23088 316.8062 322.18608 325.17488 328.7614 332.94575 339.5211 345.79759 351.17744 356.55729 361.49479 366.87464 370.46119 375.24327 380.02537 390.28294 397.01374 401.79585 407.77345 412.71095 419.2863 422.87284 429.44819 439.108 445.0856 452.95213 459.52748 464.90733 469.68943 474.47154 479.85139 490.10896 498.03526 503.4151 509.3927 513.7324 519.11227">wav2vec2.0:AFrameworkforSelf-SupervisedLearningofSpeechRepre-</tspan><tspan y="-477.08207" x="149.80402 154.58609 159.96593 166.54129 170.42673 176.40433 180.28977 183.87633 189.85393 196.42929">sentations</tspan></text>
<text xml:space="preserve" transform="matrix(1 0 -0 1 0 841.89)" font-size="11.9552" font-family="LMRoman12"><tspan y="-477.08207" x="201.21102 208.36023 214.21828 220.07633 225.93437 231.79242 238.95359 244.81163 249.36656 258.1417 261.3935 267.57435">.2020.arXiv:</tspan></text>
<text xml:space="preserve" transform="matrix(1 0 -0 1 0 841.89)" font-size="11.9552" font-family="LMMono12"><tspan y="-477.08207" x="274.695 280.85194 287.00886 293.16578 299.31074 305.46766 311.62458 317.7815 323.93843 330.09535 340.14967 346.30659 352.4635 358.62043 364.77735 370.93428 377.0912">2006.11477[cs.CL]</tspan></text>
<text xml:space="preserve" transform="matrix(1 0 -0 1 0 841.89)" font-size="11.9552" font-family="LMRoman12"><tspan y="-477.08207" x="383.173">.</tspan></text>
<text xml:space="preserve" transform="matrix(1 0 -0 1 0 841.89)" font-size="11.9552" font-family="LMRoman12"><tspan y="-454.38706" x="86.399997 89.65181 98.833408 104.69145 107.94327 117.05313 122.91118 128.76923">[Gai+14]</tspan></text>
<text xml:space="preserve" transform="matrix(1 0 -0 1 0 841.89)" font-size="11.9552" font-family="LMRoman12"><tspan y="-454.38706" x="149.82234 158.27468 165.22064 174.40224 180.26029 183.5121 190.01573 195.87378 202.8078 209.80159 216.74756 224.0522 229.91025 236.41388 242.27193 247.47245 254.41841 263.03813 266.28993 271.49043 281.04264 288.682 293.8825 298.43745 302.99238 306.24418 311.10993 317.29078 324.23674 331.21858 338.16453 346.12669 350.6816 356.53968 363.0433 368.90138 375.84733 384.62245 391.12608 400.8815 406.082 416.2798 427.0036 432.86167 436.11347 441.97154 446.52647 452.04978 460.5021 470.3771 476.23518 482.7388 492.93659 501.8791 507.41438 513.5952 516.84707">C.Gaida,P.Lange,RicoPetrick,P.Proba,AhmedMalatawyandDavid</tspan><tspan y="-436.45906" x="149.80399 156.30762 162.81125 168.01177 174.5154 181.01903 186.21955 190.77448 200.52993 206.38797 212.8916 219.39524 223.29264 232.4025 237.60301 241.17761 245.73255 253.87404 259.39735 267.84968 273.69578 283.4512 289.95484 295.8129 300.36784 303.61964 310.12327 320.871 329.98088 336.80729 342.00779 348.5114 352.4088 358.91246 364.7705 371.27415 375.82908 381.02958 391.1078 397.61143 404.43785 409.63835 414.83885 419.71656 431.0979 439.7176 444.9181 450.1186 455.97666 461.83473 468.33836 471.59016 476.14509 479.39689 485.25495 496.6363 504.12025 510.3011 516.1591 519.41098">Suendermann-Oeft.&#x201e;ComparingOpen-SourceSpeechRecognitionTool-</tspan><tspan y="-418.53205" x="149.80399 155.98482 159.23664 163.79157 168.40627 173.92957 181.07878 185.29897 191.8026 198.96376 204.82181 210.67986 216.5379 222.39595">kits&#x201c;.In:2014.</tspan></text>
<text xml:space="preserve" transform="matrix(1 0 -0 1 0 841.89)" font-size="11.9552" font-family="LMRoman12"><tspan y="-395.83705" x="86.39999 89.6518 98.74971 104.60776 111.11139 120.22125 126.0793 131.93735">[Kah+19]</tspan></text>
<text xml:space="preserve" transform="matrix(1 0 -0 1 0 841.89)" font-size="11.9552" font-family="LMRoman12"><tspan y="-395.83705" x="149.82233 155.83579 161.69384 166.89435 172.7524 184.05007 193.14798 199.00603 205.50966 212.01329 220.07109 230.7949 236.65296 241.20789 247.06594 252.92398 259.4276 269.42216 278.04185 281.29365 287.4745 290.7263 295.9268 300.48173 305.68223 313.74003 324.78666 329.98716 333.23896 339.4198 347.4776 354.6268 361.13044 366.33094 372.83457 378.69264 386.73847 394.70063 401.20426 407.06233 412.26283 418.76646 428.77296 437.87086 444.37449 450.23255 454.78749 458.03929 462.5942 468.45228 474.9559 480.47923 486.66007 494.71788 503.82774 507.07954 512.93759 519.44119">JacobKahn,MorganeRivi&#x00e8;re,WeiyiZheng,EugeneKharitonov,Qian-</tspan><tspan y="-377.90904" x="149.80399 154.35892 160.21697 166.7206 176.08152 184.85663 191.36026 198.11495 206.0771 209.32892 214.52944 219.08437 223.6393 228.83982 232.73722 240.69937 250.45482 260.21028 266.06834 272.24919 278.7528 283.9533 290.70799 301.4318 307.28987 312.49037 318.34843 322.90336 328.10386 334.85853 340.87199 347.3756 350.6274 353.8792 359.0797 369.0862 378.1841 384.04219 388.5971 394.45518 400.9588 406.48213 412.66297 415.91477 422.66944 431.44456 434.69636 439.25129 445.10935 448.36116 451.61296 461.29667 468.61326 471.86506 478.36869 482.9236 487.80134 494.30497 497.55677 504.0604 508.6751 514.85598 520.05648">tongXu,Pierre-EmmanuelMazar&#x00e9;,JulienKaradayi,VitaliyLiptchinsky,</tspan><tspan y="-359.98204" x="149.80399 158.42369 164.28174 170.78537 176.64342 186.61406 195.06639 200.92444 204.17626 207.42807 213.28612 220.11254 225.31305 229.86798 234.42292 241.14174 249.59407 256.0977 260.65263 263.90443 268.51914 273.07408 276.32588 282.18394 292.15458 298.81364 305.31727 310.51777 316.37583 321.57633 328.07997 334.79878 342.27079 348.12886 352.68379 355.93559 361.79365 368.29728 377.62236 384.93894 388.19075 394.37159 400.8752 406.73329 416.4887 422.34678 428.8504 434.0509 440.55455 446.4126 452.27067 458.98948 468.17106 474.0291 480.53276 485.08769 488.33949 493.53999 500.2588 506.76243 512.9313 519.4349">RonanCollobert,ChristianFuegen,TatianaLikhomanenko,GabrielSyn-</tspan><tspan y="-342.05503" x="149.80399 156.30762 162.16567 167.36618 173.22423 178.42475 185.62178 194.3969 198.95183 208.70728 214.56533 221.06896 231.52976 237.54322 243.40126 249.90489 253.15671 256.4085 262.91215 270.10917 278.88429 285.72267 292.2263 297.4268 300.6786 305.23353 311.09159 317.5952 327.35066 333.2087 343.65757 354.38139 360.23945 366.74308 372.60115 382.35658 387.55708 398.01789 403.87596 410.37959 420.82844 428.7906 438.54603 448.30146 454.15953 460.34037 466.844 472.0445 479.25349 488.19599 494.69963 501.52604 507.3841 513.8877 520.06857">naeve,ArmandJoulin,AbdelrahmanMohamedandEmmanuelDupoux.</tspan></text>
<text xml:space="preserve" transform="matrix(1 0 -0 1 0 841.89)" font-size="11.9552" font-family="LMRoman12" font-style="italic"><tspan y="-324.12803" x="149.80399 157.13253 160.71909 166.09893 171.03643 174.62299 178.80731 186.13585 189.72241 195.10225 201.07985 204.96529 212.64054 225.40869 233.63387 239.0137 245.58907 250.9689 256.9465 266.51066 272.48826 277.42576 286.8943 290.48085 296.45845 305.48463 314.17607 320.7514 333.35218 341.12306 344.7096 348.59504 358.66133 365.98988 369.57643 379.14057 382.7271 386.61256 391.39466 401.46095 407.43855 416.45277 425.1442 435.21049 441.78584 448.06233 453.44218 458.82203 463.75953 469.13938 472.72593 477.508 481.09455 487.07215">Libri-Light:ABenchmarkforASRwithLimitedorNoSupervision</tspan></text>
<text xml:space="preserve" transform="matrix(1 0 -0 1 0 841.89)" font-size="11.9552" font-family="LMRoman12"><tspan y="-324.12803" x="493.633 500.6746 509.61708 514.81759 520.01809">.Dez.</tspan><tspan y="-306.2" x="149.80399 155.66204 161.52008 167.37813 173.23618">2019.</tspan></text>
<text xml:space="preserve" transform="matrix(1 0 -0 1 0 841.89)" font-size="11.9552" font-family="LMRoman12"><tspan y="-283.505" x="86.39999 89.6518 100.37562 109.473529 115.33157 121.18962">[MK18]</tspan></text>
<text xml:space="preserve" transform="matrix(1 0 -0 1 0 841.89)" font-size="11.9552" font-family="LMRoman12"><tspan y="-283.505" x="149.81038 158.09534 163.29586 169.79949 173.37409 179.23213 188.98758 192.2394 202.28177 213.00559 216.2574 219.50922 226.01285 234.7521 240.61016 247.11379 257.15617 265.93128 270.47425 276.97789 285.7171 294.49223 300.35029 306.8539 313.35755">BenjaminMildeandArneK&#x00f6;hn.</tspan></text>
<text xml:space="preserve" transform="matrix(1 0 -0 1 0 841.89)" font-size="11.9552" font-family="LMRoman12" font-style="italic"><tspan y="-283.505" x="320.149 329.1154 334.49525 339.8751 350.30003 356.87538 362.85298 369.12947 373.4692 378.2513 387.48075 395.57444 401.85093 405.73637 411.71397 421.2781 427.2557 431.14115 434.7277 443.95713 450.53248 455.91233 460.69444 465.47654 470.85639 480.68357 488.60987 493.39198 498.17408 503.55393 508.93379 515.50918 519.0957">OpenSourceAutomaticSpeechRecogni-</tspan><tspan y="-265.578" x="149.80399 153.68943 157.27599 163.25359 174.01328 177.59984 183.57744 192.69927 201.74936 207.1292 212.0667 221.63086 227.60846">tionforGerman</tspan></text>
<text xml:space="preserve" transform="matrix(1 0 -0 1 0 841.89)" font-size="11.9552" font-family="LMRoman12"><tspan y="-265.578" x="234.16799 241.3172 247.17525 253.0333 258.89137 264.74943 271.91059 277.76866 282.32359 291.0987 294.3505 300.53135">.2018.arXiv:</tspan></text>
<text xml:space="preserve" transform="matrix(1 0 -0 1 0 841.89)" font-size="11.9552" font-family="LMMono12"><tspan y="-265.578" x="307.65199 313.8089 319.96583 326.12275 332.27967 338.43659 344.5935 350.75044 356.90736 363.06428 373.1186 379.2755 385.43244 391.58937 397.74629 403.9032 410.06013">1807.10311[cs.CL]</tspan></text>
<text xml:space="preserve" transform="matrix(1 0 -0 1 0 841.89)" font-size="11.9552" font-family="LMRoman12"><tspan y="-265.578" x="416.13697">.</tspan></text>
<text xml:space="preserve" transform="matrix(1 0 -0 1 0 841.89)" font-size="11.9552" font-family="LMRoman12"><tspan y="-242.882" x="86.39996 89.65178 100.375598 106.23364 111.43416 117.292209 123.15025">[Moz21]</tspan></text>
<text xml:space="preserve" transform="matrix(1 0 -0 1 0 841.89)" font-size="11.9552" font-family="LMRoman12"><tspan y="-242.882" x="149.81035 160.53417 166.39221 171.59273 174.84455 178.09636 181.34818 187.20623">Mozilla.</tspan></text>
<text xml:space="preserve" transform="matrix(1 0 -0 1 0 841.89)" font-size="11.9552" font-family="LMRoman12" font-style="italic"><tspan y="-242.882" x="194.81497 203.18361 209.16121 218.72537 228.28954 234.26714 245.4572 253.252 259.2296 262.81617 267.59828 277.58088 282.96073 293.25416 303.73887 309.71647 314.49855 318.08509 321.97053 324.95933">CommonVoicebyMozilla</tspan></text>
<text xml:space="preserve" transform="matrix(1 0 -0 1 0 841.89)" font-size="11.9552" font-family="LMRoman12"><tspan y="-242.882" x="330.93098 338.54643 344.40449 350.26255 356.1206 361.97868">.2021.</tspan></text>
<text xml:space="preserve" transform="matrix(1 0 -0 1 0 841.89)" font-size="11.9552" font-family="LMRomanCaps10"><tspan y="-242.882" x="369.58299 376.91154 384.10856">url</tspan></text>
<text xml:space="preserve" transform="matrix(1 0 -0 1 0 841.89)" font-size="11.9552" font-family="LMRoman12"><tspan y="-242.882" x="390.25099">:</tspan></text>
<text xml:space="preserve" transform="matrix(1 0 -0 1 0 841.89)" font-size="11.9552" font-family="LMMono12"><tspan y="-242.882" x="397.87098 404.0279 410.1848 416.34175 422.49867 429.12184 435.75697 442.3921 449.01527 455.17219 461.3291 467.48603 473.64295 479.79988 485.9568 492.1137 498.27064 504.42756 510.58448 517.2196">https://commonvoice.</tspan><tspan y="-224.955" x="149.80397 155.96089 162.11782 168.27474 174.43166 180.58858 186.7455 192.90242 199.05934 205.21627 211.37319 217.5301 223.68703 229.84395 236.00087 242.15779 248.31472 254.47164 260.62858 266.7855 272.9424 279.09934 285.25627">mozilla.org/en/datasets</tspan></text>
<text xml:space="preserve" transform="matrix(1 0 -0 1 0 841.89)" font-size="11.9552" font-family="LMRoman12"><tspan y="-224.955" x="291.29798">.</tspan></text>
<text xml:space="preserve" transform="matrix(1 0 -0 1 0 841.89)" font-size="11.9552" font-family="LMRoman12"><tspan y="-202.259" x="86.39998 89.651798 97.29117 103.149219 107.70415 116.81401 122.67206 128.5301">[Par+19]</tspan></text>
<text xml:space="preserve" transform="matrix(1 0 -0 1 0 841.89)" font-size="11.9552" font-family="LMRoman12"><tspan y="-202.259" x="149.82233 158.76482 164.62287 171.1265 174.37831 179.57883 188.5811 195.08473 204.07505 211.71442 217.57247 222.1274 228.30823 237.3105 249.33744 252.58925 255.84107 259.09288 262.34468 268.20274 283.70863 292.16096 298.66459 304.52265 311.02629 320.02854 327.82334 340.06547 347.21467 353.7183 359.57637 366.08 371.93806 380.9403 389.39265 395.5735 402.07713 408.58076 414.4388 418.3362 426.78855 433.29219 438.49269 444.9963 456.60484 465.0452 471.54884 474.80064 481.30427 490.30653 498.59147 504.44953 509.00447 513.5594 518.7599">DanielS.Park,WilliamChan,YuZhang,Chung-ChengChiu,Barret</tspan><tspan y="-184.332" x="149.80399 156.9532 162.81125 169.31488 175.81851 183.87631 191.83847 198.0193 201.27112 212.58074 221.52323 229.58103 238.03336 244.53699 251.04062 257.54426 268.5311 274.38917 280.8928 292.20243 301.3123 307.81593 313.99678 324.00328 332.77839 340.8481 348.1647 353.35325 361.42298 366.9463 373.44993 380.27635 385.47685 390.67735 399.12968 405.6333 411.49137 421.2468 426.4473 432.62815 437.18309 445.24089 458.822 465.32563 468.57743 478.33287 484.8365 488.0883 498.0948 507.0373 512.8953 517.45028">Zoph,EkinD.CubukandQuocV.Le.&#x201e;SpecAugment:ASimpleData</tspan><tspan y="-166.405" x="149.80399 158.25632 164.75995 170.618 180.37345 185.57396 191.7548 196.30974 202.15584 206.71077 209.96259 215.82064 226.41295 237.13677 242.33728 246.89221 253.39585 259.5767 270.169 273.74363 279.60169 288.2453 296.69764 303.20127 307.7562 313.61427 323.3697 329.22776 333.77073 337.02253 346.3117 352.81535 359.64176 364.84226 370.04277 374.92048 385.5128 394.13249 399.33299 404.53349 410.39155 416.2496 422.75325 426.00505 430.55998 433.81178 439.66984 446.17347 451.69679 459.0253 463.24549 469.7491">AugmentationMethodforAutomaticSpeechRecognition&#x201c;.In:</tspan></text>
<text xml:space="preserve" transform="matrix(1 0 -0 1 0 841.89)" font-size="11.9552" font-family="LMRoman12" font-style="italic"><tspan y="-166.405" x="477.04499 484.97129 489.31105 494.6909 500.07075 508.00898 512.5161 519.0915">Proc.In-</tspan><tspan y="-148.477" x="149.80399 153.68943 159.06926 164.00676 168.78884 174.16867 178.95075 183.73282 189.11266 199.4539 205.4315 211.4091 217.3867">terspeech2019</tspan></text>
<text xml:space="preserve" transform="matrix(1 0 -0 1 0 841.89)" font-size="11.9552" font-family="LMRoman12"><tspan y="-148.477" x="223.36199 230.71443 236.57248 242.43053 248.28858 254.14662 261.49909 268.00273 275.35517 281.21324 287.0713 292.92936 298.7874 304.64549 310.50355 316.3616 322.21968 328.07774">.2019,S.2613&#x2013;2617.</tspan></text>
<text xml:space="preserve" transform="matrix(1 0 -0 1 0 841.89)" font-size="11.9552" font-family="LMRomanCaps10"><tspan y="-148.477" x="335.374 342.83406 350.43757">doi</tspan></text>
<text xml:space="preserve" transform="matrix(1 0 -0 1 0 841.89)" font-size="11.9552" font-family="LMRoman12"><tspan y="-148.477" x="354.05">:</tspan></text>
<text xml:space="preserve" transform="matrix(1 0 -0 1 0 841.89)" font-size="11.9552" font-family="LMMono12"><tspan y="-148.477" x="361.405 367.56193 373.9221 380.28227 386.43919 392.5961 398.75303 404.90995 411.2701 417.63029 423.7872 429.94413 436.10105 442.25798 448.4149 454.5718 460.72874 466.88566 473.04258 479.1995 485.55967 491.91984 498.07676 504.23368 510.3906 516.73886">10.21437/Interspeech.2019-</tspan><tspan y="-130.55" x="149.804 155.96092 162.1059 168.26282">2680</tspan></text>
<text xml:space="preserve" transform="matrix(1 0 -0 1 0 841.89)" font-size="11.9552" font-family="LMRoman12"><tspan y="-130.55" x="174.405">.</tspan></text>
<text xml:space="preserve" transform="matrix(1 0 -0 1 0 841.89)" font-size="11.9552" font-family="LMRomanCaps10"><tspan y="-130.55" x="181.558 188.88654 196.08358">url</tspan></text>
<text xml:space="preserve" transform="matrix(1 0 -0 1 0 841.89)" font-size="11.9552" font-family="LMRoman12"><tspan y="-130.55" x="202.227">:</tspan></text>
<text xml:space="preserve" transform="matrix(1 0 -0 1 0 841.89)" font-size="11.9552" font-family="LMMono12"><tspan y="-130.55" x="209.38101 215.53794 221.69486 227.85178 234.0087 240.16562 246.32254 252.47946 258.63639 264.7933 270.95024 277.10716 283.26408 289.421 295.5779 301.73484 307.89176 314.04869 320.2056 326.36253 332.51945 338.67637 344.83329 350.9902 357.14714 363.30406 369.46098 375.6179 381.7748 387.91978 394.0767 400.2336 406.39054 412.54747 418.70439 424.8613 431.01823 437.17515 443.33207 449.48899 455.6459 461.80284 467.95976 474.1047 480.76374 486.92066 493.0656 499.22254">http://dx.doi.org/10.21437/Interspeech.2019-2680</tspan></text>
<text xml:space="preserve" transform="matrix(1 0 -0 1 0 841.89)" font-size="11.9552" font-family="LMRoman12"><tspan y="-130.55" x="505.15803">.</tspan></text>
<text xml:space="preserve" transform="matrix(1 0 -0 1 0 841.89)" font-size="11.9552" font-family="LMRoman12"><tspan y="-107.855" x="86.400028 89.65184 94.26655 97.518367 100.77018 106.62823 112.486278">[sil19]</tspan></text>
<text xml:space="preserve" transform="matrix(1 0 -0 1 0 841.89)" font-size="11.9552" font-family="LMRoman12"><tspan y="-107.855" x="149.81041 154.42511 157.67693 160.92874 166.12926 172.3101 176.86504 182.06555 186.62049 193.12412 197.73882">silenterus.</tspan></text>
<text xml:space="preserve" transform="matrix(1 0 -0 1 0 841.89)" font-size="11.9552" font-family="LMRoman12" font-style="italic"><tspan y="-107.855" x="205.96202 216.44673 222.7232 225.712 229.59745 233.184 237.36833 244.0991 250.0767 256.65208 262.03193 268.3084 274.286 279.66587 290.21037 299.0333 305.0109 308.89634 314.87394 319.656 325.03587 334.08595 342.4546 345.4434 350.2255 356.2031 362.77845 368.1583 373.0958 379.0734 387.44206 393.41966 402.9838 408.36366 411.9502 418.52555 423.9054 434.00755 437.5941 443.5717 453.67384 464.15855 470.13615 474.9182 478.50477 482.3902 485.379 491.3566 494.94316 504.90184 513.7248 519.1046">Multi-LanguageDatasetCleaner/CombinerforMozilla&#x2019;sDe-</tspan><tspan y="-89.927" x="149.80402 155.18386 161.16146 167.73682 173.11666 177.89873 182.6808 188.06064 198.85619 205.58696 209.9267 215.9043 225.46846 230.8483 238.61917 244.59677 249.53427">epSpeechFramework</tspan></text>
<text xml:space="preserve" transform="matrix(1 0 -0 1 0 841.89)" font-size="11.9552" font-family="LMRoman12"><tspan y="-89.927" x="254.91002">.</tspan></text>
<text xml:space="preserve" transform="matrix(1 0 -0 1 0 841.89)" font-size="11.9552" font-family="LMMono12"><tspan y="-89.927" x="262.76103 268.91795 275.07487 281.23179 287.3887 294.25099 301.11326 307.9875 314.84977 321.00669 327.1636 333.32054 339.47746 345.63438 352.49665 359.35893 365.51585 371.67277 378.53504 385.3973 391.55424 397.71116 403.86808 410.025 416.18193 422.33885 428.49577 434.65269 440.8096 447.67189 454.5461 460.70304 466.85997 473.01689 479.1738 485.33073 491.48765 497.64457 503.80149 509.9584 516.82077">https://github.com/silenterus/deepspeech-</tspan><tspan y="-72" x="149.80402 155.96094 162.11786 168.27478 174.4317 180.58863 186.74555">cleaner</tspan></text>
<text xml:space="preserve" transform="matrix(1 0 -0 1 0 841.89)" font-size="11.9552" font-family="LMRoman12"><tspan y="-72" x="192.86801 200.01723 205.87528 211.73332 217.59137 223.44942">.2019.</tspan></text>
</g>
</svg>
