<?xml version="1.0" encoding="UTF-8" standalone="no"?>
<!DOCTYPE svg PUBLIC "-//W3C//DTD SVG 1.1//EN" "http://www.w3.org/Graphics/SVG/1.1/DTD/svg11.dtd">
<svg xmlns="http://www.w3.org/2000/svg" xmlns:xlink="http://www.w3.org/1999/xlink" version="1.1" width="595.276pt" height="841.89pt" viewBox="0 0 595.276 841.89" style='background-color: white;'>
<g enable-background="new">
<text xml:space="preserve" transform="matrix(1 0 -0 1 0 841.89)" font-size="11.9552" font-family="LMRoman12"><tspan y="-757.935" x="86.4 89.65182 96.15545 102.33629 108.83992 117.94978 123.80783 129.66588">[Syn+20]</tspan></text>
<text xml:space="preserve" transform="matrix(1 0 -0 1 0 841.89)" font-size="11.9552" font-family="LMRoman12"><tspan y="-757.935" x="149.82234 159.00394 164.86199 171.36562 175.92055 179.17237 184.37288 193.48274 199.98638 206.1672 212.67084 219.17447 225.03252 230.23303 236.09108 241.2916 250.41342 259.5233 262.7751 268.63316 274.814 279.36894 285.227 291.73063 303.45869 312.2338 318.73744 327.85923 333.87269 339.73075 344.93125 350.7893 363.151 372.2489 378.10697 384.6106 391.11424 400.248 407.72 413.57807 418.133 421.3848 427.24287 433.7465 445.46263 452.7792 456.031 462.21186 468.71549 474.57356 484.32899 490.18705 496.69068 501.89118 508.3948 514.2528 520.11087">GabrielSynnaeve,QiantongXu,JacobKahn,TatianaLikhomanenko,</tspan><tspan y="-740.007" x="149.804 157.76616 164.26979 170.12784 176.63147 182.48952 187.04445 197.23029 206.41188 210.96681 216.50208 222.36013 227.56064 234.49466 243.26978 246.52159 253.02523 258.22575 263.42625 270.36024 278.3224 282.87733 288.73539 293.2903 299.14839 305.652 312.586 321.3611 327.54197 334.0456 338.60054 344.78138 350.63945 360.82527 367.3289 371.88383 375.13563 379.69056 385.5486 395.30406 402.23805 411.01316 414.26496 418.8199 424.67796 427.92976 431.18156 441.05656 448.37315 451.62495 458.12858 462.6835 467.54927 474.0529 477.3047 483.80833 488.42304 494.60389 504.46693 510.32499 516.8286">EdouardGrave,VineelPratap,AnuroopSriram,VitaliyLiptchinskyand</tspan><tspan y="-722.08" x="149.804 158.4237 164.28176 170.78539 176.64344 188.20412 196.65645 202.5145 205.76631 209.01813 214.87618 221.70259 226.9031 231.45804 236.01297">RonanCollobert.</tspan></text>
<text xml:space="preserve" transform="matrix(1 0 -0 1 0 841.89)" font-size="11.9552" font-family="LMRoman12" font-style="italic"><tspan y="-722.08" x="244.301 252.2273 258.80265 264.78025 268.96458 272.85 278.8276 283.01194 288.39179 294.96714 306.19306 314.8845 321.45985 329.9839 338.81877 342.4053 346.74507 352.72267 367.53514 374.11048 380.38697 385.7668 391.14668 396.08418 401.46403 405.05058 409.83265 414.61476 425.82875 429.71418 440.9401 447.51545 452.8953 462.45945 466.046 470.23033 476.80567 483.08216 488.462 493.84187 498.77937 504.1592 507.74577 512.52786 517.3099">End-to-endASR:fromSupervisedtoSemi-Supervised</tspan><tspan y="-704.153" x="149.80399 156.53476 161.31684 167.29444 172.23194 178.8073 182.39386 188.96923 198.53339 206.30426 209.89083 213.77626 223.93819 234.4229 239.80274 245.78034 251.16017 256.09767 266.85734 274.95103 279.29078 284.67063 290.64823 294.23478 298.1202 302.9023 308.28218 312.1676 318.4441 322.78385 328.1637">LearningwithModernArchitectures</tspan></text>
<text xml:space="preserve" transform="matrix(1 0 -0 1 0 841.89)" font-size="11.9552" font-family="LMRoman12"><tspan y="-704.153" x="332.922 340.0712 345.92927 351.78733 357.6454 363.50346 370.6646 376.52268 381.0776 389.85273 393.10453 399.28538">.2020.arXiv:</tspan></text>
<text xml:space="preserve" transform="matrix(1 0 -0 1 0 841.89)" font-size="11.9552" font-family="LMMono12"><tspan y="-704.153" x="406.406 412.56294 418.7079 424.8648 431.02174 437.17866 443.33558 449.4925 455.6494 461.79438 471.8487 478.0056 484.16255 490.31947 496.47639 502.6333 508.79023">1911.08460[cs.CL]</tspan></text>
<text xml:space="preserve" transform="matrix(1 0 -0 1 0 841.89)" font-size="11.9552" font-family="LMRoman12"><tspan y="-704.153" x="514.877">.</tspan></text>
<text xml:space="preserve" transform="matrix(1 0 -0 1 0 841.89)" font-size="11.9552" font-family="LMRoman12"><tspan y="-681.244" x="86.400028 89.65184 97.12384 102.324359 108.1824 114.04045 119.8985">[Tea21]</tspan></text>
<text xml:space="preserve" transform="matrix(1 0 -0 1 0 841.89)" font-size="11.9552" font-family="LMRoman12"><tspan y="-681.244" x="149.81041 156.31404 159.56586 162.81768 168.01819 172.57312 182.26879 189.74079 194.9413 200.79935 210.5548">SileroTeam.</tspan></text>
<text xml:space="preserve" transform="matrix(1 0 -0 1 0 841.89)" font-size="11.9552" font-family="LMRoman12" font-style="italic"><tspan y="-681.244" x="217.63103 224.20639 227.79296 230.78176 236.16159 240.50133 250.60347 261.0882 266.46806 272.44566 277.8255 280.8143 285.59638 293.30747 299.28507 303.62483 309.00468 313.189 317.07444 321.41419 327.39179 330.97834 337.55369 342.3358 352.43794 357.81779 364.39314 368.27857 373.65843 378.59593 384.57353 389.51103 393.09757 397.87965 403.2595 407.44383 412.82368 417.16343 423.14103 429.11863 438.61106 445.1864 453.55506 466.04826 476.1504 484.51905 492.8877 503.5876 513.15176 519.12936">SileroModels:pre-trainedenterprise-gradeSTT/TTSmo-</tspan><tspan y="-663.317" x="149.80402 155.78162 161.16146 164.15026 173.45139 179.42899 186.00435 196.51297 201.29505 206.67488 213.25025 218.63008 224.60768 234.17185 240.14945 245.08695 250.46678">delsandbenchmarks</tspan></text>
<text xml:space="preserve" transform="matrix(1 0 -0 1 0 841.89)" font-size="11.9552" font-family="LMRoman12"><tspan y="-663.317" x="255.24002">.</tspan></text>
<text xml:space="preserve" transform="matrix(1 0 -0 1 0 841.89)" font-size="11.9552" font-family="LMMono12"><tspan y="-663.317" x="262.76603 268.92295 275.07987 281.2368 287.3937 293.9332 300.46073 307.0002 313.52775 319.68467 325.84159 331.9985 338.15544 344.31236 350.85185 357.37937 363.5363 369.6932 376.2327 382.76023 388.91716 395.07408 401.231 407.3879 413.54484 419.70176 425.85868 432.39817 438.9257 445.0826 451.23954 457.39646 463.55339 469.7103 476.2498 483.27946 489.43638 495.5933 501.7502 507.90715 514.0641">https://github.com/snakers4/silero-models</tspan></text>
<text xml:space="preserve" transform="matrix(1 0 -0 1 0 841.89)" font-size="11.9552" font-family="LMRoman12"><tspan y="-663.317" x="520.02407">.</tspan><tspan y="-645.39" x="149.80405 155.6621 161.52014 167.37819 173.23624">2021.</tspan></text>
<text xml:space="preserve" transform="matrix(1 0 -0 1 0 841.89)" font-size="11.9552" font-family="LMRoman12"><tspan y="-622.481" x="86.40005 89.65186 100.69847 106.55652 113.06015 122.17001 128.02806 133.88611">[Wan+20]</tspan></text>
<text xml:space="preserve" transform="matrix(1 0 -0 1 0 841.89)" font-size="11.9552" font-family="LMRoman12"><tspan y="-622.481" x="149.82239 158.27472 164.77835 170.6364 177.14003 182.99808 189.50171 195.35976 205.701 216.75957 222.61762 229.12125 234.9793 242.06873 249.86351 256.36714 266.72035 274.19236 280.0504 286.55406 292.4121 299.50154 308.27665 314.78028 319.3352 325.19328 332.28269 343.0065 348.86457 355.96595 364.74107 371.2447 377.74833 386.78645 397.83305 404.33668 411.43806 420.38056 429.80125 435.9821 440.53703 445.09196 454.7996 463.90946 470.0903 476.59394 482.452 488.95564 494.80174 504.50938 510.36744 516.87106">ChanghanWang,YunTang,XutaiMa,AnneWu,DmytroOkhonkoand</tspan><tspan y="-604.554" x="149.80405 155.8175 162.32114 168.17919 178.92691 186.88907 190.14089 196.64452 202.50257">JuanPino.</tspan></text>
<text xml:space="preserve" transform="matrix(1 0 -0 1 0 841.89)" font-size="11.9552" font-family="LMRoman12" font-style="italic"><tspan y="-604.554" x="209.99005 213.57662 219.55422 223.14078 228.07828 232.86035 237.64243 247.51743 254.09279 260.07038 268.43904 276.53269 283.26347 289.24107 294.02314 302.40373 308.97908 314.35893 319.14103 323.92314 329.30299 335.28059 339.4649 343.35035 349.32795 353.51228 360.98429 366.36415 371.744 380.12458 390.60929 395.98915 401.96675 407.3466 410.3354 413.92195 420.49729 430.37229 438.14317 441.7297 445.61515 456.0879 459.67445 465.65205 469.2386 474.1761 478.95817 483.74028">fairseqS2T:FastSpeech-to-TextModelingwithfairseq</tspan></text>
<text xml:space="preserve" transform="matrix(1 0 -0 1 0 841.89)" font-size="11.9552" font-family="LMRoman12"><tspan y="-604.554" x="489.11506 496.61097 502.46903 508.3271 514.1851 520.04318">.2020.</tspan><tspan y="-586.627" x="149.80405 155.6621 160.21703 168.99214 172.24396 178.42479">arXiv:</tspan></text>
<text xml:space="preserve" transform="matrix(1 0 -0 1 0 841.89)" font-size="11.9552" font-family="LMMono12"><tspan y="-586.627" x="185.56806 191.72498 197.8819 204.03882 210.19574 216.35266 222.50959 228.6665 234.82343 240.98035 251.03467 257.1916 263.3485 269.50544 275.66236 281.81929 287.9762">2010.05171[cs.CL]</tspan></text>
<text xml:space="preserve" transform="matrix(1 0 -0 1 0 841.89)" font-size="11.9552" font-family="LMRoman12"><tspan y="-586.627" x="294.05305">.</tspan></text>
<text xml:space="preserve" transform="matrix(1 0 -0 1 0 841.89)" font-size="11.9552" font-family="LMRoman12"><tspan y="-563.718" x="86.40004 89.651859 98.42697 104.9306 114.04047 119.89851 125.75656">[Xu+20]</tspan></text>
<text xml:space="preserve" transform="matrix(1 0 -0 1 0 841.89)" font-size="11.9552" font-family="LMRoman12"><tspan y="-563.718" x="149.82239 155.83585 159.08766 164.94571 171.1146 177.61823 187.39759 196.1727 202.67633 209.84946 218.94736 224.48262 230.34067 235.54119 240.7417 251.16664 261.89045 267.7485 272.30345 276.85838 282.71644 289.88954 296.39317 302.8968 308.75486 312.00666 315.58128 322.0849 329.24607 333.4782 338.09294 341.34474 347.2028 360.86759 366.72566 373.22929 383.6542 392.42933 398.93296 405.43659 409.99153 415.19203 421.05009 429.5861 438.3612 444.86485 449.41978 455.60063 462.42704 467.62754 472.18247 478.04054 483.24104 487.79597 494.96907 500.49238 509.67396 514.87448 519.4294">JiahuaXu,KaveenMatta,ShaifulIslamandAndreasN&#x00fc;rnberger.&#x201e;Ger-</tspan><tspan y="-545.791" x="149.80405 159.5595 165.41754 176.66739 183.17102 189.99744 195.19795 200.39847 205.2762 216.52605 225.14575 230.34627 235.54679 241.40483 247.26288 253.76651 257.0183 261.57325 264.82505 270.6831 281.93296 288.43659 294.61744 299.23216 303.78709 308.98759 323.5012 332.2763 336.89103 340.14283 346.64646 357.25074 366.19325 371.39375 376.59425 383.09788 389.6015 396.42793 401.62843 406.82893 411.70664 418.21028 423.73359 431.7316 435.95179 442.4554">manSpeechRecognitionSystemUsingDeepSpeech&#x201c;.In:</tspan></text>
<text xml:space="preserve" transform="matrix(1 0 -0 1 0 841.89)" font-size="11.9552" font-family="LMRoman12" font-style="italic"><tspan y="-545.791" x="450.45606 458.38236 462.7221 468.10197 472.88407 477.66618 482.44828 488.42588 492.01243 498.58778 503.96763 513.7111 519.6887">Proceedingsof</tspan><tspan y="-527.864" x="149.80405 153.68949 159.66709 168.83672 174.81432 178.69976 188.47911 192.98622 199.56159 203.44702 208.82686 213.76436 220.33972 226.31732 230.20276 233.78932 239.76692 246.34229 252.31989 259.09849 267.46714 273.44474 280.02009 283.60664 288.98649 293.32624 298.7061 305.28144 310.06355 319.24516 325.22276 335.5879 344.27934 350.25694 354.14237 360.41886 364.7586 370.7362 377.52677 384.25758 390.23518 396.81053 402.19038 408.46687 414.44447 419.8243 428.99397 436.92027 441.26 446.63987 451.42198 456.80183 461.5839 466.36598 469.9525 476.52787 485.6975 491.6751 498.25047 508.02983 512.5369 519.1123">the4thInternationalConferenceonNaturalLanguageProcessingandIn-</tspan><tspan y="-509.937" x="149.80405 153.39061 159.36821 164.30571 173.86988 179.84748 183.73291 187.31948 193.29708 204.34369 212.26999 217.64983 221.53527 226.47277 230.05933 235.43917 240.819 246.7966">formationRetrieval</tspan></text>
<text xml:space="preserve" transform="matrix(1 0 -0 1 0 841.89)" font-size="11.9552" font-family="LMRoman12"><tspan y="-509.937" x="249.77906 257.25108 266.02619 273.34278 281.30494 285.52513 298.35304 304.2111 310.06916 315.92723 321.78529 329.25727 335.7609 340.9614 346.81947 353.3231 356.5749 364.04689 372.66658 377.86708 384.3707 390.87434 397.37797 400.62977 403.88157 413.29029 419.14836 426.94316 435.71827 441.57633 446.13127 451.33177 457.18983 464.64985 473.42497 478.03968 482.6544 488.8472 494.03575 497.28755 503.1456 507.70054 510.95234 516.81039">.NLPIR2020.Seoul,RepublicofKorea:Association</tspan><tspan y="-492.009" x="149.80405 153.37865 159.2367 168.51393 176.96627 182.82431 192.57976 199.08339 205.58702 210.14196 213.39377 219.8974 230.47776 241.20157 247.05962 251.93735 258.44099 261.69279 268.1964 273.3969 277.95185 283.15238 291.13844 296.9965 302.85456 308.71263 314.57069 322.54478 329.0484 337.0225 342.88056 348.73863 354.59669 360.45475 366.3128 372.17088 378.02894">forComputingMachinery,2020,S.102&#x2013;106.</tspan></text>
<text xml:space="preserve" transform="matrix(1 0 -0 1 0 841.89)" font-size="11.9552" font-family="LMRomanCaps10"><tspan y="-492.009" x="385.94404 389.5545 395.03 401.96403">isbn</tspan></text>
<text xml:space="preserve" transform="matrix(1 0 -0 1 0 841.89)" font-size="11.9552" font-family="LMRoman12"><tspan y="-492.009" x="409.29603 417.28208 423.14015 428.98625 434.8443 440.70237 446.56044 452.4185 458.27656 464.1346 469.99269 475.85075 481.7088 487.56687 493.42494">:9781450377607.</tspan></text>
<text xml:space="preserve" transform="matrix(1 0 -0 1 0 841.89)" font-size="11.9552" font-family="LMRomanCaps10"><tspan y="-492.009" x="501.34703 508.80708 516.4106">doi</tspan></text>
<text xml:space="preserve" transform="matrix(1 0 -0 1 0 841.89)" font-size="11.9552" font-family="LMRoman12"><tspan y="-492.009" x="520.024">:</tspan></text>
<text xml:space="preserve" transform="matrix(1 0 -0 1 0 841.89)" font-size="11.9552" font-family="LMMono12"><tspan y="-474.082" x="149.80399 155.9609 162.12978 168.2867 174.44362 180.60054 186.75746 192.92633 199.08325 205.24018 211.3971 217.55402 223.71094 229.86786 236.02478 242.1817 248.33863 254.49555 260.65248 266.8094 272.9663 279.12324 285.28016">10.1145/3443279.3443313</tspan></text>
<text xml:space="preserve" transform="matrix(1 0 -0 1 0 841.89)" font-size="11.9552" font-family="LMRoman12"><tspan y="-474.082" x="291.335">.</tspan></text>
<text xml:space="preserve" transform="matrix(1 0 -0 1 0 841.89)" font-size="11.9552" font-family="LMRomanCaps10"><tspan y="-474.082" x="298.496 305.82456 313.02159">url</tspan></text>
<text xml:space="preserve" transform="matrix(1 0 -0 1 0 841.89)" font-size="11.9552" font-family="LMRoman12"><tspan y="-474.082" x="319.165">:</tspan></text>
<text xml:space="preserve" transform="matrix(1 0 -0 1 0 841.89)" font-size="11.9552" font-family="LMMono12"><tspan y="-474.082" x="326.32603 332.48295 338.63987 344.79679 350.9537 357.1226 363.2795 369.4484 375.60533 381.76225 387.91917 394.08805 400.24497 406.4019 412.5588 418.7277 424.89659 431.0535 437.21043 443.3793 449.53623 455.69316 461.85008 468.007 474.17588 480.3328 486.48973 492.64665 498.80357 504.96049 511.1174 517.2624">https://doi.org/10.1145/3443279.</tspan><tspan y="-456.155" x="149.80402 155.96094 162.11786 168.27478 174.4317 180.58863 186.74555">3443313</tspan></text>
<text xml:space="preserve" transform="matrix(1 0 -0 1 0 841.89)" font-size="11.9552" font-family="LMRoman12"><tspan y="-456.155" x="192.86702">.</tspan></text>
</g>
</svg>
